<?xml version="1.0" encoding="UTF-8"?>

<svg 
    fill="current"
    stroke="current"
    stroke-width="current"
    version="1.1"
    viewBox="0 0 1000 1000"
    width="1000"
    height="1000"
    xmlns="http://www.w3.org/2000/svg"
    xmlns:xlink="http://www.w3.org/1999/xlink">
<path d="M 152 691 l 0-3-2-2-2 0-2 2-7 0-2-2-6-3-1-1-9-1-1-2-2 0-6-3-2 0-2 4-3 0 0-9-1-3-4-2-4-5 0-6 3-3-2-2 0-3-3 0-1-3-3 1-2 2-2-1 1-6-3 1-1 3 1 1-4-1-1-2 1-1-3 0-1-2-1 2-2 0-1-2-4 2-2 3 2 2 2-1 1 3-1 0 0 4-3 3 2 2-1 3 0 4-4 0-6-2 0 1-3-2-3 2-2-1 0-1 6-8 2-1 1-6 2 0 0-3 1-1 2-7 2-1 1-3 1-1 0-6 2-1 0-7 1-1 2-9 2-3-1-1 1-1 0-6-2-1 0-3-2-2-1-4-1-1 5 0 0-5 6 0 2-5 2 0 4-2 4-3 2 0-1 3 1 0 5 0 2 3 1 0 4 4 2-7-1 0 1-4 4 0-2-3 2-6 2 0 0 2 4-1 4 2 1-2 10 10-1 3 1 1 4-5 2 1 3-7 3 0 0-7 2 1 4-2 6-1-1-5 2-3 0-2 3-2-2-4 2-2 1 0 0-5 3-2 3 0 1-1 3 1 0-2 2 0-1-4 4 0-1-1-2 0-1-2 3-2 3 0 1 4 3 0 3 2 3 1 0 1 5-1-2 8 3-1 2 1 1 3 3 2 1 4 3 0 1 3 3 0 0 5 5 0 0 4 7 4-1 4 1 3 2 1-3 3-2 11 3 10-2 4 0 3-4 4 2 4 2 0 0 3 1 1 0 3-2 0 0 3 1 1-2 4 2 5-2 1-1 3 4 3 0 3-4 2-2-1-3 3-2-1 0-1-2 0-1 3-1 0 1 3-3 2 0 1-3-1-2 1 0 2-5-3-2 0 0 8-3 1-1 2 2 5 2 1 0 6-2 2-4 0-2 1-5-1-2 6 2 1-1 1-1 3 4 4-1 3 2 4 2 3 3 0 1 2-1 2-6 1 0 2-5 4-1 4-1 0-2 2-4-2 1-2 3-1-2-2-1-7-3-1-8 3-3-1 0-5 z"></path>
<path d="M 187 739 l 2-3 2 2-1-3 1 0 0-1 3 0-1-1 1-1 2 1-1-2 3 1 2-2 0-2 3 2 2-1 1-2 3-2-2-3 3 0 0-4 4-1-2-5-3-2-6-7-1-1-2 1-2 0-1-1-4-1-2 6-4 1-1-3-6-2-1-2 1-2 6 0 1-2-1-2-3 0-2-3-2-4 1-3-4-4 1-3 1-1-2-1 2-6 5 1 2-1 4 0 2-2 0-6-2-1-2-5 1-2 3-1 0-8 7 3 0-2 2-1 3 1 0-1 2-1 0 1 3 0 2 2 3 1 2 0 0-1 9 4 8-2 3 4-5 0 0 5-2-1 2 3-1 2 2 1 2-2 4 1 0-2 2 0 3 0-3 3 2 2 0 3-3 2 2 6 2-1 3 1 4-1 0 2 3 0 0 2 1 0 1 0-1-1 2-1 4 1 0 1 1 1 0 2 1 1-1 1 1 1 0-1 1 1-3 2 1 2-3 6 4 0-2 2 1 1 3-2 5 5 1-1 5 0 2-1 2 1 0 2 8 3-3 3 3 2 2 3-5 1-3 7-3 4 1 4-2 2 1 4-2 2-3 0 0-3-4 1 0-2-2 0-2 4-6 3-3 6 5 3 4 12 2 0 1 1 3 1 1 4-2 3 3 5-3 2-3-5-2 4-6 0-1 3-2 0-2-1-2 3-2 0-3 7-4 1-2 5-2 1-7-2-3-4-3-1 1-2-3-3 1-6-2-4-6-5-5-10-2 0-2 0-1-1-2-4 1-2-1-2-6-1-3 2-1-4-2 0 1-2-1-1-3 0 0-3 z"></path>
<path d="M 257 695 l 3-6-1-2 3-2-1-1 0 1 0 0-1-1 1-1-1-1 0-2-1-1 0-1-4-1-2 1 1 1-1 0-1 0 0-2-3 0 0-2-4 1-3-1-2 1-2-6 3-2 0-3-2-2 3-3-3 0-2 0 0 2-4-1-2 2-2-1 1-2-2-3 2 1 0-5 1 0 1 1 3-1-1-3-3-1-7 2-9-4 0 1-2 0-3-1-2-2-2 0-1-1 1-1-1-2 0 0 0 0 0-1 0 0 1 0 1-3 2 0 0 1 2 1 3-3 2 1 4-2 0-3-4-3 1-3 2-1-2-5 2-4-1-1 0-3 2 0 0-3-1-1 0-3-2 0-2-4 4-4 0-3 2-4-3-10 2-10 3-4-2-1-1-3 1-4-7-4 0-4-5 0 0-5-3 0-1-3-3 0 0-3 1-2 2 0 1-1 5-2 2-3-1-2 2-2 0-2 1 0 2-2 13 0 0 3 3 0 1 3 7 1-2 2 1 1 4 4-1 1-1-1 0 2-3 1 0 3 5 1-1 2 11 1-2 2 0 2 3 2-1 2 2 1 2 2 2-1 4 0 2 4 5 1 1 1 1-1 4-1 2 0 2 2 1-1-1-2 5-2 1 2 7-2 2 2 1-10 2 0 2-2 7-1 14 4 5 3 0 3 4 1 0 2 1 1 0 6-2 2-3 0-1 1 1 2-1 1 2 3-1 1 2 4 0 3 1 2 2 1 3-1 1-2 3 0 1 2 2-1 3 3 2-1-1-2 1-1 3 2 0 1-2 2 0 1-1 0-2 3 4 4 0 2 2 2-1 1 1 2-3 4 1 1 0 5 2 6 3 2-2 1-3-1-1 2-3 0-1 2-2-1-1 1-5-2-1-3-1 2 0 2-1 0-5 2 0 2 3 2 0 3-1 3 2 2-7 3 2 3-2 5 2 2 0 1-5 1 3 1-1 2-1-1-3 0-1-1-3 2 1 5-1 4-2 0-1-1-3-1-2 4 4 2 0 2-1 0 0 2-6 2 2 3-3 1 3 3 1 2-1 1-6-1-2 1-2 2 2 0 3 5-1 1-2-2-1 1-1 4-3 0 0 2 4 2-3 2 0 3-1 3 2 2-1 2-7 0-2-3-3-2 3-3-8-3 0-2-2-1-2 1-5 0-1 1-5-5-3 2-1-1 2-2 z"></path>
<path d="M 414 333 l 4 0-2 1-2 6 7-2 1 2 5-1 1 7 5 5-1 4-1-1-1 3 1 1-1 2 1 0 1 2 2-1 1 3 3-1 1 3-2 5-5-1-1 2-4 0 0 9-3 0 0 5-1 0-1 2 3 4-1 7-3 0 0 3-5 3-2 1-2-1-1 0 0 3-8 6-2-1-4 1 0-3-4-1-2 1-1-1 0-1-2 0-2-1 2-3-1-2-3 0-1 1-5-2-1 2-1 0 0-5-1 2-1 0 1-2-3 1-1-3 0 3-2-1-1-2 2-2-2 1 1-3-1 0-2-4-4 1-2-1 1-1-4-2-1 3-2 0 0-4-4 3 1 1 2-1 0 1-4 5-1-2-1 2-1 0 1-7-5 0 0-5 1-2-2-3-4 0-1 3-3 0-2 3-2-1 0-1-2-1 0 1-1 0 0-3 3-1-2-1 1-2-5-4-3-1 2-2-2-1 0-2 3 0 2-2 0 2 4 0 1-1 0-2 1-2 0-6 1 0 0-5-1 0-1-5 1-2-2 0-1-3-2 0-6-6-3 2-5 0 0-3-2-1 2-4 2 0-1-9 3-2 0-7 3 0 1-1-6-3 2-1-1-3 1-2-3-4 9-1 0-2 2-1-1-1 2-2-2-3-1-1 0 1-1-1 0-1-4-4 0-2-1-1-1-2-7-2-1-3 4-3 1-4 8-7 1-6 3-5-1-4 1-4 3-2 3 0 3-3 3 6 3 1 3-3 6 4 1-2-2-1 1-2 2 2 4 0 0-4-2 1 1-1-1-3 2-2 1-5 2-1 0-2 1 0 3 3 2-2 3 1 2-4 2 0 0-1 1-1-3-4-1 0 1-2 3 2 2 0 1 1 1-1 1 2 1 0 2 2 4 0 2-2-1-1 3-6 4 2 0 2 2-2 2 0 0 2 2 2 0-2 2 0 0 3 2-2 0 2 5-1 0 3 1 1-3 1 1 2 9 2 10-1 0 1 1-2 4 0 1 2-1 1 2 1-1 1 2 1 1 2 3-1-2-2 1-1 3 1 2-1 2-3 3 1 2-2 0 2 2 1 2-1 1 1 1-3 3 0-5 8 0 3 2 5 0 9-3 11-5 6-5 1 1 2-3-1-6 2-6 0-3 6-3 0-1 2-4 3-4 5-2 7-4 4 4 1 1 3 3 2-1 9-2-1-2 1 1 2-1 3-4 1 1-3-2 1-6 4-3-1-1 1 2 2 12 2 11 7-3 4 0 3 z" class=""></path>
<path d="M 444 425 l 1-2-3 1-2-5-3 0-1-2-1 1-3 0 0-4-2 1 0-2-1-1-3-1-2 2-1 0 0 2-2 0-4 1-2 0-1-5 2-4-1-2 5-2 1-4 3 0 1-1 0-6-3-4 1-2 1 0 0-5 3 0 0-9 4 0 1-2 5 1 2-6-1-2-3 1-1-3-2 1-1-2-1 0 1-2-1-1 1-3 1 1 1-4-5-5-1-7-5 1-1-2-7 2 2-6 2 0 0-1-4 0 1-1 0-3 3-4-11-7-11-2-3-2 1-1 3 1 7-4 1-1-1 3 4-1 1-3-1-2 2-1 2 1 0-2 0 0 1-1 0-6-3-2-1-3-4-1 4-4 2-7 4-5 4-3 1-2 3 0 3-6 6 0 6-2 3 1-1-2 5-1 3-3 3-4 1-6 1-14 0 1 12 1 2 1 0 2 1-2 5 1 2-2 3 1 7-1 7 3 3 1-1 4 2 0 1 3-3 3 3 3 1 4-1 2 2 0 0 2 1 2-2 2 3 3 3 2 1-4 3 1 3-1 2 1 0 3 1-1 1 0 1 2 3 1-2 2 3 0 1-2 1 0 0 2 4-2 1 3-1 4 6 0 5-3 5 2 0 5 3 0-1 2 2 1-1 1 1 1-2 0-2 2 0 4 6 1 1 3-2 1 2 8-4 3-1 2-2 0 0 2-2 1-3-1 1 6 2 1-2 0 1 5 1-1 3 4-3 5 2 1 0 4-6-3-6-2 0 1 3 4-5 1-1 2-8-1 1 3 2 1-2 2 6 8-4-1-1 1 1 1-3 2-2 0 0 4 4 2 0 3 3 1 1 2-1 3 3 0-3 2 1 3 2 2-3-1 0-1-3-2-2 1 0 3-1 4 2 1-4 0-1 5-2 0-2 2 6 3 0 2-2 1-1 3-5 1 2 5-1 1-2-1 0 0-1 0 1 2 4 0 2 2-3 1 0 4-2 0-2 5-4 0-2 1 0 1 3 1 1 2-2 2 1 2-2 0-3 5-3-1 0 2 2 2-2-1-1-2-1 2-3 1 0-1-3 1-3-1-4 2 1 1-3 0-3-1 0-2-3-1-1-1 2 0-1-2-2-1-3-3 1 3-2 0 0 2-2 1-1 0-5 3-2-1-5 3-1-5-4-6-3 0 z" class=""></path>
<path d="M 797 700 l 3-3 0-3 3-8-2-2-3-1 1-4-12-3-6 6-2-1-2 3-8-1 1-2-2-1 0-4-2-2 0-4-4-11 1-9-3-7 3-3-4-5-1-6 1-3-1-2 0-5-1-1 2-5 2-2-2-4 6-3-3-3-1 2-1-2-3 1 0-1 3-1 2-5-1-2 2-2 1 0-2-4-3 1-2-4-2 1-1-1 0-2 2 0 2-3 3 0 1 2 3-10-3-1 1-4-3-4 0-4-5-1-3 1-9-3-1-3-4-3 2-1 0-5 1-1 7 4 0 0 1 3 2 1 2-6 1 1 1-2 4 1 2-5 1 1 0-2 2 1 0-3 2-2-2-1-1-3-4-2 1-2 1 0 1-2 3 0 0-2 3 0 3-2-3-7-6 0-1 1 0-1-2-1 1-1 4-1 0-5 2 0-1-3-2-1 0-3-2-2 1-5 4-1 1-2 4 0 3-4 1 0 2-1 2 0 3 2 3 0 3 0 1-4 10 3 3-2 1-3 3 0-1 4 3 2 4-3 5 0 1-3 1 0 3-6 2 0 2 3 2 0 0 1 6 0 2 3-1 2 2 2 0 4-1 0-5 1-1 4-1 1 2 1 1 5-1 1 2 2-2 0 0-2-5 3-2-2-1 5-3 3-3-4-3 2-1-2-1 1 0-2-1 2 1 1-2 2 3 1-1 1-2 3 5 1 0 4 4 5-3 5 8 3 0 2 3 2 3 1 0 1 3 0 0 0 5 4 0 1 5 5 2 0 5 3 6 1 0 7 6 0 0-2 3 0 0-5 4 1 0 1 4 2 5 2 0 1 2 2-2 1 0 2 2 1-1 1-1-1-3 1 2 8 2 0 2-3 3 3-1 1 1 0 1-2 1 1-2 3 3 0 2 6 2-2 1 2 1-1 0 1 2-3 1 1 0 1 5 2 2 3 3 0-3 3 0 2-2 2 0 2 3 1-1 2-6-1-2 2 1 2-7 0-3 2 1 1 0 1-3 2 0 2 1 6 3 1-3 1 1 1 0 2 2 0-2 2 1 2 1 0-3 2-3-1-1-1 1-1-5-2-4 1-4 10 2 1 1 4 5 0 0 2-2 2-1 4-4 2-4-2-4 2-1 0-1 5 3 1-3 1 0 2-2 0 3 6-8-1 1 1-3 5-3-2-4 3-1 0-1-1-2 2 4 0 0 3 2-1 0 3 1 0 4 5-3 5 1 2-4 3 3 2 1 6 1 0 2 1 1 2-4 2-5 6-4 2-4-1 0 2-1 0 0-1-1 0 0 1-1 0 1 0-3-1 0-1-5 2-7-5-5 0-1-1-4 0-3-6 z"></path>
<path d="M 988 731 l-18 2-8 4-2 2-1 7-5 2-1 3-2 1-3 5-3 3-2-2-2 0 0-2-1-2 2-1-2-1-3 1-2-1-4-1-1 2 3-8-3-1-1-2-2 0 0-3-2-1 2-2-3-1 0 2-10 7 0-1-4-3-4-1-16 18-13-1-4 1-10-1-5 2-2-1-5 0-3-1-1-3 9-3 0-2-6 0-4 1-3-1-4 1-2 2 0-2-3 0-3-2 0-3-2-1 0-1-3 1 1-5 3 1 0-2 1-1-1-4 2-1 0 1 4 1 0-2 2 0 1 3 2-3 1 1-1-1 3-2 0-1-2 0-4 1 0 0-1 0-1-1 4 0 3-3-5-2 0-4-2 0 1 0 0-1 2-1-1-3-2-3 4 1 4-2 5-6 4-2-1-2-2-1-1 0-1-6-3-2 4-3-1-2 3-5-4-5-1 0 0-3-2 1 0-3-3-1 1-1 1 1 1 0 4-3 3 2 3-5-1 0 0-1 8 1-3-6 2 0 0-2 3-1-3-1 1-5 1 0 4-2 4 2 4-2 1-4 2-2 0-2-5 0-1-4-2-1 4-10 4-1 5 2-1 1 1 1 3 1 3-2-2-1 2-3-2 0 0-2-1-1 3-1-3-1-1-8 3-1 0-2-1-1 3-2 7 0-1-2 2-2 6 1 1-2-3-1 0-2 2-2 0-2 1-1 2-1 0-1 0 0 0 0-3 0-2-3-5-2 0-1-1-1-2 3 0-1-1 1-1-2-2 2-2-6-3 0 2-3-1 0 0-1 0 1-2 1 1-1-3-3-2 3-2-1-2-7 3-1 1 1 1-1-2-1 0-2 2-1-2-2 0-1-5-2-4-2 0-1-4-1 0 5-3 0 0 2-6 0 0-7-6-1-5-3-2 0-5-5 0-1-5-4 0 0-3 0 0-1-3-1-3-2 0-2-8-3 3-5-4-5 0-4-5-1 2-3 1-1-3-1 2-2-1-1 1-2 0 2 1-1 1 2 3-2 3 4 3-3 1-5 2 2 5-3 0 2 2 0-2-2 1-1-1-5-2-1 1-1 1-4 2-1 4 0 0-4-2-3 2-3 2-1 1-4 0-3-2-2 5-4 0 2 6 2 2 4 5-3 2 3 1-1 0 1 4 0 1-2-3-3 1-1 1-2 2 1 0-1 2 1 2-2-3-3 4-4-1-2 6-1 4 1-3-2-1-6 3-3 1 0 4-9 8 2-1 6 1 2 7 1 4-1-1 2 4 0 1-1 0 1 2 0 1 2 2-1 0 3 2 0 1 1 3-2 1 2 2-2 1 1 1 1-2-1 0 4 3 0 1 3 2 0 1 4 0-2 3 0 4 1-1 2 5 4-1 1 1 1-1 0 2 3-1 4 4 4-2 2 0 2-2 0-2 3 2 0 0 2-3 3 3 4-2 1 1 2-2 0 1 3-1 3 1 0-1 1 2 0 2 5-1 1 0 2-3 2-1 2-3 0-2 3-1 2 1 1 1-1 1 3 0 0 0 1 1 1-1 2 1 3-2 2 0 1 1 1 0 1 0 5 4 7-1 3 0 1 5 1 1 2 0 3 2 1 2-1 1 2 1 2-3 2 0 2 4 0 0 2 2 2-1 1 1 1-2 2 1 1-1 0 1 3-2 0-1 4 0 1-2 2 1 3 1 1 0 2 4 0 1-1 3 5 2 8 2 0 0 1 5 3 3 4 1-1 3 2 0 3-2 1 2 2-1 2 2 1 0 3 1-1 1 1 2 0 1 4-1 1 2 1-1 1 2 2-2 2 5 2 1 6 9 9 4 1 3 2 3 0-1 4-3 2-10 0-4 4 0 4 1 2 1 2 3-1 2 1 0 1-1-1 0 2 1 0-1 1 1 0-1 4 3 1 3-1 0 7 2 0 1 2-1 3 1 1 1 0 0 5-2 17-3 9-3 2 0 4 z"></path>
<path d="M 174 482 l 0 4 2 1 0-1 1 0 1 3 5 1 5-3 2 1 1 6-2 1 1 3 1 1-4 3-1 2 7 0 1 2 2-1 0 3 2 0 3-2 0-3 3 1 1-1 3 3 4 1-2 1 5 4-1 2 2 0-1 3 1 2-1 2 3 2-3 2-1 0 0 2-2 2 1 2-3 3-8 4 0 4-1-4-3-2-1-3-2-1-3 1 2-8-5 1 0-1-3-1-3-2-3 0-1-4-5 0-1 2 0 1 3 1 1 1-4 0 1 4-2 0 0 2-3-1-1 1-3 0-3 2 0 5-1 0-2 2 2 4-3 2 0 2-2 3 1 5-6 1-4 2-2-1 0 7-3 0-3 7-2-1-4 5-1-1 1-3-10-10-1 2-4-2-4 1 0-2-2 0-2 6 2 3-4 0-1 4 1 0-3 5 1 1-3-2-1-1-1 0-2-3-6 0 1-3-2 0-4 3-4 2-2 0-2 5-6 0 0 5-4 0 1-2-3-4 2 0-1-5 1 0 0-2-2-5-2 0-1-2-6-1-6-5-3 0-3-3 0-3-2-2 6-7-1-3 1-6-2-4-7-6-1-3 1-2-1-1 0-5-4-2-1-6 1 0 1-3 3-1 2-4 4-2 1-4 2-2-2-5 2-3 0-2 3-4 0-4 2-2-3-4-3-1-1-3 0-5 2-4-1-4 2-2 1-4-2-4-9-3-2-2 1-3-1-3-1-1-1-7-1-4 2-6 3-1 6-9-3-2 0-4 4-6-7-9 7-5 5 5 3 0 1-2 2 0 1-4 4-4 1-6-1-4 3-2 3-1 0-2 2 0 0-3-1 0 0-3 2-1-1-2 3 0 0 3 3-2-1-2-2-1 2-4 2 0 0 1 0 0 2 2 3 1 1 4 4-3 3 5 21-8 1 1 0-1 4-1 1-1-1 0-3-5 0-4 6 3 4-4-1-1 6-3 2 1 7-3 1-1 2 4 1 0 1 1 3 0 1 1 5-3 4 2 4-1 2-3-2-2 1 0 2-3 2 0-3-2 4-1-1-3 5-1-1-4 6-1 7 2 0 0 0 2 1 2-1 5-1 0-2 3 0 10-1 1 1 0 0 2 2 4 0 4-2 1 1 4-2 1 2 2-1 0 0 1-2-1 0 2-3 2 0-2-2 3 0 3 2 1 1-1 0 0 0 1 1 2-2 1 2 4 0 4-4 3-7 1-4-1 2 7-3 0-1 5 2 0 0 2-2 1 3 4 2 1-1 3 3 4-2 2 2 3 2 0-1 2 2 5-1 0 1 3-2 1 0 2-2-1 0 1-2-1-1-3-1 2-1 0 4 7 5 2-1 3 0 3-1 0 1 7-1 0 0 4-3 3 0 6-2 3 1-1 1 3-1 4 2 1 1 2-1 4-4 3 2 4 2 0 4 3 1-3 4 1 3 4-1 1 0 3-3 0 z"></path>
<path d="M 518 552 l 2-5-1-4-3-2-4 0-2-3 0-2-1 1 0-1 1-1 0-1 3 0 0-2-4-2 0-2 2-2-1-2-1 1-1-2 2-1-1-1 1-3 4 1 0 2 7-2-1-3 5-1 1 0 2 2 3 0 1 1 2 1 1-2 2 0 0-3 5 2 5-4-1-3-3 0 3-5 0-3 1 1 1-1 2 1 2-1 7-1 1 3 2 2 1 4 1 1-1 2 1 2 5 2 3 0 1 2 4 2-2 2 0 2 1 0 0 1-1 0-1 2 3 1-2 2 0 2-1 1 0 3-3 1-1 2 1 0-4 7-3 1-1-4-1-2-2 1-2-2-3-1-1 0 0 2-1 0 0-2-2 0-2 3 1 0-1 2 0 7-4 1 0-4-3 1-2 4-3-2-1 2 3 3-4 4 3 4-2 7-6 0-1-2-2 0-1-2-2 1 0-2-1 0 0-4-2-2 2-3-1-1-2 0 1-2 z"></path>
<path d="M 496 646 l 4-8 2-2 2 0 0-4-5-3 1-4 6 1 1-2-2-1-3-3 1 1-2 1 0-2-5-3-1-4-3-2-1 4-2-1 0 0 0 1-3 0-1-3 2 0-1-4-2-3-2 2-2 0-1 3-3-3-2 1-8-1 0 1-4 0-1-1 3-3 0-1-2-2 2-3-1-1 3-1 1 0-2-1 1-1 2 3 4-2 5 4 0-3 3 1 1-5 2-1-2-5 1 1 2-2-1-7 9-2 3 1 1-2 4-1 2-3 0-5 1-2 2 4 4 1 7-2 0 2 1 0 1-2 2 2 2-1 0-2 2 0 0 2 2-1 1 2 2 0 1 2 6 0 2-7-3-4 4-4-3-3 1-2 3 2 2-4 3-1 0 4 4-1 0-7 1-2-1 0 2-3 2 0 0 2 1 0 0-2 4 1 2 2 2-1 1 2 1 4 3-1 4-7-1 0 1-2 3-1 0-3 1-1 0-2 2-2-3-1 1-2 1 0 0-1-1 0 0-2 2-2-4-2-1-2-3 0-5-2-1-2 1-2-1-1-1-4 3 1 0-1 3-1 0-2-2 0 0-2 2-1 0-2 2 0 0-2 1-1 0-1 4-1 1 2 1 0 4-2-1-1 4-3-1-1 4 1-1-1 2-2-1-4-2 0-1-3 3-2-1-5-1 1 0-1 1-1 0-2 5-1 0 2 4 4 5-1 2 3 0 4-3 0 1 3-5 5 3 4 1 1 1-2 1 1-1 1 2 4 2 1-5 2 1 3 2 0 2-1 2 1 0 2-1 1 2 0 1-1 3 0 0-1 1 0 1-2-1 0 1-1 2 2 1 0 1-3 1 2 1-1 4 2 1 3-1 2 2 2 1-1 6 1 0 2 2 1 0 3 2 0-1 3 2 0 0 1-1 1-5 0 0 1 3 0-1 3 2 4-1 0 1 0-1 3 6 2 2 2-1 8-1 0-2 3-10-1-1-3-2 0-2-2-2 2-1-1-1 2-3 1-1 2 0 2-1 1 0 0 0 0 4 1 1 4-1 1 1 1 1 3 2 0 1 3-1 3-1 5 5 1 2-1 2 7-5 4 1 2-1 3-3 0 0-1-2 8-1 1 1 4-2 2 0 1-5 1 3 6-1 2 0 3-1 1-4-3-2 2-3 0-2-1 0-1-2 0 0 2 2 1-1 3 2 0-2 2-1 0-1 1-1 0 0-1-1 1-1 1 0-1-2-1 0 2-2 0-4 1-6-1-1 1 0-2-3 0-3 3 4 3-4 4 1 1-2 0 1 6-1 4 7 1 0 1 1 0-1 1 0 7-1 3 0 3-2 2-6-5 0-2-1-1-1 0 0-2-4-1-1-3-1 0-2 7-3 6 2 5-1 3-5 2 0 3-4 4 0 2-2 1-6 0-1-2 0-3-5 0-3-5-1 0-5 2-1 2-1 0-2 1-1-1-1-7-3-2 0-4-3-2 0-1-1-3-4 2 0-2-3-2-1-2 1-2-1-1-3 0-3 2-1-1-4 0 z"></path>
<path d="M 462 609 l 4-1 0-1 8 1 2-1 3 3 1-3 2 0 2-2 2 3 1 4-2 0 1 3 3 0 0-1 0 0 2 1 1-4 3 2 1 4 5 3 0 2 2-1-1-1 3 3 2 1-1 2-6-1-1 4 5 3 0 4-3 0-4 8 0 3 2 0 2 1-1 2 2 3-1 0-1 2-4 1-4-2 0-1-2 0 1-1-2 0 0 2-1 0-2-5-3-1-2 2-1-1 1-2-3-2-1-2-9-6-3 7-4-3-4 1 0 0-2 0 1 1-10 0-5 2-4-4-4-1-2-7-1-2-3 0 0 5-3 3-1-1-2-4-1 1-3-1 0-1-4-1-1-1-6 1-5-4-8 0-2-2 1-4-1 0 0-2 2-3-2-3 1-4-2-1 0 1-1 0-1-1-2 2-1-1 1-2-1-1 2 0-1-1 0-3-2-3 0-2-2-1 3-2 3 0 2-5 4 1 2-6-2-3 3-1-1-1 12 6 3-6-1-3 4-1-1-6-2-3 2-2-1-3 1-5-3-1 2-2-2-2 1-1 1 0 2-3-3-1 1-3 3-3 0-1 2 0-1-3 2-1 0-1-2-3 1 1 2-3-2-4 1 0 0-2 0 2 2-1 0-5 3 1-1-1 1-4 4 0 0 3 4-2 4 0 2 2 8 2 0-7 3-1 0-1 4-8-2-1 0-5-1 2-2-3 2 0 0-2-1-1 1-2-1-5 0-5 3-2 4 3 2-2 1 1 1 0 1-3 2-1 2 1 4 1 1-4 1 0 1-3-1-1-1 1-2-2 1-10 3 0 1-2 1 1 2-2 3 0 3 0 2 2 1-1-1-3 1-2 2-1-1-4-6 0 1-4-1-4 1 0 0-2 2 0-1-1 4-2 3 1 3-1 0 1 3-1 1-2 1 2 2 1-2-2 0-2 3 1 0-1 4-4 3 1-2 2 4 1-1 3 4 1 5 0 0 1 2 0 3-2 4 2-1 3 3 2 2 0 1 2 7 1-1 2 2 0-1 2 3 1 4-1 1-3 3 3 3 0 3-2 0-1 2-1 3 2 3-3-1 0 3-3 2 2 2 0 4 5 7 1-1 2 5 2-2 7 2 3 1 3 2 1 0 2-1 1 0 1 1-1 1 5-3 2 1 3 2 0 1 4-2 2 1 1-4-1 1 1-4 3 1 1-4 2-1 0-1-2-4 1 0 1-1 1 0 2-2 0 0 2-2 1 0 2 2 0 0 2-3 1 0 1-4-1-3-9 1 4-7 1-2 1-2-1-1 1-1-1 0 3-3 5 3 0 1 3-5 4-5-2 0 3-2 0-1 2-2-1-1-1-3 0-2-2-1 0-5 1 1 3-7 2 0-2-4-1-1 3 1 1-2 1 1 2 1-1 1 2-2 2 0 2 4 2 0 2-3 0-1 2 0 1 1-1 0 2 2 3 4 0 3 2 1 4-2 5 3 2-1 2 2 0 1 1-2 3 2 2-1 6-3 1-1-2-1 2-1 0 0-2-7 2-4-1-2-4-1 2 0 5-2 3-4 1-1 2-3-1-9 2 1 7-2 2-1-1 2 5-2 1-1 5-3-1 0 3-5-4-4 2-2-3-1 1 2 1-1 0-3 1 1 1-2 3 2 2 0 1-3 3 z" class=""></path>
<path d="M 514 864 l 3-1 0-2 3-1 0-2 2-1-1-4-2-2-2 2-3-3-2 1-3-1-3-6 0-5-2-2-5-1 0 0-2-1-1 2-3 1-1-2 4-3 0-4-1-2 0-5-5 2-3 0-1-2-2 0 5-2 0-1-2 0 1-2 0 0-1-3 1 0 0-1 2-2 0-2 1 1 0-4 1 0 1-1 5-1 0 1 1-1 1 0-2-2 4-9 1 0-1 3 2-1 0-4 4 1 3-2 1 0 0-3 1 0 1-2-2 1-2-2 4-1 4-2 1 1 0-2 2-2 10 1-1 1 1 0 5 1 1 1-7 0 1 1-2 1 3 1 2 2-3 1 1 4-1 0 0 1 0 3 2 2 3 2 5 9-2 0-3 2-2 0 0 1 2 4 1 0 1-2 0 1 0 2 2 0 1 1 1-2 3 1-2 2 1 3 4 1 0-2 2 0 2 6 1 0 0 2 1-1 2 3 3 1 1 0 0 1 2-4 2-1 0-3 4 1-1 2 4 2 1 0 2-4 1 1 3-2 2 0 1 4 3-2 2 1 2-3 4 2 0 2-1 1 2 2 4-1 2 1-1 0 0 1 2 0 1 2 3 0 1 4 0 2-2 1-1 2 0 0-4 2-2-1-2 9-2 1-1 2-2 0-5-2-4 7 1 3-1 4-5 0 1 3-1 3-6-3-2 0-1 7-6 0-3 2-1-1-1 1 1 1-2 1-5-1-2 1-7-8-3 0 1 4-1 1-7 3-5-4 0-2 1-2-1-3 1-3-2-2-2-1-3 1 z"></path>
<path d="M 600 794 l 4 2 3-1 0-3 1 0 0-4 3 0 1 0 2 2-2 1 1 3 3 0-2 1 1 2-1 2-4-1-2 3-2 0-1 2-1-1-3 5-3-1-8 2-1-1-1 0-2 6-2 1-4 0 1 2-1 2-4 0-1 1 3 1 0 2 2 0 0 3-2 0-3 2-1-1-2 4-1 0-4-2 1-2-4-1 0 3-2 1-2 4-4-2-2-3-1 1 0-2-1 0-2-6-2 0 0 2-2-1-2-1-1-2 2-1-2-1 0-1-2 2-1-1-2 0 0-3-1 2-1 0-2-2 0-3 2 0 3-2 1 1 1-1-2-3 0-2-3-4-3-2-1-1-1-5 1 0-1-4 3-1-2-2-3-1 2-1-1-1 7 0-1-1-5-1-1 0 1-1-14-2-8-4 3-2 1 2 1-2-1 0 2-1 1-2 1-2 1 0-1-2 2-3 3 2 3-1 1-4-3-3 0-1 3 1 0-5 3-3 2 0 1 1 3 0-1 1 3-1 1 1 2-1 3 1 0-1 2-1-1-1 3-2 1-2 1 1 9 0 2 1 3 0 0-2 5-1-1-2 1-1 8-1-3-4 2-3 6 2 0 1 3-1 0-1 2 1 2 2-1 1 3 1 2-1 3 1 5-2 2 3 2-1 1 2 1 0 0 6 2 2 2 5 2 0-1 3 3 1-3 2-2 0 1 2-1 2 0 3-10 1-2 1 0 3-4 1-1 2 3 5 2 0-1 1-1 3 2 2-1 2 1 1-3 3 4 1 2 2 z"></path>
<path d="M 556 940 l 3-8 3-1-1-4-2 0 1-4-1-3 1-4-1-7-5 1-3 3-3-3-6-1 2-4-1-1 0-2-3 1-2-2-1 1-3-6-3-11 0-2 7-3-1-5 3 0 7 8 2-1 5 1 2-1-1-1 1-1 1 1 3-2 6 0 1-7 2 0 6 3 1-3-1-3 3 0 2 1 1-3-1-5 4-7 4 2 3 0 1-2 2 0 1-2-1-2 1-1 1-5 2 1 4-2 0 0 1-2 4-1 3 4 3-2-1-1 1 0 3 1 2 6 2 0 3-1 3 0 1 0 2 0 0 0 0 0 0-3 5 0 7 6 3-2 0-2 2 0-1-2 2 1 2-2 1 1 5-1 2 1 0 2 4 0 5 4 2-1 1 2 1 0 1 2 0 0 2 2-1-1 2 0 1-1 3 2 2-3 2 0 2 0 0-3 4-1 3 3 4-4 4 0 3-2 7 1 2 4 3-1 4 3-1 2 2 1-1 3 3 1-1 6 3 4-4 6 6 4-2 4 2 1 2 4 1 1 2 2-4 1 3 3-2 2 1 4-3 0-3-3-4 1-3-2-1 2-4 2 0 3-2 2-3 0-3-3-3-2-1 2-2-1-5 2 1 2 5 5-1 1-2 2-1-1-3 0-5 6 0 3-3 0-3 2-3-4-3 1 1-2-2-3-1 0-2 2-3-2-1 1 0-2 1 0 0-1-3 0 0-2-2 0 0-1-2-1 1-2-1-1 0-2-6 0-2 3-3 0-3-3 0 3-4 4-7-2 0-2-3-2-4 0 1 1-2-1 0 3-1-1-1 2-2 0-2-2-1 1-4-1-1 3 1-1 1 0 0 0-2 8-2-1-2 0-1 1-1-1-3 1-1-1-3 1-1 3-1 0 0 2-1 2-1-3-1 1-1 6-3 4-1 12-8-4-1-3-3-2-5 0-3 1 0 3-4 2-3 1-3-2-3 1 z"></path>
<path d="M 604 835 l-3 0-1-2-2 0 0-1 1 0-2-1-4 1-2-2 1-1 0-2-4-2-2 3-2-1-3 2-1-4 0-3-2 0 0-2-2 0 0-1 1-2 1 1 2 0 1-2-1-3 4 1 2-1 0-3 3-3 0 1 5-2 7 1 3-5 1 1 4-3 1-2 4 1 1-1-1-3 2-1-3 0-1-1 0-2 2-1-1-2-5 0 0 4-1 0 0 3-3 1-4-1 0-3-2-2-4-1 3-3-1-1 1-2-2-2 1-3 1 0 0-1-2 0-3-5 1-2 4-1 0-3 2-1 8 0-1-1 3 0 0-3 4 1 0 2 2 1-1 0 0 2 2 0-3 3 2 1 3 3 2 0-2 2 0 2 1 2 2-1 1 3 2-1 2 1 0-1 2 1-1-1 5 2 5-3 2 3 1-3 4 0 0 0 1-1 2 1 3-1 0 1 0-1-1-1 3 0 0-2 2-1 0-3 4-3 3-3 4 2 2-3 2 0 2-2 4 1 2-3 11 0 2-4 3 0 1-2 2-1 2 1 2 3 1-3 2-1 2 7-4 2-1 3-3 4 4 3-4 0 3 5 0 5-2 5 3 0-3 2 5 2-2 1 2 3-3 1 2 2-2 2-2 2 5 4-1 2-3 2 0 4 3 8 8-1 3 1 0 5-2 2-4-1 0 6 3 2 5-1 4 3 1 2-2 1-3 2-2-2-1 2-2 0 0 3-8-1-3 2-4 0-4 4-3-3-4 1 0 3-2 0-2 0-1 0-1 3-3-2-3 1-1-1 0 0-1-2-1 0-1-2-1 0 0 1-1 0-5-4-4 0 0-2-2-1-5 1-1-1-2 2-2-1 1 2-2 0 0 2-3 2-7-6-5 0 0 3-6 0-3 1-2 0-2-6-3-1 0 1-2 2-2-1-2-3-2 0 z"></path>
<path d="M 595 487 l 5-5-1-3 3 0 0-4-2-3-5 1-4-4 0-2-4 1-3-1-1-3-2-3 2-7-5-2 1-2-8-2-1-2-2-1 0-2-2 1-1-2-2 0-2 3 1 0-3 3-3-2-2 1 0 1-3 2-3 0-3-3-1 3-4 1-3-1 1-2-2 0 1-2-7-1-1-2-2 0-3-2 1-3-4-2-3 2-2 0 0-1-5 0-4-1 1-3-4-1 2-1-3-4 2-2 0-1-4-2 0-1 2-1 4 0 2-5 2 0 0-4 3-1-2-2-4 0-1-2 1 0 0 0 2 1 1-1-2-5 5-1 1-3 2-1 0-2-5-3 0-1 3-1 1-5 4 0-2-1 1-4 0-3 2-1 3 2 0 1 3 1-2-2-1-3 3-2-3 0 1-3-1-2-3-1 0-3-4-2 0-4 2 0 3-2-1-1 1-1 4 1-6-8 2-2-2-1-1-3 8 1 1-2 5-1-3-4 0-1 6 2 6 3 1-2-3-3 3-5-3-4-1 1-1-5 2 0-2-1-1-6 3 1 2-1 0-2 2 0 1-2 2-1 4-2 6 2 0-4-1-1 6-7 2 1-1 5 7 5 4-1 1 1 1-2 4 0 0-1 3-1 3 5 3-3 9 3 4 0 5-2 1-1-4-1 5-3 4-7 4-4 1 2 3 0 2 2 1-2 2 1 2-2 1 1 2-1 0-2 5 0 3-6 0-2 2 0 0-2 2 1 1 0 0-2 2 0 6 2 2 2 2-5 3 2 1-2 1 1 1-1-2-3 1-2 2-1 2 1 3-2 4 2 3 4 2 1 0 1 6 1 4 4 1 0-3 4-1 0 0 1 1 1-1 1 1 0 0 3 1 1-1 1 1 1-2 2 3 1-4 1 2 2-1 0 4 2 2 3-3 3-3-4-2 2-1-2 1 4-1-1-3 2 0 4-3 1-3 4-2 0 1 2-1 5 1 1 0 3 3 1 0 5-6 1 4 7-1 0-3 3-3-1 0 2-3-1 0-2-1 3-1 0 0 2-3-1 2 4 0 2 3 0 3 3 0 3-3 0 2 4-1 0-1 2-3-2-2 2-2 0 0 1-1-2-2 2-1 0 2 3-3-1 0 4-5 2 0 3-3 1 1 3-1 2 1 2 0 4 1-1 1 2-1 2-6 0 0 2-2 0-3 2 2 6-4 4 0 7-4-1-5 4 0 3 1 1-9 6 0 2 2 0 0 7-3 1-1 2 3 1 0 1-3-1 0 2-3 0 0 1-2 0-2 1 3 0 0 4 1 0-2 2 4 1 1 1 1-2 2 0 0 4 2 0 0-3 1-1 3 1 2 0 0 1-1 1 1 1 0 7-3-2-4-1 0 0-2 5 2 0-1 4 3 3-1 2 3 1-1 1 1 1-1 0 3 5-1 2 3 2 3-3 10 0 0 1-1 1-1 0 1 2 0 6 0 1-1 0-1 2 2 0 0 2 2 1 0 2 4 3-1 2-1 0 0 8-2 2-4-1 0-3-2-1 0-2-6-1-1 1-2-2 1-2-1-3-4-2-1 1-1-2-1 3-1 0-2-2-1 1 1 0-1 2-1 0 0 1-3 0-1 1-2 0 1-1 0-2-2-1-2 1-2 0-1-3 5-3-2 0-2-4 1-1-1-1-1 2-1-1 z" class=""></path>
<path d="M 761 606 l-2 1 2 4-2 2-2 5 1 1 0 5 1 2-1 3 2 7-2 1 1 1-2 2 1 1-3 1-2-1-2 1-4-6-2 1-1-1-3 1 2 1-1 1-1-1-2 2-1-1-4 2-1-2-3 1 1 1-2 1 2 1-3 0 0 1 2 0-2 1 1 1-3 1-3-2-6-2 1-3-3-1 0-3-21 1 0-7 1 0-2 0-2-2-4-2 3-6-1-1 0-1-4-2 1 5-2 4-3 0 0 1-3 1 0-2-8-6-4 7-3-3-3 0-1 2 1 1-1 2-2-1-1 1-1-1 0-1-5-2-2 3-2 0 2-7-1 0 0-2-6-2-3-4-3 1-1 2-2 0-1-4-1-1 1-2 0-1-4-1 1-1-1-1-1-1 2-1 1-1-1-2-8-2-1-3 1-1 2-8 0 1 3 0 1-3-1-2 5-4-2-7-2 1-4 0 0-6 1-3-1-3-2 0-1-3-1-1 1-1-1-4-4-1 1-1 0-2 1-2 4-2 0-1 1 1 2-2 2 2 2 0 1 3 1-1 6 2 3 0 0-2 3-1 1-8-2-2-6-2 1-3-1 0 1 0-2-4 1-3-3 0 0-1 6-1 0-1-2 0 0-2 1-1 2 1 2-2 0-8 1 0 1-2-1-1 1 0 0-1-3-1 0-1 4 0 0-2 3 1 4-1 0 1 1 0 4-2 1 2 2 0 1 2 5 0 1 2 0-2 2-1 2 2 0-1 2 1-1 1 1 0-1 1 2 1 5-4 0-1 2 1 4-2 4 1 3 0 1 1 2 0 1 2 1 0-1 3 1-1 2 1 1 1-1-1 1 0 1-1 7 9 7 3 6 6-2 6 3 4 0 3 3 6 7 0 5 6 7 4 1 3 9 3 3-2 5 2 0 4 3 4-1 4 3 2-3 9-1-2-3 0-2 3-2 0 0 2 1 1 2-1 2 4 3-1 2 4-1 0-2 2 1 2-2 5-3 1 0 1 3-1 1 2 1-2 3 3 z"></path>
<path d="M 703 509 l 1 1 2-2-2-2 2-2 3 2 6-2 1 1 1-1 3-2 4 2 0-2-2-1 0-1-1 0-2-1 0 0 4-3-1-1-1-3 5-1-1-2 1-1 1-3 5-2 0-6-2 0-2-3-1 1-2-2 1-1 1 0-2-2 1-1-5 0 1-3-3-1-1 1-2-5-3 2-2-1 2-4-2 0-3-4 0 2-2-2-3 1-1-3 0 1-4 0 1-2-2 0 0-1 1-1 0-2 5-1-1-2 1 0 14 2 2-2-6-2 2-1-3-1 6-1 4 2-1-3 1-3 9-3-1-1 0 0-1-1 0 0 5 2-1-2 2 0-1-3 1 1 2-2 2 1 1 0-1-2 1-1 2 2 0-2 2-2-2-5-4-5 4 2 2-1 1 1 0-4-3-5-7 0-4-6-3-1-1 1-1 3 1 2 2 0 0 2-4-1-1 5-2 0-2 3 0-2-4 1-2 2-4-1 0-2-3-1 0-2-4 0-1-5-12 1-2 3-2-1 1-2-1 0-2 0 0-3 1-3-3 1-1 2-4 0 0 2-4-1 0 1-3 0-1-3-4 0-2-2 0-3-5-4 0-4-4 2-3-3-3 1-1 2-2 0 0 2-2 1 0-4-1-2 1-2-1-3 3-1 0-3 5-2 0-4 3 1-2-2 0-1 1 0 2-2 1 2 0-1 2 0 2-2 3 2 1-2 1 0-2-4 3 0 0-3-3-3-3 0 0-2-2-4 3 1 0-2 1 0 1-3 0 2 3 1 0-2 3 1 3-3 1 0-4-7 6-1 0-5-3-1 0-3-1-1 1-5-1-2 2 0 3-4 3-1 0-4 3-2 1 1-1-4 1 2 2-2 3 4 3-3-2-3-4-2 1 0-2-2 4-1-3-1 2-2-1-1 1-1-1-1 0-3-1 0 1-1-1-1 0-1 1 0 3-4-1 0-4-4-6-1 0-1-3-3 6-3 5-6 7-5 3-1 1 1 0 2 1-3 5 2 3-3 3 1 2-1 0-1 1 0-2-2 2 0-2-2 9-3 4-1 5 0-2 1 1 0 0 2 1 0 0 0-2 0 1 1 0 4 2 1 0 3 1 0 2 1 1 4-1 1 3 0-2 3 1 2-1 0 0 1 3-1 0 2 5 2-3 1-2-1 0 1-3-2 1 3-2 3 2 1-1 2-3 0 2 3 2 0 2 5 1 0-2 1 2 5 2 2-1 4 4 5 7-2 3 6 2 1 1 2 3 0 2-3 2 1-2 4 2 0 0 1-4-1 0 3-2 2 4 4 9 3-2 2 2 0 1 1 0 1 2 1-2 2-2 1 2 2-1 5 3-2 1 1-1 3 1 2 4 1 2-3 2 3 5-3 4 1-1-5 5 1 2-2 2 3-2 3 3-1 0 3-3 1 0-1-1-1 0 1-2 1 1 0 3 8 0 1 2-1 0 4 1 0 0 1 2 0 0 1 1 0 1-2-1-3 4-1 0-2 7 0 1 3-2 12 2 7 2 1-2 1 0 3-4 2 1 2 4 2 1 3 6 7-1 5 2 5 1-1 1 0 0 7 2 3 1 0 0 1 3-1 1 2 1-1 2 1 1-1 1 1 4-1 2 1 0 3 3-3 2 2 2-1 5 2 7-2 4 0 4 6 1-1 4 2 1 3 0 3 2 1 3-3 3 1-5 9-1 0-3 3 1 6 3 2-4-1-6 1 1 2-4 4 3 3-2 2-2-1 0 1-2-1-1 2-1 1 3 3-1 2-4 0 0-1-1 1-2-3-5 3-2-4-6-2 0-2-5 5 2 1 0 6-1 1-2 1-1 2-2-3-6 0 0-1-2 0-2-3-2 0-3 6-1 0-1 3-5 0-4 3-3-2 1-4-3 0-1 3-3 2-10-3-1 4-3 0-3 0-3-2-2 0-2 1-1 0-3 4-4 0-1 2-3 1 0-1-2 6 2 2 0 3 2 1 1 3-2 0 0 5-4 1-1 1 2 1 0 1 0 0 1-1 6 0 3 7-3 2-3 0 0 2-3 0-1 2-1 0-1 2 4 2 1 3 2 1-2 2 0 3-2-1 0 2-1-1-2 5-4-1-1 2-1-1-2 6-2-1-1-3 0 0-7-4-1 1 0 5-2 1-3-1-5-6-7 0-3-6 0-3-3-4 2-6-6-6-8-4 z" class=""></path>
<path d="M 659 458 l 2-2 0-3 2 0 0-2-3-1 1-3 0-8 4-1 1-3-2-2 4-2 2-1 0 2 3-1 1 1 2-1 4-1 2 7-1 1 0 3 3 4 4-1 2-2 0 3 2 1-1 2 7-1 0 2-1 1 0 1 2 0-1 2 2 2-3 2 3 2-1 1 2 1-2 3 1 0-1 1-2-2-8 3-2 3 0 0-5 5-4-3-5 2-1-6-6-4-1-3-4 1 z"></path>
<path d="M 643 498 l 0 2-4 0 0 1 3 1-1 1-3-2 0-2-2-1 0-2-2 0 1-2 1 0 0-1 0-6-1-2 1 0 1-1 0-1-10 0-3 3-3-2 1-2-3-5 1 0-1-1 1-1-3-1 1-2-3-3 1-4-2 0 2-5 0 0 4 1 3 2 0-7-1-1 1-1 0-1-2 0-3-1-1 1 0 3-2 0 0-4-2 0-1 2-1-1-4-1 2-2-1 0 0-4-3 0 2-1 2 0 0-1 3 0 0-2 3 1 0-1-3-1 1-2 3-1 0-7-3 0 1-2 9-6-1-1 0-3 5-4 4 1 0-7 4-4-2-6 3-2 2 0 0-2 6 0 1-2-1-2 4-4 3-1 3 3 4-2 0 4 5 4 0 3 2 2 4 0 1 3 3 0 0-1 4 1 0-2 4 0 1-2 3-1-1 3 0 3 2 0 1 0-1 2 2 1 2-3 12-1 1 5 4 0 0 2 3 1 0 2 4 1 2-2 4-1 0 2 2-3 2 0 1-5 4 1 0-2-2 0-1-2 1-3 1-1 3 1 4 6 7 0 3 5 0 4-1-1-2 1-4-1 4 4 2 5-2 2 0 2-2-2 0 3-1 0-2-1-2 2-1-1 1 3-2 0 1 2-5-2 2 2-9 3-1 3 1 3-4-2-6 1 3 1-2 1 6 2-2 2-14-2-1 0 1 2-12 2 1-2-2-1 0-3-2 2-4 1-3-4 0-3 1-1-2-7-4 1-2 1-1-1-3 1 0-2-2 1-3 2-1-3 0 3 2 3-1 2-4 1 0 8-1 3 3 1 0 2-2 0 0 3-2 1 0 3 2-1 0 2 4-1 1 3 6 4 1 6 5-1 0-1 4 3 5-5 0 0 2-3 8-3 2 2 1-1-1 0 2-3-2-1 1-1-3-2 3-2-2-2 4 0 0-1 1 3 3-1 2 2 0-2 3 4 2 0-2 4 2 1 3-2 2 5 1-1 3 1-1 3 5 0-1 1 2 2-1 0-1 1 2 2 1-1 2 3 2 0 0 6-5 2-1 3-1 1 1 2-5 1 1 3 1 1-2 1 0 1-2 1 3 1 0 1 2 1 0 2-4-2-3 2-1 1-1-1-6 2-3-2-2 2 2 2-2 2-5-5-1 1-1 0 1 1-1-1-2-1-1 1 1-3-1 0-1-2-2 0-1-1-3 0-4-1-4 2-2-1 0 1-5 4-2-1 1-1-1 0 1-1-2-1 0 1-2-2-2 1 0 2-1-2-5 0-1-2-2 0-1-2-4 2-1-1-4 1 z" class=""></path>
<path d="M 330 787 l 1-1 11-2 1-4 4 0 1-5-4-3 0-3 3-4-2 0-1-3-4-1 0 4-4 4-4 1-2-2-3 2-7-1-4 0 0 2-2 1-1-4-2 1-3-2-1 1 0 2-2 0-1-3 1-1 1-3-2-1 1-2-7 1-3-2-5-5 1-4-2-1-5 2-1-2-2 0 0-2-6-1-5-3-3 1-6-5 3-2 2-4 1 0 1 2 4-1 0 3 3 0 2-2-1-4 2-2-1-4 3-4 3-7 7-1 5 1 1-1-2-4 1-3 0-3 3-2-4-2 0-2 3 0 1-4 1-1 2 2 1-1-1-1 1-1-3-3-2 0 2-2 2-1 6 1 1-1-1-2-3-3 3-1-2-3 6-2 0-2 1 0 0-2-4-2 2-4 3 1 1 1 2 0 1-4-1-5 3-2 1 1 3 0 1 1 1-2-3-1 5-1 0-1-2-2 2-5-2-3 7-3-2-2 1-3 0-3-3-2 0-2 5-2 1 0 0-2 1-2 1 3 5 2 1-1 2 1 1-2 3 0 1-2 3 1 2-2 1 1 2-1 1 1 1 3-2 5-2 0 1 3 6 2 1 1 3-2 2 1 10-3 4-2 0-4 3 2 2-2 4-1 0 1 2 2 8 0 5 4 6-1 1 1 4 1 0 1 3 1 1-1 2 4 1 1 3-3 0-5 3 0 1 2 2 7 3 0 3 3 3 1 3 7-4 2 1 2-1 3-4 1-1 2 2 4 2 0 1 2-4 10-3 0-3 3 0 4-6 1 2 1 0 3 1 0 2 3 3 1-1 2-2-2-1 4-3 0-1 2-3 2 3 2-2 1 0 1 2 1-1 1 3 1-2 3 1 0-1 3 1-1 7 3 2 1-1 5 1 1 1 0-1 3-3 0-2 1-8-2-4 1-1 3 2 5 2 0 0 3 2 2-1 2-3-1 0-2-1-1-3 1-3-1 1 8-3 1 0 1 4 5-3 1 2 2-2-1 0 2-2 1 4 3 1 2 0 0 1 1-2 1 2 4-2 2 4 1-1 3-7-1 1 1-5 1-1 2-4 2-2-1-1 2 0 2 1 1-7 1 0 1-2-1-2 1-1-1-2 3-1-2-3 2-2-1 1 1-1 1 1 1-2 3 2 1-1 2 2 1-4 7-3 2-1 3 1 1 2-1 2 0 0 5-4-1-1-1-2 2-3 0-4 5-3-1-2 1-4-4 1-1-1-1-5-2-1-4-1-2-1-3-2-2 0-1-3-4-2 0 0 3-3-2-1-3-2-1 z"></path>
<path d="M 862 874 l-1 4-4 3 1 3 6 3 6 21 0 7 0 11-2 1-1 3 4 1-2 1-2 6 1 1 2-3 2 0-2 4 4 1 2-1 0 3 3 1-1 1 3 2 3 0 0 2 3 1-2 5 1 2-1 2 1 0 0 1 2 2 0 2-3 1-2-1-1-3-3 0 0-1-4-3-1 0-1 2-4-2-4 3-3-2-3-5-2 0-1-2-2 0-2 2-2-1-4 1-5-2-4 0-3-3-2-4-4 0-2 2-7-2-3 0 1-3-1-3-4 2-5-2 0-2-10-2-2-1 1-5-1-1 0-3-5-5-2-5-4 0-1-1-2 0-3-3-2 1-2-4-4 2-1 2 0 2-1 0-2-4-4-3 0-2-7 0-3-5-5 2-2-1-1 1-3 0-1 3-2-2-2 3-6-1-3-3 0-3 2-2-3-3 4-1-1-1-2-2-2-4-2-1 2-4-6-4 4-6-3-4 1-1-1-1 1-1 0-2 0-1 0 0-3-1 1-3-2-1 0-4-3-1-3 1-1-4 0-3 2 0 1-2 4 2 3-3-5-5-1-2 2 0 0 2 4 1 0-5 2-1 2 2 1 2 1-1-1 1 1 3 4 0 0-2 4 0 7 2 2 6 6-2 1 2-1-2 2-2-2-2 4-3 9 8 3-2 4 3 2-2 8 2 2-2 2-3 1-2 6 2-1-2 1-3 3 2 5-2 3 5 4 4 1 0 4-3 2 1 1 0-1 2 0 2 2-1 5 4 2-1 2 0 1-3-5-5 3-2-2-2 0-7-5-1-2-4 0-1-1-1 0-3 7 0-1-3 2 1-1-2 1-3-1 0 0-2 0-1 4-3 1-2-2-5 1 3 0-3 3 0 0-3 0-4 4 1-1-2 2-2 2 1 1-3 2 0 1-1 4 0-1-1 2-1-2-1 0-2 3-3-2-2 0-2 2 0 1-1-1-2 2-2 1 2 2 0-3-5 1-4 3 1 2-6 7 2 5-2 10 1 4-1 14 1 15-18 4 1 4 3 0 1 10-7 0-2 3 1-2 2 2 1 0 3 2 0 1 2 3 1-3 8 1-2 4 1 2 1 3-1 2 1-2 1 1 2 0 2 2 0 2 2-7 6-4 5-5 4-7 9-3 2 0 2-4 5-2 1 0 3-10 13-1 2-10 17-3 1-1 4 1 1-3 2-4 4 0 3-2 2-3 5-2 3-2 0-2 3 0 3 z"></path>
<path d="M 790 834 l-1 3 1 2-6-2-1 2-2 4-4 1-6-2-2 2-4-3-3 2-9-8-4 3 2 2-2 2-5 2-1 0-2-6-7-2-4 0 0 2-4 0-1-3 1-1-1 1-1-2-2-2-2 1 1 2-1 3-4-1 0-2-2 0 1 2-5 0-3-1 0-5 6-2 0-5-3-1-8 1-3-8 0-4 3-2 1-2-5-4 2-2 2-2-2-2 3-1-2-3 2-1-5-2 3-2-3 0 2-5 0-5-3-5 4 0-4-3 3-4 1-3 4-2-2-7 2-3 2-1 1-2 2 0 0-3 9-5 4 0 4-3 1-2-1-3 1-1 3-1 7-4 5 0 5-8 1-6 5-6 2 0 1-2 3 1 0-2 2-3-1 0 3-2 1-2 1-6 0-3 2-7 2 1-1 2 8 1 2-3 2 1 6-6 11 3 0 4 3 1 2 2-3 8 0 3-3 3 9 1 3 6 4 0 1 1 5 0 7 5 5-2 0 1 3 1-1 0 2-1 0 1 2-1 1 2 1 3-2 1 0 1-1 0 2 0 0 4 1 1 3 0 1 1-3 3-4 0 1 1 1 0 0 0 4-1 2 0 0 1-3 2 1 1-1-1-2 3-1-3-2 0 0 2-4-1 0-1-2 1 1 4-1 1 0 2-3-1-1 5 3-1 0 1 2 1 0 3 3 2 3 0 0 2 2-2 4-1 3 1 4-1 6 0 0 2-9 3 1 2 3 1 0 2-1 0 1 2-2 2-3-1-1 2 0 2 3 5-2 0-1-2-2 2 1 2-1 1-2 0 0 2 2 2-3 3 0 2 2 1-2 1 1 1-4 0 0 1-3 0-1 3-2-1-2 2 1 2-4-1 0 3 0 4-3 0 0 3-1-3 2 5-1 2-4 3 0 1 0 2 1 0-1 3 1 2-2-1 1 3-2 0-1 1-1-1-3 0 0 3 1 1 0 1 3 5 4 0 0 7 2 2-3 2 5 5-1 3-2 0-2 1-5-4-2 1 0-2 1-2-1 0-2-1-4 3-1 0-4-4-3-5-4 2 z"></path>
<path d="M 954 330 l 1 1 1 11 2 3 1 16-4 6-2 0-13 12-2-1-7 2-10 5-7 5-10 14-16 31-2 0-5-2-3 3-2-1 0-3-1-3-4-2-1 1-4-6-4 0-7 2-5-2-3 1-1-2-3 3 0-3-2-1-4 1-1-1-1 1-2-1-1 1-1-2-3 1-4-5 1-6-2 1-2-4 1-6-6-7-1-3-4-2-1-2 4-2 0-3 2-1-2-1-2-7 2-12-1-3-7 0 0 2-4 1 1 3-1 2-1-1-2 0 0-1-1 0 0-1 1-2-1-1-2 1 0-1-3-8-1 0 2-1 0-1 1 1 0 1 3-1 0-3-3 1 2-3-2-3-2 2-5-1 1 5-4-1-5 3-2-3-2 3-4-1-1-2 1-3-1-1-3 2 1-5-2-1 0-1 4-3-2-1 0-1-1-1-2 0 2-2-9-3-4-4 2-2 0-3 4 1 0-1-2 0 2-4-2-1-2 3-3 0-1-2-2-1-3-6-7 2-4-5 1-4-2-2-2-5 2-1-1 0-2-5-2 0-2-3 3 0 1-2-2-1 2-3-1-3 3 2 0-1 2 1 3-1-5-2 0-2-3 1 0-1 1 0-1-2 2-3-3 0 1-1-1-4-2-1-1 0 0-3-2-1 0-4-1-1 2 0-2-1 0-2 5 0 4-2 9 1 8 4 3-2 0-4 3-3 2 0 4-2 3 4 3-5 5-2 8-5 8-9 4-2 3-4 4-2 2-2 1 0 1 2 3 0-1-5 5 0 6-7 0 2 2 1 2-7 1 2 6-4 2-6 0-4 5-6-1-8-8-9-3-9-7-3 0-5 3-2 0-2-2-2-3-5-1 2-3 0-1-3-2 0-2-4 1-1-3-1 2-2-1-1 3 0 1-5 3 0 1-2 0-1 3 0 3-4 5 2 5-4 2 1 2-2 0-4-2 0 3-2-1-4 1-1 2-6 5-1 0 2 12 2-2 3 7 3-2 4 5 3 5-3 2 1-1 2 5 1 3 4 10 1 2 3 3 1 4 7 3 1 3 3 1 6 4 8 0 5-2 5-2 1 1 4 3 2 0 7 1 9 3 1 1 14 3 3 1 8 9 28 16 39 2 4 4 2 1 6 4 3 2 2-4 13 5 7-1 1 2 1 1 7 2 3-3 4 z" class=""></path>
<path d="M 451 228 l 5-10-3 0-1 3-1-1-2 1-2-1 0-2-2 2-3-1-2 3-2 1-3-1-1 1 2 2-3 1-1-2-2-1 1-1-2-1 1-1-1-2-4 0-1 2 0-1-10 1-9-2-1-2 3-1-1-1 0-3-5 1 0-2-2 2 0-3-2 0 0 2 0 0 0 0-2-2 0-2-2 0-2 2 0-2-4-2 1-3 4-4-6-4 2 0-1-4 1-3 3 0 0-1 2 2 1-1-4-5 4-2 0-2 2-2 4 1-1 2 2 0 3-1 1-2 2 1 4-4 3 1-2-5-3 2-2-1 2-2-1 0 1-2-1-1 3-1 1-2 2 0 1-2-2-1 1-1-1-1 1 0-2 0 2-5-3 0 1-4-1-2-4 0-1-2-4-1 1-3-2-2 4-6 5-2 2-3 3 1 4-3 1 0 0 1 2-1 2-3 0-2 2 1 2-1-1-3-2-1 1-2-3-2 1-3-2-1 3-2 0-2-2 0 2-4-2-1 1 0 1-1 2 2 1 0-1 1 2 1 1-3-1-1 2-2 4-1 3 6 4 3 2 0 0-1 4 5 1-1 0 2 1 1 5 0 9 4 5 0 2-3 0 3 0-2 3 2 5 1 20-2 13-4 13-5 11-8 1 1-2 10-20 11-12 4-3 3 0 2 4 3 3 8-1 1-3 1-4 3 1 3-4 5 4 5-3 3 5 2 0 2-2 1 1 3 2 1 0-2 3 0 4 3 5 1-4 2-1 4 1 4 3 1 1 1 7-3 9-1 0 4-2 0 0 4-5 7 1 2-4 4 2 2-2 4 1 0 0 1-2-1-1-2-8-3-4 0-2 2 1 2-2 2 0 5-8 9 1 3-1 0 0 5-1 1-2-1-5 5 0 4-4-2-6 1-3-1-2 2-5-1-1 2 0-2-2-1-12-1 0-1 0 1 z"></path>
<path d="M 271 208 l 7-5 2-4-3 1-1-4-3-1 0-3-1-1 1-3 2 0 0-1 6 1-1-1 3 0 1-4-3-1-9-6 2-1 0-4-3-1 0-3-2 1 0-2-1 0 0 2-1 0 1 2-2 0 1-3-1-2 0 0 0 0 1 0 0 0 0 0-1 0-1-2 2-2 0-3 1-1 0-2-2-1 2-6-3-1 0-5-1 0-1-3-2-1 1-4-2 0-1-2 3-3 9-2 3-2-1-8-3-1 1-5-2-4 3 0 2-2-3-5 2-4-3-7-4-1-2-5 0-2-4-6 6 0 8-3 5 0 6-4 9-8 20-10 37-7 1 1-1-1 22-7 16-1 25 1 9 7 24 15 12 11 1 3-2 3-11-17-4-1-3-3-18-11-3 9 2 1 5 5 0 10 4-1 0 5 3 4 2 5 0 6-2 0 2 5 0 3-4 1-2 2 1 1-1 3-2-1 1-1-1 0-2-2-1 1-1 0 2 1-2 4 2 0 0 2-3 2 2 1-1 3 3 2-1 2 2 2 1 2-2 1-2-1 0 2-2 2 0 1-2 1 0-1-1 0-4 3-3-1-2 3-5 2-4 6 2 2-1 3 4 1 1 2 4 0 1 2-1 4 3 0-2 5 2 0-1 0 1 1-1 1 2 1-1 2-2 0-1 2-3 1 1 1-1 1 0 0 0 0 0 1 1 0-2 2 2 1 3-2 2 5-3-1-4 4-2-1-1 2-3 1-2 0 1-2-4-1-2 2 0 2-4 2 4 5 0 1-3-2 0 1-3 0-1 3 1 4-2 0 4 3-1-1 2 1 1 0 0 1-5 4 0 4-3 7-5 1-2-2-1 0-1-2-1 1-1-1-2 0-3-2-1 2 1 0 3 4-1 1 0 1-2 0-2 4-3-1-2 2-3-3-1 0 0 2-2 1-1 5-2 2 1 3-1 1 2-1 0 4-4 0-2-2-1 2 2 1-1 2-6-4-3 3-3-1-3-6-3 3-3 0-3 2-1 4 1 4-1 1-2 6 0-1-5 1-1-3-2 0 0-3-1 1-2-2-3 1-6-1-2 1-7-3-3 4-5 0-1-2 1-1 0-2-2-1-3 2-1-7-4-6-1-16 z"></path>
<path d="M 509 850 l 3 1 2-1 3 3 2-2 2 2 1 4-2 1 0 2-3 1 0 2-3 1 5 3 3-1 2 0 2 3-1 3 1 3-1 2-3 0 0 2-3 1-1 3-4 1 0 5-11 1-3 3 1 2-2 5 1 0-1 2-2 1-2 3 1 3-2 0-2 2-2-1-2 1-5-3 0 1-2 0-1 2-1 1-6 0-1-3 3-3-3-4 1-8-3-2-5 1-6-2 2-2 0-2-2-2-1-4 1-1-2-1-2-8 1-4-3-2-4 2-3-2-1-3-4 0 0-1-2 1-2-3 0-4-2-1-4-12 2-3-1-1 3-1-4-2-1-2 2-3-1-1 7 2-2-2 1-2 4 1 2-5 0-2-5 0 2-2 1-6 3 1 1-2 1 0 2 1-1 2 5 0 0-3-2-2 0-4 5-2 0 2 6-1 0-2-1 0 0-1 2-4 2 2 1-1 3 2 11 0 1 4-1 2 2 1 0 2 0-1 1 0-1 3 10-4-1 3-2 2 0 1 0 0-1 0 1 3 0 0-1 2 1 0 1 1-4 1-1 2 2-1 1 2 3 0 5-2 0 3 1 8-4 3 1 2 3-1 0-1 1-1 2 1 5 1 2 2 0 5 z"></path>
<path d="M 539 708 l 1 4-2 1 1 1-2 1-4-1-2 2-2-1 0-1 0 1-2 2-2 0 1 2-2 1-3 0-2-2-1 2-3 0-1 1 2 0-2 3 2 2-1 1 1 3-1 1-2 0 0 1-2 1-3-2 0-1-5-2-3 3-6-2-10 4 1-2-4 4-1-4-2-2 2-1-2-1 1-3-3 0 0-2-4 0 0-1-1 0-1 1-7-2-3-5-3 6 4 1 1 1-3 4-1-3-5-2-1-2-4-1-2 1-3 0-17-6 0-3-1 0 2-3-3-1 1-1-2-1 0-1 2-1-3-2 3-2 1-2 3 0 1-4 2 2 1-2-3-1-2-3-1 0 0-3-2 0 6-2 0-4 3-3 3 0 1-3 3-7-1-2-2 0-2-4 1-2 4-1 1-3-1-2 4-2-3-7 4-1 10 0-1-1 2 0 0 0 4-1 4 3 3-7 9 6 1 2 3 2-1 2 1 1 2-2 2 0 3 6 1 0 0-2 2 0-1 1 2 0 0 1 4 2 4-1 1-2 1 0-2-3 1-3 1 1 3-2 3 0 1 1-1 2 1 2 3 2 0 2 4-2 1 3 0 1 3 2 0 4 3 2 1 7 1 1 2-1 1 0 1-2 5-2 1 0 3 5 5 0 0 4 2 1 5 0 1-1 1-2 7 4 2 3-2 0 1 2-2 1-2-3-1 2 1-1-1 3 2 2-3 1 0 1-3 3 0-3-1 0-1 2-1-1 2 7-1 1 0 0 3 5 3 1 1 3-4 0-1 4-2-1-2-3 2-3-1-2-1-1-3 7 z"></path>
<path d="M 461 761 l-3 2 0 2 2 1-3 2 0 2-2 0-1 5 2 3-2 2 1 2-3 1-3-2-3 1 0 3-1 0-1 1-1 0 0 0 0 0 0 0 0 1-4-2 0-1-2 3-1-1-3 1-4-3-4 2-2-1 1-1-3-2 1-1-2 0 1-3-1 0-1-4-3 0 1-3-4-1 2-2-2-4 2-1 0-1-1 0-1-2-4-3 2-1 0-2 2 1-2-2 3-1-4-5 0-1 3-1-1-8 3 1 3-1 1 1 0 2 3 1 1-2-2-2 0-3-1 0-1 0 0 0 0 0-2-5 1-2 4-2 8 2 2-1 3 0 1-3-1 0-1-1 1-5 8 3 3 0 2-1 5 1 0 2 5 2 1 3 3-4-5-2 0-1 3-5 3 5 7 2 1-1 1 0 0 1 4 0 0 2 3 0-1 3 2 1-2 1 0 0 2 2 1 4 8-5 0 3-1 1 0 3-2 0 0 3-3 1-1 2 0-1-4-1-1 4-2 0-2 3-3-1-3 0 0 8 5 2-2 6 z"></path>
<path d="M 442 814 l-1-1-1 6-2 2 5 0-1 6-1 1-4-1-1 2 1 2-5-2-1-2-1 1-2-2 1 3-2 2-4-1-3-3-3-1 0-2-7 0-4-2 2 3-1 1-1-1-1 3-4-4-1-4-6-1-1-5-3 0-2 3-2-3-2 1-2-3 1-2-2-1 0-2-2-1-1-2-2-1 4-7-2-1 1-2-2-1 2-3-1-1 1-1-1-1 2 1 3-2 1 2 2-3 1 1 2-1 2 1 0-1 7-1-1-1 0-2 1-2 2 1 4-2 1-2 5-1-1-1 9 1 2 4 1 0-1 3 2 0-1 1 3 2-1 1 2 1 4-2 4 3 3-1 1 1 2-3 0 1 4 2 0-1 1 0 1-1 1 0-1-2 2 0 1-2 1 0 3 2 3-2-1-1 2-2-2-2 2-2 2 3 1 0 0 2 1-1 2 3 5-2 3 9-1 1 0 3-1 1 1 2 2 0-2 6-4-2-1 1-1-2-1 0-2 4 0 1 1 0 0 2-6 1 0-2-5 2 0 4 2 2 0 3-5 0 1-2-2-1-1 0-1 2 z"></path>
<path d="M 479 807 l 1-2-1-4-10 0 2-6-2 0-1-2 1-4 1-1-2-3 1-1-2-5-4 1 1 0-2 1-2-3-1 1 0 0 0-2-1 0-1-2-3 0 1-5 2 0 0-2 3-1-2-2 0-2 2-1 0-1 4 0 4 2 2 0 0-1 1 0 1-5-5-2 0-8 1 0 5 1 1 3-1 2-2 0 1 1 10 5-2 7 3 1 0 2 3 0 3 3 4 8 7 7 2 5-4 10 1 1 1 1-1 0-1 1 0-1-4 1-1 0-1 1-1 0 0 2-10 4 1-3-1 1 0-2 z"></path>
<path d="M 509 773 l 8 4 4 1-2 2 0 2-1-1-4 2-4 1 2 2 2-1 0 2-2 0 0 3-2 1-6 0 0 4-2 1 1-3-2-4-9-9-2-7-4-4-3 0 0-2-3-1 2-7-11-5 1-1 1-1-1-4 2-1 1-2 2 0 1-4 4 1 0 1 1-2 2 0 1-2 0-2 2 0 0-3 1-1 0-3 2-1 3 0 6 2 3-3 4 1 0 2 1-1 0 1 3 2 2-1 0-1 2 0 1-1-1-3 1-1-2-2 2-3-2 0 1-1 3 0 1-2 4 3 3-2-1-2 3-1 1-2 0 1 2 1 2-2 4 1 2-1-1-1 2-1-1-4 5 1 3-7 1 1 1 2-1 2 0 3 3 2 1-4 3 0 1-2-6-4-1-5 4 2 2-1 3 1 1-2-1 3 4 0 1 3 2-1 0 2-1 1 0 2-3-1 1 2-1 1 5 1 1 1 3 0-2 4-4-1-1 0-1 5-3 3-2 0 0 3 5 0 1 2 5 0 1 4 3 2 1 0 3 4-8 1-1 1 1 2-5 1 0 2-3 0-2-1-9 0-1-1-1 2-3 2 1 1-2 1 0 1-3-1-2 1-1-1-3 1 1-1-3 0 0-1-3 0-3 3 0 5-3-1 0 1 3 3-1 4-3 1-3-2-2 3 1 2-1 0-1 2-1 2-2 1 1 0-1 2-1-2 z"></path>
<path d="M 609 761 l 2-2-2-2 2 0 3-2-3-1 1-3-2 0-2-5-2-2 0-6-1 0-1-2-2 1-2-3-5 2-3-1-2 1-3-1 1-1-2-2-2-1 0 1-3 1 0-1-4-2-2 0-1 2-2 1-3-2-1-4-5 0-1-2-5 0 0-3 1 1 1-1 3-3 1-5 5 1 2-4-3 0-2-1-4-1 1-1-1-2 3 1 0-2 1-1 0-2-2 1-1-3-4 0 1-3-1 2-3-1-2 1-4-2 0-1-1-3 0-2 1 1 1-2 1 3 3-3 0-1 3-1-2-2 1-2 0 0 0-1-1 1 1-2 1 0 0 1 1 2 0 0 0 0 1 0 0 0 1-1-1-2 2 0-3-4-6-3 4-4 0-3 5-2 1-2-2-6 3-6 2-7 1 0 1 3 4 1 0 2 1 0 1 1 0 2 6 5 2-2 0-4 1-2 0-7 1-1-1 0 0-1-7-1 1-4-1-6 2 0-1-1 4-4-4-3 2-2 4-1 0 2 1-1 9 1 1-1 2 0 0-2 2 1 0 1 1-1 1-1 0 1 1 0 1-1 1 0 2-2-2 0 1-3-2-1 0-2 2 0 1 2 4 0 2-2 4 3 1-1 0-3 1-2-3-6 5-1 2-4 3 2 5 0 1 2-1 1-2 1 1 1 1 1-1 1 4 1 0 1-1 2 1 1 1 4 2 0 1-2 3-1 3 4 6 2 1 4-2 2 0 3 2 0 2-3 5 2 0 1 1 1 1-1 2 1 1-2-1-1 1-2 3 0 3 3 4-7 8 6 0 2 3-1 0-1 3 0 2-4-1-5 4 2 0 1 1 1-3 6 4 2 2 2 2 0-1 0 0 7 21-1 0 3 3 1-1 3 6 2 3 2 3-1-1-1 2-1-2 0 0-1 3 0-2-1 2-1-1-1 3-1 1 2 4-2 1 1 2-2 1 1 1-1-2-1 3-1 1 1 2-1 3 5 2 1 1-1 2 1 3-1-1-1 2-2-1-1 2-1 2 3 1 2-3 2 3 7-1 9 4 11 0 4 2 3 0 5-2 5 0 3-2 8-3 2 1 0-2 3 0 2-3-1-1 2-2 0-5 6-1 5-5 9-5 0-7 4-4 1 0 1 1 4-5 4-4 0-9 5 0 3-2 0-4 6-3 1 0 3-2 0-2-4-2 0-2 3-2 0-3 4-11 0-2 3-4-1-2 2-2 0-2 3-3-2-2 0-1 3-5 3 0 3-2 1 0 2-2 0-1 2-4-1 0 1 0-1-1 1 0 0-4 0-1 3-2-3-5 3-5-2 1 1-2-1 0 1-2-1-2 1-1-3-2 1-1-2 0-2 2-2-2 0-3-3-2-1 3-2 0-1-2 0 0-2 1 0-2-1 0-2 z"></path>
<path d="M 542 290 l 2-3 2 0-1-1 1-1-2-1 1-2-3 0 0-5-5-2-5 3-6 0 1-4-1-3-4 2 0-2-1 0-1 2-3 0 2-2-3-1-1-2-1 0-1 1 0-4-2 0-3 1-3-1-1 4-3-2-3-3 2-2-1-2 0-2-2 0 1-2-1-4-3-3 3-3-1-3-2 0 1-4-3-1-4-1 0-4 5-5 2 1 1-1 0-5 1 0-1-3 8-9 0-5 2-2-1-1 1-3 5 0 8 3 1 2 2 1-1-1 2-4-2-2 4-4 0-2 4-7 0-4 2 0 0-4-9 1-7 3-1-1-3-1-1-4 2-4 3-2-5-1-4-3-3 0-1 2-2-4 2-1 0-2-5-2 3-3-4-5 4-5-1-3 4-3 3-1 1-1-3-8-4-3 0-2 3-3 12-4 20-11 2-10 64 7 24 4 4 1 2-1 9 1 45 4-1 1 1 2-2 1 0 1-3 1 0 4 2 0-1 2-4 1-3-5-1 5-3 0-3 5 3 2 0 3-1 0 0 3-1 0-1 8 3 0 6 6-4 1 2 3-2 2 1 2-2 0 0 1 0 0-1-3 1 0-1-1-1 0-4 5-5-4-2 4-4-2-1 1-1-1-1 3-2 0-4-2-1-6-2 0 0 3-1-1-2 2 0 4-5 3-2-1-1 3-8-2-2-2-1 2-2 0 0-3-3 0 0-6-3 0 0-2-2-1 1 0-6-3-1 4-1 0 0 2 1 0 2 3-5 1-1 2-3 3 1 1-2 1 1 2-5 1-1-3-5 2 5 5-2 0-4-1-1 2-1 0 1 1-2 2-1 5 3 3 4 0-1 3-4 2 0 3 1 1 0 4 5 4-1 1-2-2 0 3-4 0 0 2 1 0 0 2 3-1 2 2-3 0-1 3-1-1-1 2 0 1 3 0-1 6 2 1-1 4-2 0-1 2 6 10 0 2 3 2 1 3 3-2-1 1 0 2-1 1 3 0 2 2-2 2-6 4 1 2-1 0 1 2 3 2-1 0 1 1-1-1 0 1-1 0 0 1 0 1-1 1-2-1 2 1 0 6-1 4 2 2 0 1 2 1 3 3-1 4 0 4 3 0 3 2 3-2-1 2 1 0 0 1 5-3 1 2 1 2-3 5-5 3 4 1-1 1-9 2-9-3-1 2-2 1-3-5-3 1 0 1-4 0-1 2-1-1-4 1-7-5 1-5-2-1-6 7 1 1 0 4-6-2-2 0-2-8 2-1-1-3-6-1 0-3 z"></path>
<path d="M 590 277 l 1-4 0-6 2-4 1 1-1-1 1 0-3-2-1-2 1 0-1-2 3-3 1 0 1 0 0-1 3-2-2-2-3 0 1-1 0-2 1-1-3 2-1-3-3-2 0-2-6-10 1-2 2 0 1-4-2-1 1-6-3 0 0-1 1-2 1 1 1-3 3 0-2-2-3 1 0-2-1 0 0-2 4 0 0-3 2 2 1-1-5-4 0-4-1-1 0-3 4-2 1-3-4 0-3-2 0-3 1-3 2-2-1-1 0-1 1 1 1-2 4 1 2 0-5-5 5-2 1 3 5-1-1-2 2-1-1-1 3-3 1-2 5-1-2-3-1 0 0-2 1 0 0-3 1-1 6 2-1 1 2 1 0 2 3 0 0 6 3 0 0 3 2 0 1-2 2 2 8 2 1-3 2 1 5-3 0-4 2-2 1 1 0-3 2 0 1 6 4 2 2 0 1-3 1 1 1-1 4 2 2-4 5 4 4-5 1 0 1 1-1 0 1 3 0 0 0-1 2 1-1-3 2-2-2-3 4-1-6-6-3 0 1-8 1 0 0-3 1 0 0-3-3-2 3-5 3 0 1-5 3 5 4-1 1-2-2 0 0-4 3-1 0-1 2-1-1-2 1-1 5 1 3-1 7 0 5 1 1 1 8-2 59-4 6-1 9 0 45-6 1 2-3 4 2 0 0 4-1 1-1 1-2-1-5 4-5-2-3 4-3 0 0 1-1 1-3 1-1 5-1-1-3 3 1 2 2 0-1 1 2 4 2 0 1 3 3 0 1-2 3 5 2 2 0 2-3 2 0 5 7 3 3 9 2 4 3 0 3 4 0 4 1 2 0 3-5 6 0 4-2 7-6 3-1-2-2 7-2-1 0-2-6 7-5 0 1 5-3 0-1-2-1 0-2 2-4 2-3 4-4 2-8 9-8 5-5 2-2 5-1 0-1-3-2-1-4 2-3 1-3 7-4 0-6-3-9-1-4 2-8 0-13 4 2 2-2 0 2 1-1 1 0 1-3 1-2-1-3 3-5-2 0 3-2-3-3 1-7 5-5 6-6 4-2-3-4-2-3 2-3-1-2 3 2 3-1 1-1-1-1 2-3-2 0 2-2 1 0 2-2-2-6-2-2 0 0 2-1 0-2-1 0 2-2 0 0 2-3 6-5 0 0 2-2 1-1-1-2 2-2-1-1 2-2-2-3 0-1-2-5 5-2-3-5 3 0-1-1 0 1-2-3 2-3-2-3 0 0-4 1-4 z"></path>
<path d="M 239 542 l 0-2 3-1 0-2 1 1 1-1-4-4-1-1 2-2-7-1-1-3-3 0 0-3-15-1 1-8-2 0 1-2-5-4 2-1-4-1-3-3-1 1-2-1-4 5-2 0 0-3-2 1-1-2-7-1 1-1 3-2-1 0 2-2-1-1 7-1 8 3 1-3 3-2-1-2 2-2 2 1 2-2 2-1 0 2-2-1 0 1 6 2 0-3 1 0 1-2 2 0-2-4 2-2-2-2 2 0-1-2 1-2 6-2 0-3 1 0 4 0 1-7 5-3-1-2 3-1 2-2 4 3 3-4 4 2-1 3 3 2 0 1-1 4 3 4 4 0-1 3 3 0 0 1-1 0 0 5 4-1 1 1-4 7 2 1 4 0 4 3 0 1 1 2 3 1 1 1-1 0 2 1-2 2 2 2 6 2 2-1-1-3 4-3 1 1 3-3 12 0 0-4 2-2 7 1 2-1 3-2 1-1 2-1-2-4 5-3-1-4 2-2 0-2 5 0 0 2 0-2 7 0 2 1-1 6 3 5 0 1 0 0 1 0 0-1 5-2 2 1 5-2 0 2 3 1 1-2 7-1 1 2 2 0 1 5-4 7 4 1 7 3 6 1 1-2 4 0 1-3 2 1 1-3 1 1 2-2 0-2 3-1 2 2-3 4 5 4 2 6-2 0 3 1 0 2 2 3 6-1 1 7 5 0 1 2-2 3 1 3-3-1 0 5-2 1 1-2-1 2-1 0 2 4-2 3-1-1 2 3 0 1-2 1 1 3-2 0 0 1-4 4 0 2 3 1-2 3-1 0-1 1 2 2-2 2 3 1-1 5 1 3-2 2 2 3 1 6-4 1 1 3-3 6-12-6 1 1-3 1 2 3 0 3-2 3-4-1-2 5-3 0-2-4 2 4-3 2 2 1 0 2 2 3 0 3 1 1-2 0 1 1-1 2 1 1 2-2 1 1 1 0 0-1 2 1-1 4 2 3-2 3 0 2 1 0-1 3-4 1-2 2-3-2 0 4-4 2-15 4-1-1-6-2-1-2 2-1 2-7-2-2-2 1-3-1-3-7 0-5-1-1 3-4-1-1 2 0-2-1 1-1-2-2 0-2-4-4 2-3 1 0 0-1 2-1 0-2-4-2 1 3-2 1-3-3-2 1-1-2-3 0-1 2-3 1-3-3 1-2-3-5 1-1-2-3 1-1-1-2 1-1 3 0 2-2 0-6-1-1 0-2-4-1 0-3-2-1-6-3-3 0-8-3-7 1-1 0-1 2-2 0-1 10-2-2-7 2-1-2-5 2 1 2-1 1-2-2-2 0-4 1-1 1-2-1-2 0-4-5-6 1-4-3 1-2-3-2 0-2 2-2-11-1 1-2-4 0 z"></path>
<path d="M 442 424 l 1 0 2-1-1 5 4 0 1 4 2 2 1 5 5-3 2 1 5-3 1 0 2-1 0-2 2 0-1-3 3 3 2 1 1 2-2 0 1 1 3 0 0 3 4 1 0 2-1 0 1 4-1 4 6 0 1 4-2 1-1 2 1 3-1 1-2-2-3 0-3 0-2 2-1-1-1 2-3 0-1 10 2 2 1-1 1 1-1 3-1 0-1 4-4-1-2-1-1 1-2 3-2-1-2 2-4-3-3 2 0 5 1 5-1 2 1 1 0 2-2 0 2 3 1-2 0 5 2 1-4 8 0 1-3 1 1 2-2 5-3-1-1-1-3 0-2-2-4 0-4 2 0-3-4 0 1-1-1-2-5 0-1-7-6 1-2-3 0-2-3-1 2 0-2-6-5-4 3-4-2-2-3 1 0 2-2 2-1-1-1 3-2-1-1 3-5 1 0 1-6-1-7-3-4-1 4-7-1-5-2 0-1-2-7 1-1 2-3-1 0-2-5 2-2-1-5 2-1 1-3-6 1-6-2-1-7 0 0 2 0-2-5 0 0 2-2 1 1 5-5 3 2 4-2 1-1 1-3 2-2 1-7-1-2 2-1-1 1 1 0 4-12 0-3 3-1-1-4 3 1 3-2 1-2 0-6-3 0-1 2-2-2-1 1-1-3 0-3-4-4-3-5-1 4-7-1-1-4 1 0-5 1 0 0-1-3 0 1-3-4 0-3-4 1-4 0-1 5-2 2 1 2-3 5 3 0 3 4-3 1 0 5 5 4-4 6-3 1-1-2-2 4-2-3-3-2 2-1-1 3-2 1 1 2-3 1 2 2-2-1-1 0-2 2 1 3-5 4-1 0-2 3 0 1-1 1 1 0-3 4 1-1-4 1-1-2-4 2-2 2-1 1-3-2-2-1-3-2 0-1-2 2-2-4-2 4-4-2-1 0-1-3-1-2 2-3-2-3 1-3-2 0-2-3 1-1-3 6-1 6-8 1 1 4-3 2 1 0-7 3 1 2 2 1-1-1-2 5 0-1-5 3-3 3 2-1 2 2 0-1 1-2 1 0 3 1 0 0-1 2 1 0 1 2 1 2-3 3 0 1-3 4 0 2 3-1 2 0 5 5 0-1 7 1 0 1-2 1 2 4-5 0-1-2 1-1-1 4-3 1 4-1-1 0 1 2 0 1-3 4 2-1 1 2 1 4-1 2 4 1 0-1 3 2-1-2 2 1 2 2 1-1-2 1-1 1 3 3-1-1 2 1 0 1-2 0 5 1 0 1-2 5 2 1-1 3 0 1 2-2 3 2 1 2 0 0 2 3-1 4 1 0 3 4-1 2 1 8-6 0-3 1 0 3 1-1 5 2 5 3 0 0-1 4 0 0-2 1 0 2-2 3 1 1 1 0 2 2-1 0 4 3 0 1-1 1 2 4 1 z" class=""></path>
<path d="M 162 468 l 4-3 1-4 0-1-3-2 1-2-1-5 1-2-1-5 4-4 0-4 1 0-1-7 1 0 0-3 1-3-5-2-2-4-2-2 0-1 0 0 0 0 1 0 1-2 1 3 2 1 0-1 2 1 0-2 2-1-1-3 1 0-2-5 1-2-2 0-2-3 2-2-3-4 1-3-2-1-3-4 2-1 0-2-2 0 1-5 3 0-2-7 4 1 7-1 4-3 1-4-3-4 2-1-1-2-2-1-2-1 2-4 1-1 0 2 3-2 0-2 3 0-2-2 2-1-1-4 2-1 0-4-2-4 0-2-1 0 1-1 0-10 1-1 6 2 4 3 5 1 6-3 9-3 4 2 0-2 1 0 0-1 4-3-2-6 2 0 1-2 3-1-1 0 1-5 2 3 5-3 3 1 2-6 2 0-1-3 2 0 1-2 3 0 1 3 2 1-1-1 2 0-1-2 1-1-1 0 2-4-1 0 1-2 2 1-1-3 1 1 1-2 4-1-3-2 0-2-4-1-1-4-4 0-1-1-1 0-3-4-1 2-2-3-2-1-3-10 1 0 1-1-3 0 2-5 3 3 10-2 5 0 5-5 2 1 2-3-2 0 1-2 1-4 1 1 0-2 0-4 2-3 0-1 5-1 1-2 3 3 1-4 3 0 0 5 4 6 1 7 3-2 2 1 0 2-1 1 1 2 5 0 3-4 7 3 2-1 6 1 3-1 2 2 1-1 0 3 2 0 1 3 5-1 0 2-1 3-8 7-1 4-4 4 1 2 7 2 1 2 1 1 0 2 4 4 0 1 1 1 0-1 1 1 2 3-2 2 1 1-2 1 0 2-9 1 3 4-1 2 1 3-2 1 6 3-1 1-3 0 0 7-3 2 1 5 0 4-2 0-2 4 2 1 0 3 5 0 3-2 6 6 2 0 1 3 2 0-1 2 1 5 1 0 0 5-1 0 0 6-1 2 0 2-1 1-4 0 0-2-2 2-1 0-2 0 0 2 2 1-2 2 5 3-3 3 1 5-5 0 1 2-1 1-2-2-3-1 0 7-2-1-4 3-1-1-6 8-2 1-3-1-1 2-2 1-1-6 2-4-4 1-3-4-2 2 2-5-1-1-3-2 0 0 0 0 0 1-3 1-2 3-4-1-1 3-2 0-1 2 3 1 2 4-2-1-5 3-1 1-2-1-3 2-3 0 0 3-2 0 0-4-2-1-2 9-1 0-2-2-5 1 1 1-3 7-2 1 0 4-2-1-3 2 2 0 2 4-2 0 1 2-2 3-1 0-1-2-2 0-1-1-1 2-2 1-1 1-2-1-1 3 6 4-1 3-3 2 3 1-1 4 2 1 0-1 6-1 3 2 0 3-3 3 2 3 0 3-1 2 1 2-3 4 0 5-4 0-1 0 0 3-6 2-1 2 1 2-2 0 2 2-2 2 2 4-2 0-2 5-6-2 0-1 2 1 0-2-2 1-2 2-2-1-2 2 1 2-3 2-1 3-8-3-7 1-1-2 2-1-1-6-2-1-5 3-5-1-1-3-2 0-1-3 0-2 3 0 0-2 1-2-3-4-2-1-2 0-1 3-4-3-2 0 z" class=""></path>
<path d="M 224 430 l 1-3 2 1 1-1 2-1 1-2 1 1 2 0 1 2 1 0 2-3-1-2 2 0-2-4-2 0 3-2 2 1 0-4 2-1 3-7-1-1 5-1 2 2 1 0 2-9 2 1 0 4 2 0 0-3 3 0 3-2 2 1 1-1 5-3 2 1-2-3-3-2 1-2 2 0 1-3 4 1 2-3 3-1 0-1 4 3-2 5 2-2 3 4 4-1-2 4 1 6 3-2 0 3 3-1 0 2 3 2 3-1 3 2 2-2 3 1 0 1 2 1-4 4 4 2-2 2 1 2 2 0 1 3 2 2-1 3-2 1-2 2 2 4-1 1 1 4-4-1 0 3-1-1-1 1-3 0 0 2-4 1-3 5-2-1 0 2 1 1-2 2-1-2-2 3-1-1-3 2 1 1 2-2 3 3-4 2 2 2-1 2-6 2-4 4-1-2-3-1-2-2-4 3 0-2-4-4-1 1-2 2-2-1-6 2-2-2 1-3-4-2-3 4-4-3-2 2-3 1 1 2-3 1 0-7-2-3 3-3 0-3-3-2-6 2-2-1 1-4-3-1 3-2 1-3 z"></path>
<path d="M 107 314 l 2-4-1-2 1-1 5 0 0-3 4-4 1 1 2-2-1-3 4 0 0-2-2-2 1-1-3-2-4 1-2-1-1-2 3-5 0-1 4 0 7 1 6 3 4-1 0-2-2 1 0-2 2-2-2-1 1-3-2-2 1 1 1-2 3 0 1-1 0-1 7-2 0-4 2-1-1-4 1-4-1 0 5-2 1-2 7-6-2-3 2-1 1 1-1-1 0-2-2 0 2-7 1 0 3-4 1 1 1 0-1-3 1-2 0-2 2-1 0-3-11-6 0-3-4-6-3-2-3-5-1-5 1-2-2-4 0-2-6-1 1-3 0 0 0 1-3-1 1-1-2-2-1-2 3 0 1-3-3-2-2-1 1-1 0-6 1-1-1-2 4-4-2-4-2-2-6 1 1-1-1-1 3-1-3-4 1-1 3-5 10-1 6-3 4 0 12-3 11-4 16-2 9-3 9-5 8-7 7-8 3-6 2 0 4-7 8-8 9-3 8-1 4 6 0 2 2 5 4 1 3 7-2 4 3 5-2 2-3 0 2 4-1 5 3 1 1 8-3 2-9 2-3 3 1 2 2 0-1 4 2 1 1 3 1 0 0 5 3 1-2 6 2 1 0 2-1 1 0 3-2 2 1 2 1 0-1 0 1 2-1 3 2 0-1-2 1 0 0-2 1 0 0 2 2-1 0 3 3 1 0 3-2 2 9 6 3 1-1 4-3 0 1 1-6-1 0 1-2 0-1 3 1 1 0 3 3 1 0 3 4 0-2 4-7 5 2 4 1 11-3 0-1 4-3-3-1 2-5 1 0 1-2 3 0 4 0 2-1-1-1 4-1 2 2 0-2 3-2-1-4 5-16 2-3-3-2 5 3 0-1 1-1 0 3 10 2 1 2 3 1-2 3 4 1 0 1 1 4 0 1 4 4 1 1 3 2 0-4 2-1 2-1-1 1 3-2-1-1 2 1 0-2 4 1 0-1 1 1 2-1 0-1 1-2-2 0-2-3 0-1 2-2 0 1 3-2 0-2 6-3-1-5 3-2-3-1 5-5 3 2 6-4 3 0 1-1 0 0 2-4-2-9 3-6 3-5-1-4-3-6-2 1-2 1 0 0-1 1-3-1-3 0-2 0 0-7-2-6 1 1 4-5 1 1 3-4 1 3 2-2 0-2 3-1 0 2 2-2 3-4 1-4-2-5 3-1-1-3 0-1-1-1 0-2-4-1 1-7 3-2-1-6 3 1 1-4 4-7-3 1-2 0-2 1 0-1 0-1-5-3-1 1 0 0-1-1 1 0-3 z" class=""></path>
<path d="M 108 308 l 1 2-2 4 4 2 0 3 1-1 0 1-1 0 3 1 1 5 1 0-1 0 0 2-1 4 4 7-4 2 0 1-1-1-21 8-2-2-1-3-4 3-1-4-3-1-2-2 0 0 0-1-2 0-2 4 2 1 1 2-3 2 0-3-3 0 1 2-2 1 0 3 1 0 0 3-2 0 0 2-3 1-3 2 1 4-1 6-4 4-1 4-2 0-1 2-5-1 0-2-3-2-7 5-2-1-7-5-11-15-6-4-6-8-7-1-2-2 0-2 4-7-1-7 0-5 12-5 9-8 3-5 2-9-2-4 2-6 2-1 1-2 4-6 0-2-2 0-2-6 1-2-2-5 1-4-2-5 1-8-2 0 0-6-2-2-2-6 2-12-3-3 0-4-1-1 2-3-2-2 1-9 2-3-6-16 0-7-2-1 2 0 2-2 4 2 1-2 0 2 5 2 5-1 6-2 5-5 16-5 6-3 18-4 36-13 10-1 0 1-4 5 3 4-3 3 6-1 2 2 1 3 0 1-1 1-2 3 1 2-1 1 0 6-1 1 2 1 3 2-1 3-3 0 1 2 2 2-1 1 3 1 0-1 0 0 0 3 5 1 0 2 2 4-1 2 1 5 3 5 3 2 4 6 0 3 11 6 0 3-2 1 0 2-1 2 1 3-2-1-3 4-1 0-2 7 2 0 0 2 1 1-2-1-1 3 2 1-7 6-1 2-5 2 1 0-1 4 1 4-2 1 0 3-4 3-3 0 0 1-4 1-1 2-1-1 2 2-1 3 2 1-2 2 0 2 2-1 0 2-4 1-6-3-11-1-3 6 1 2 2 1 4-1 3 2-1 1 2 2 0 2-4 0 1 3-2 2-1-1-4 4 0 3-5-1 z"></path>
</svg>