<svg class="map" viewBox="0 0 1000 1000" width="1000" height="1000" xmlns="http://www.w3.org/2000/svg" style=""><a xlinkHref="/sejmsenat2019/pl/wyniki/senat/okr/1" data-id="1" kbw:hover="Okręg wyborczy nr 1 [Legnica]"><path d="M 96 661 l 0-6 3-4-2-1 0-3-3 0 0-3-4 1-2 2-2-1 1-6-3 1-1 3 1 1-2 0-3-1 1-3-3 0-1-2-1 2-2 0 0-2-2 0-2 2-1 0-2 3 2 2 2-1 1 3-1 0 0 4-3 3 2 2-1 3 0 4-4 0-6-2 0 1-3-2-2 2-3-1 0-2 8-9 1-5 2 0 0-3 1-1 2-7 2-1 1-3 1-3 0-4 2-1 0-7 1-1 0-3 1-1 0-3 3-5-1-1 1-1 0-6-2-1 0-3-2-2-1-4-1-1 5 0 0-5 6 0 2-5 2 0 4-2 4-3 2 0-1 3 1 0 5 0 2 3 1 0 4 4 2-7-1 0 1-4 4 0-2-3 2-6 2 0 0 2 4-1 4 2 1-2 10 10-1 3 1 1 4-5 2 1 3-7 5 0 4 1 1 1 3 1 0 1-1 1 2 1 4 4-4 1-1 3 0 4 3 3-1 1-1 5-6 5 0 3 1 2-1 0-1 3-2 1 0 12-1 3-2-1-3 2 3 4-1 5 3 3 0 4 1 0 0 6-2 0 0 1-2 0 1 1-1 2-1 0 0 0 0 1-3-1 1 2-2 0 2 4-1 1-2-1-4 1 1 1-1 0-4 0-3 1-4 0-2 2 0 2-2 0 0 2 1 1 0 2-2 1-2-2-2 5-3 0 0 4-5-1-1-3-4-1 z"></path></a><a xlinkHref="/sejmsenat2019/pl/wyniki/senat/okr/2" data-id="2" kbw:hover="Okręg wyborczy nr 2 [Legnica]"><path d="M 152 691 l 0-3-2-2-2 0-2 2-7 0-2-2-6-3-1-1-9-1-1-2-2 0-6-3-1 0-2 4-3 1-1-1 0-4 1-1-1-4 5 1 0-4 3 0 2-5 2 2 2-2-1-4 2 0 0-2 2-2 4 0 5-2 2 1 1 0-1-1 7 0-2-5 2 0-1-1 0-1 3 1 0-1 2-2-1-1 2 0 0-1 2 0 0-2 0-4-1 0 0-4-3-3 1-5-3-4 6-3 1-8 4-1 0-3 1-1 10 3 2 3-1 1 3 2 0 1 5 0-2-3 8 1 1 1-2 1 1 2-4 6 1 2 1 5 2-1 0 2 3 2 1-2 3 0 1-3 1-1 4 2 1 3 2-1 1 2 1-1 3 0 1-1 1 1 4-6 3 0 3 3 5 0 4 4 0 3-4 2-2-1-3 3-2-1 0-1-3 1-1 3 1 2-3 2 0 1-3-1-2 1 0 2-5-3-2 0 0 8-3 1-1 2 2 5 2 1 0 6-2 2-4 0-2 1-5-1-2 6 2 1-1 1-1 3 4 4-1 3 2 4 2 3 3 0 1 2-1 2-6 1 0 2-5 4-1 4-1 0-2 2-4-2 1-2 3-1-2-2-1-7-3-1-8 3-3-1 0-5 z"></path></a><a xlinkHref="/sejmsenat2019/pl/wyniki/senat/okr/3" data-id="3" kbw:hover="Okręg wyborczy nr 3 [Legnica]"><path d="M 146 606 l 1-1 0-1 2-1 1-3 1 0-1-2 0-3 6-5 1-5 1-1-3-3 0-6 1-1 4-1-4-4-2-1 1-1 0-1-3-1-1-1-6-1 0-7 2 1 4-2 6-1-1-5 2-3 0-2 3-2-2-4 2-2 1 0 0-5 3-2 3 0 1-1 3 1 0-2 2 0-1-4 4 0-1-1-3-1 0-1 1-2 5 0 1 4 3 0 3 2 3 1 0 1 5-1-2 8 3-1 2 1 1 3 3 2 1 4 3 0 1 3 3 0 0 5 5 0 0 4 7 4-1 4 1 3 2 1-3 3-2 11 3 10-2 4 0 3-4 4 2 4 2 0 0 3 1 1 0 3-2 0 0 3 1 1-2 4 2 5-2 1 0 2-3 0-1 1-6-4-2 0-4 6-1-1-1 1-3 0-1 1-1-2-3 1 0-3-4-2-1 1-1 3-3 0-1 2-3-2 0-2-2 1-1-5-1-2 4-6-1-2 2-1-1-1-2-1-1 1-5-1 2 3-5 0 0-1-3-2 1-1-2-3-10-3-1 4-4 1-1 2 1-2 z"></path></a><a xlinkHref="/sejmsenat2019/pl/wyniki/senat/okr/4" data-id="4" kbw:hover="Okręg wyborczy nr 4 [Wałbrzych]"><path d="M 219 695 l-1 1 1 1-1 1 0 4-4 4-4-1 0 1-3 1-1-2-1 1-2-3-1-1-2 1-2 0-1-1-4-1-2 6-4 1-1-3-6-3 0-2 6-1 1-2 0-1-2-2-2 1-2-3-2-4 1-3-4-4 1-3 1-1-2-1 2-6 5 1 2-1 4 0 2-2 0-6-2-1-2-5 1-2 3-1 0-8 2 0 5 3 0-2 2-1 3 1 0-1 2-1 0 1 3 0 2 2 3 1 2 0 0-1 9 4 7-2 4 4-5 0 0 5-2-1 2 3-1 2 2 1 2-2 4 1 0-2 2 0 3 0-3 3 2 2 0 3-3 2 1 4 1 0 0 2 1-1-1 1-2 3-1-1-2 1 0-1-3 1-3-2 0 2 1 3-5 3 3 3-2 1 1 1-7 6 z"></path></a><a xlinkHref="/sejmsenat2019/pl/wyniki/senat/okr/5" data-id="5" kbw:hover="Okręg wyborczy nr 5 [Wałbrzych]"><path d="M 187 739 l 2-3 2 2-1-3 1 0 0-1 3 0-1-1 1-1 2 1-1-2 3 1 2-2 0-2 3 2 6-5-2-3 3 0 0-4 4-1-2-5-3-2-2-3 3-1 0-1 4 1 4-6 0-2 1-1-1-2 2 1 7-6-1-1 2-1-3-3 5-3-1-3 0-2 3 2 3-1 0 1 2-1 1 1 3-4 4 1 4-1 0 2 3 0 0 2 1 0 1 0-1-1 2-1 4 0 1 3 0 2 1 1-1 1 1 1 0-1 1 1-3 2 1 2-3 6 4 0-2 2 1 1 3-2 5 5 1-1 5 0 2-1 2 1 0 2 8 3-3 3 3 2 2 3-5 1-3 7-3 4 1 4-2 2 1 4-2 2-3 0 0-3-4 1 0-2-2 0-2 4-6 3-3 6 5 3 4 12 2 0 1 1 3 1 1 4-2 3 3 5-3 2-3-5-2 4-6 0-1 3-2 0-2-1-2 3-2 0-3 7-4 1-2 5-2 1-7-2-3-4-3-1 1-2-3-3 1-6-2-4-6-5-5-10-2 0-2 0-1-1-2-4 1-2-1-2-6-1-3 2-1-4-2 0 1-2-1-1-3 0 0-3 z"></path></a><a xlinkHref="/sejmsenat2019/pl/wyniki/senat/okr/6" data-id="6" kbw:hover="Okręg wyborczy nr 6 [Wrocław]"><path d="M 257 695 l 3-6-1-2 3-2-1-1 0 1 0 0-1-1 1-1-1-1 0-2-1-1 0-1-4-1-2 1 1 1-1 0-1 0 0-2-3 0 0-2-4 1-3-1-2 1-2-6 3-2 0-3-2-2 3-3-3 0-2 0 0 2-4-1-2 2-2-1 1-2-2-3 2 1 0-5 1 0 1 1 3-1-1-3-3-1-7 2-9-4 0 1-2 0-3-1-2-2-2 0-1-1 1-1-1-2 0 0 0 0 0-1 0 0 1 0 1-3 2 0 0 1 2 1 3-3 2 1 4-2 0-3-4-3 1-3 2-1-2-5 2-4-1-1 0-3 2 0 0-3-1-1 0-3-2 0-2-4 4-4 0-3 2-4-3-10 2-10 3-4-2-1-1-3 1-4-7-4 0-4-5 0 0-5-3 0-1-3-3 0 0-3 1-2 2 0 1-1 5-2 2-3-1-2 2-2 0-2 1 0 2-2 13 0 0 3 3 0 1 3 7 1-2 2 1 1 4 4-1 1-1-1 0 2-3 1 0 3 5 1-1 2 11 1-2 2 0 2 3 2-1 2 2 1 2 2 2-1 4 0 2 4 5 1 1 1 1-1 4-1 2 0 2 2 1-1-1-2 5-2 1 2 7-2 2 2 1-10 2 0 2-2 7-1 14 4 5 3 0 3 4 1 0 2 1 1 0 6-2 2-3 0-1 1 1 2-1 1 2 3-1 1 2 4 0 3 1 2 2 1 3-1 1-2 3 0 1 2 2-1 3 3 2-1-1-2 1-1 3 2 0 1-2 2 0 1-1 0-2 3 4 4 0 2 2 2-1 1 1 2-3 4 1 1 0 5 2 6 3 2-2 1-3-1-1 2-3 0-1 2-2-1-1 1-5-2-1-3-1 2 0 2-1 0-5 2 0 2 3 2 0 3-1 3 2 2-7 3 2 3-2 5 2 2 0 1-5 1 3 1-1 2-1-1-3 0-1-1-3 2 1 5-1 4-2 0-1-1-3-1-2 4 4 2 0 2-1 0 0 2-6 2 2 3-3 1 3 3 1 2-1 1-6-1-2 1-2 2 2 0 3 5-1 1-2-2-1 1-1 4-3 0 0 2 4 2-3 2 0 3-1 3 2 2-1 2-7 0-2-3-3-2 3-3-8-3 0-2-2-1-2 1-5 0-1 1-5-5-3 2-1-1 2-2 z M 264 616 l-3 2 2 3-2-1-3 2-2-1-1 2 1 2-2 3 1-1-1 3 3 1-1 1 2 0 0 2 3 1 1-1 3 1-1 2 2 0 2 3 1 3 3-2 0 1 2 0 0 1 1 1 1-1 3 1 1-3 1 2 2 1-1-3 2-3 4 0 3-4-4-4 2-7-3-1 0 2-4-1-1 2-1-1-4-1-1-2-2 0 0-3-4-1-4 2 z"></path></a><a xlinkHref="/sejmsenat2019/pl/wyniki/senat/okr/7" data-id="7" kbw:hover="Okręg wyborczy nr 7 [Wrocław]"><path d="M 273 634 l 4-2 3 0-1-2 3 0 6 8-4 0-2 3 1 3-2-1-1-2-1 3-3-1-1 1-1-1 0-1-2 0 0-1-3 2-1-3-2-3 z"></path></a><a xlinkHref="/sejmsenat2019/pl/wyniki/senat/okr/8" data-id="8" kbw:hover="Okręg wyborczy nr 8 [Wrocław]"><path d="M 274 633 l-9 5 0-3-3-1-1 1-3-1 0-2-2 0 1-1-3-1 1-3-1 1 2-3-1-2 1-2 2 1 3-2 2 1-2-3 3-2 1 3 4-2 4 1 0 3 2 0 1 2 4 1 1 1 1-2 4 1 0-2 3 1-2 7 4 4-3 4-6-8-3 0 1 2-3 0 z"></path></a><a xlinkHref="/sejmsenat2019/pl/wyniki/senat/okr/9" data-id="9" kbw:hover="Okręg wyborczy nr 9 [Bydgoszcz]"><path d="M 393 314 l 2 2 12 2 11 7-3 4 0 3-4 1 1 1-3 2-1-4-1 1 0 1-6-1 2 5 0 0-8 2 0-1 0 1-3-1 0 1-3 0-1-1-2 0 0-1-1 0-2-3 1 0-5 2 0-3-2-1 0-1-1 0 1-3-1-1-1-1 0-2-7 0-4-5-2-5-5-1 1-4 0-2-4-1 1-5-4-2 0-4-2 0-2-3 3-1-1-2 1 0 0-5 1-1 0-2 2-1 0-3 0-2-4 0 0-2 5-8 3 0 0-6-4 0 0-11-5 0-4-7-2 1 0-3 2 0 3-2 2 0 0-2-2-1 1-2 2 2 4 0 0-4-2 1 1-1-1-3 2-2 1-5 2-1 1-2 3 3 2-2 3 1 2-4 2 0 0-1 1-1-3-4-1 0 1-2 3 2 2 0 1 1 1-1 1 2 1 0 2 2 4 0 2-2-1-1 3-6 4 2 0 2 2-2 2 0 0 2 2 2 0-2 2 0 0 3 2-2 0 2 5-1 0 3 1 1-3 1 1 2 9 2 10-1 0 1 1-2 4 0 1 2-1 1 2 1-1 1 2 1 1 2 3-1-2-2 1-1 3 1 2-1 2-3 3 1 2-2 0 2 2 1 2-1 1 1 1-3 3 0-5 8 0 3 2 5 0 9-3 11-5 6-5 1 1 2-3-1-6 2-6 0-3 6-3 0-1 2-4 3-4 5-2 7-4 4 4 1 1 3 3 2-1 9-2-1-2 1 1 2-1 3-4 1 1-3-2 1-6 4-3-1 z"></path></a><a xlinkHref="/sejmsenat2019/pl/wyniki/senat/okr/10" data-id="10" kbw:hover="Okręg wyborczy nr 10 [Bydgoszcz]"><path d="M 412 405 l-1 0 0 3-8 6-2-1-4 1 0-3-4-1-2 1-1-1 0-1-2 0-2-1 2-3-1-2-3 0-1 1-5-2-1 2-1 0 0-5-1 2-1 0 1-2-3 1-1-3 0 3-2-1-1-2 2-2-2 1 1-3-1 0-2-4-4 1-2-1 1-1-4-2-1 3-2 0 0-4-4 3 1 1 2-1 0 1-4 5-1-2-1 2-1 0 1-7-5 0 0-5 1-2-2-3-4 0-1 3-3 0-2 3-2-1 0-1-2-1 0 1-1 0 0-3 3-1-2-1 1-2-5-4-3-1 2-2-2-1 0-2 3 0 2-2 0 2 4 0 1-1 0-2 1-2 0-6 1 0 0-5-1 0-1-5 1-2-2 0-1-3-2 0-6-6-3 2-5 0 0-3-2-1 2-4 2 0-1-9 3-2 0-7 3 0 1-1-6-3 2-1-1-3 1-2-3-4 9-1 0-2 2-1-1-1 2-2-2-3-1-1 0 1-1-1 0-1-4-4 0-2-1-1-1-2-7-2-1-3 4-3 1-4 8-7 1-6 3-5-1-4 1-4 3-2 3 0 3-3 3 6 3 1 3-3 4 2 1 2-2 2-3 0 0 3 2-1 5 8 4-1 0 11 4 0 0 6-3 0-5 8 0 2 4 0 0 2 0 3-2 1 0 2-1 1 0 5-1 0 1 2-3 1 2 3 2 0 0 4 4 2-1 5 4 1 0 2-1 4 5 1 2 5 4 5 7 0 0 2 1 1 1 1-1 3 1 0 0 1 2 1 0 3 5-2-1 0 2 3 1 0 0 1 2 0 1 1 4-1 2 1 8-2-2-5 6 1 0-1 1-1 1 4 3-2-1-1 7 0 0 1-2 0-2 6 7-2 1 2 5-1 1 7 5 5-1 4-1-1-1 3 1 1-1 2 1 0 1 2 2-1 1 3 3-1 1 3-2 5-5-1-1 2-4 0 0 9-3 0 0 5-1 0-1 2 3 4-1 7-3 0 0 3-5 3-2 1 z"></path></a><a xlinkHref="/sejmsenat2019/pl/wyniki/senat/okr/11" data-id="11" kbw:hover="Okręg wyborczy nr 11 [Toruń]"><path d="M 393 314 l 1-1 3 1 7-4 1-1-1 3 4-1 1-3-1-2 2-1 2 1 0-2 0 0 1-1 0-6-3-2-1-3-4-1 4-4 2-7 4-5 4-3 1-2 3 0 3-6 6 0 3-2 5 0-3 3 1 2 2-1 1 2 4-1 3 3-1 2 2 0 0 3-2-1-1 2 2 1-1 1 3 2 1 3-3 3 2 1-1 2 4 3 3-1-2 3 3 2-4 2-2 4 1 3-3 2 4 0 4 4 1 6-1 1 2 1 0 1 3 0 1 5 8 4-2 3 2 1 1 2 2 0 1-2 3 0 0-2 1-1 2 3 2-1 1 2 1 2-4 0-1 1-3 0 0 5 2 0-1 3 1-1 2 1 1 5-2 5-2 1-7-1-1 1 1 3-4-1-1-3-6-4-2-4-5-1-4-4-3 2-1 4-3 0-1 1-1-1-1 3-2 1 0 1-1 1-2-3-6-5-1-7-5 1-1-2-7 2 2-6 2 0 0-1-4 0 1-1 0-3 3-4-11-7-11-2 z"></path></a><a xlinkHref="/sejmsenat2019/pl/wyniki/senat/okr/12" data-id="12" kbw:hover="Okręg wyborczy nr 12 [Toruń]"><path d="M 538 313 l-1 0 1 6 2 1-2 0 1 5 1-1 3 4-3 5 2 1 0 4-6-3-6-2 0 1 2 2 0 2-4 1-1 2-8-1 0 1-4 1-1 1-1-3 0 2-4-1 0-2-4 1-1-4-3-2 1-2-1-1-8 2 1 4-3-2-1 3-5-2-2-3-2 0-2-3-1 1 0 2-3 0-1 2-2 0-1-2-2-1 2-3-8-4-1-5-3 0 0-1-2-1 1-1-1-6-4-4-4 0 3-2-1-3 2-4 4-2-3-2 2-3-3 0-4-2 1-3-2 0 3-3-1-3-3-2 1-1-2-1 3-3-2-1 1-2-3-3-4 1-1-2-2 1-1-2 1-2 3-1-1-1 5-1 5-6 3-11 0-10 12 2 2 1 0 2 1-2 5 1 2-2 3 1 6-1 8 3 3 1-1 4 2 0 1 3-3 3 3 3 1 4-1 2 2 0 0 2 1 2-2 2 3 3 3 2 1-4 3 1 3-1 2 1 0 3 1-1 1 0 1 2 3 1-2 2 3 0 1-2 1 0 0 2 4-2 1 3-1 4 6 0 5-3 5 2 0 5 3 0-1 2 2 1-1 1 1 1-2 0-2 2 0 4 6 1 1 3-2 1 2 8-4 3-1 2-2 0 0 2-2 1 z"></path></a><a xlinkHref="/sejmsenat2019/pl/wyniki/senat/okr/13" data-id="13" kbw:hover="Okręg wyborczy nr 13 [Toruń]"><path d="M 444 425 l 1-2-3 1-2-5-3 0-1-2-1 1-3 0 0-4-2 1 0-2-1-1-3-1-2 2-1 0 0 2-4 0 0 1-3 0-2-5 2-4-1-2 5-2 1-4 3 0 1-1 0-6-3-4 1-2 1 0 0-5 3 0 0-9 4 0 1-2 5 1 2-5-1-3-3 1-1-3-2 1-1-2-1 0 1-2-1-1 1-3 1 1 1-4 3 3 1-1 0-1 2-1 1-3 1 1 1-1 3 0 1-4 3-2 4 4 5 0 2 5 6 4 1 3 4 1-1-4 8 1 2-1 2-5-1-5-2-1-1 1 1-3-2 0 0-5 3 0 1-1 9 2 1-3 3 2-1-2 0-2 8-2 1 1-1 2 3 2 2 4 3-1 0 2 4 1 0-2 0 2 2 1 0-1 4-1 1 2 2 1-2 2 6 8-4-1-1 1 1 1-3 2-2 0 0 4 4 2 0 3 3 1 1 2-1 3 3 0-3 2 1 3 2 2-3-1 0-1-3-2-2 1 0 3-1 4 2 1-4 0-1 5-2 0-2 2 6 3 0 2-2 1-1 3-5 1 2 5-1 1-2-1 0 0-1 0 1 2 4 0 2 2-3 1 0 4-2 0-2 5-4 0-2 1 0 1 3 1 1 2-2 2 1 2-2 0-3 5-3-1 0 2 2 2-2-1-1-2-1 2-3 1 0-1-3 1-3-1-4 2 1 1-3 0-3-1 0-2-3-1-1-1 2 0-1-2-2-1-3-3 1 3-2 0 0 2-2 1-1 0-5 3-2-1-5 3-1-5-4-6-3 0 z"></path></a><a xlinkHref="/sejmsenat2019/pl/wyniki/senat/okr/14" data-id="14" kbw:hover="Okręg wyborczy nr 14 [Lublin]"><path d="M 757 618 l 2-5 2-2-2-4 6-3-3-3-1 2-1-2-3 1 0-1 3-1 2-5-1-2 2-2 1 0-2-4-3 1-2-4-2 1-1-2 4-4 3 0 1 2 3-10-3-1 1-4-3-4 0-4-5-1-3 1-9-3-1-3-4-3 2-1 0-5 1-1 7 4 0 0 1 3 2 1 2-6 1 1 1-2 4 1 2-5 1 1 0-2 2 1 0-3 2-2-2-1-1-3-4-2 1-2 1 0 1-2 3 0 0-2 3 0 3-2-3-7-6 0-1 1 0-1-2-1 1-1 4-1 0-5 2 0-1-3-2-1 0-3-2-2 1-5 4-1 1-2 4 0 3-4 1 0 2-1 2 0 3 2 3 0 3 0 1-4 10 3 3-2 1-3 3 0-1 4 3 2 4-3 5 0 6-9 2 0 1 3 2 0 1 1 5 0 2 3-1 2 2 2 0 4-1 0-5 1-1 4-1 1 2 1 1 5-1 1 2 2-2 0 0-2-5 3-2-2-1 5-3 3-3-4-3 2-1-2-1 1 0-2-1 2 1 1-2 2 3 1-1 1-2 3 5 1 0 4 4 5-3 5 8 3 0 2 3 2 3 1 0 1 3 0 0 0 5 4 0 1 5 5 2 0 5 3 6 1 0 7 6 0 0-2 3 0 0-5 4 1 0 1 4 2 5 2 0 1 2 2-2 1 0 2 2 1-1 1-1-1-3 1 2 6-1 5-2 0 0 1-3-2 0 1-2 0-6 4-2-1 0-1-1 0-5-3-2 4-3 1-5 2 1 2-2 1-2-4-5 0-2-1-2 1 0 1 2 0 0 2-2 0-1-3-2 1-1-1-3 1 1-4-2 1-1-2-3 3 1 3-2 1-1-2-3-2 1-5-1 1-2-2-6 1 1 1-2-1 1 1-1 2 1 0-1 0-2 7 3 3-4 3 3 2 0 4 3 2-7 3-1-1-6 1 0 2-4 4 2 0 0 1-2 0 1 1 3-1 1 1-3 3 2 1 0 1-4 2 0 3 6 0 0 3 2 1 3-1-1 7 2 0-2 5 0 2-5 0-4-1-5 1-2-2-4 4 2 9-6-3 0 3 1 0 0-2 0 1-2 3 0 1-1 1-2-2-1 4-1-3-4-2-4 0-2 1 0-5-2-4 3-3-4-5-1-6 1-3-1-2 0-5 z"></path></a><a xlinkHref="/sejmsenat2019/pl/wyniki/senat/okr/15" data-id="15" kbw:hover="Okręg wyborczy nr 15 [Lublin]"><path d="M 797 700 l 3-3 0-3 3-8-2-2-3-1 1-4-12-3-6 6-2-1-2 3-8-1-1-7-2-2 0-4-2-3-2-12 0-3 2-1 8 2 0 3 2-2 0-2 3 2 0-2 2-3 0-1 0 2-1 0 0-3 6 3-2-9 4-4 2 2 5-1 4 1 5 0 0-2 2-5-2 0 1-7-3 1-2-1 0-3-6 0 0-3 4-2 0-1-2-1 3-3-1-1-3 1-1-1 2 0 0-1-1 0-1 0 4-4 0-2 6-1 1 1 7-3-3-2 0-4-3-2 4-3-3-3 2-7 1 0-1 0 1-2-1-1 2 1-1-1 6-1 2 2 1-1-1 5 3 2 1 2 2-1-1-3 3-3 1 2 2-1-1 4 3-1 1 1 2-1 1 3 2 0 0-2-2 0 0-1 2-1 2 1 5 0 2 4 2-1-1-2 5-2 3 0 2-5 5 3 1 0 0 1 2 1 6-4 2 0 0-1 3 2 0-1 2 0 1-4 2 1 2-3 3 3-1 1 1 0 1-2 1 1-2 3 3 0 2 6 2-2 1 2 1-1 0 1 2-3 1 1 0 1 5 2 2 3 3 0-3 3 0 2-2 2 0 2 3 1-1 2-6-1-2 2 1 2-7 0-3 2 1 1 0 1-3 2 0 2 1 6 3 1-3 1 1 1 0 2 2 0-2 2 1 2 1 0-3 2-3-1-1-1 1-1-5-2-4 1-4 10 2 1 1 4 5 0 0 2-2 2-1 4-4 2-4-2-4 2-1 0-1 5 3 1-3 1 0 2-2 0 3 6-8-1 1 1-3 5-3-2-4 3-1 0-1-1-2 2 4 0 0 3 2-1 0 3 1 0 4 5-3 5 1 2-4 3 3 2 1 6 1 0 2 1 1 2-4 2-5 6-4 2-4-1 0 2-1 0 0-1-1 0 0 1-1 0 1 0-3-1 0-1-5 2-7-5-5 0-1-1-4 0-3-6 z M 846 605 l 1-2-4-1 0-2 1-2-2-1-2 2-2-1-9 1 0 2-1-1-2 3 0 1 2 0 0 2-2 2 2 0-3 2 5 0-2 2 3 3-4 5 2 2 1 1 1-2 5 0-1-5 7 0 1-2-2-3 4-2 0-4 z"></path></a><a xlinkHref="/sejmsenat2019/pl/wyniki/senat/okr/16" data-id="16" kbw:hover="Okręg wyborczy nr 16 [Lublin]"><path d="M 825 611 l 3-3-2 0 0 0 2-2 0-2-2 0 0-1 2-3 1 1 0-2 9-1 2 1 2-2 2 1-1 2 0 2 4 1-1 2-1 0 0 4-4 2 2 3-1 2-7 0 1 5-7 1-2-2 4-5-3-3 2-2 z"></path></a><a xlinkHref="/sejmsenat2019/pl/wyniki/senat/okr/17" data-id="17" kbw:hover="Okręg wyborczy nr 17 [Chełm]"><path d="M 908 535 l 0 5-6-1 0 4-2 1-1-2-2 0-2 3 0 3-1 1-2 3 7 6-2 8-1 1-8 0-1 1 1 2-2 0 0 1-1 1 1 1-2 3 0-1-3-3-2 3-3-1-1-7 3-1 1 1 1-1-2-1 1-3 1 0-2-2 0-1-5-2-4-2 0-1-4-1 0 5-3 0 0 2-6 0 0-7-6-1-5-3-2 0-5-5 0-1-5-4 0 0-3 0 0-1-3-1-3-2 0-2-8-3 3-5-4-5 0-4-5-1 2-3 1-1-3-1 2-2-1-1 1-2 0 2 1-1 1 2 3-2 3 4 3-3 1-5 2 2 5-3 0 2 2 0-2-2 1-1-1-5-2-1 1-1 1-4 2-1 4 0 0-4-2-3 2-3 2-1 1-7-2-1 2-3 3-2 0 2 6 2 2 4 5-3 2 3 1-1 0 1 4 0 1-2-3-3 1-1 1-2 2 1 0-1 2 1 2-2-3-3 4-4-1-2 6-1 4 1-3-2-1-6 3-3 1 0 4-9 8 2-1 6 1 2 7 1 4-1-1 2 4 0 1-1 0 1 2 0 1 2 2-1 0 3 2 0 1 1 3-2 1 2 2-2 1 1 1 1-2-1 0 4 3 0 1 3 2 0 1 4 0-2 3 0 4 1-1 2 5 4-1 1 1 1-1 0 2 3-1 4 4 4-2 2 0 2-2 0-2 3 2 0 0 3-3 2 3 4-2 1 1 2-2 0 1 3-1 3 1 0-1 1 2 0 2 4-1 4-3 2-1 2-3 0-2 3-2-1 0-2-3-2 0-1-3 1-1 5-3 0-1 2 1 2-8 8 1 3 z"></path></a><a xlinkHref="/sejmsenat2019/pl/wyniki/senat/okr/18" data-id="18" kbw:hover="Okręg wyborczy nr 18 [Chełm]"><path d="M 858 658 l 2 0 0-2 3-1-3-1 1-5 1 0 4-2 4 2 4-2 1-4 2-2 0-2-5 0-1-4-2-1 4-10 4-1 5 2-1 1 1 1 3 1 3-2-2-1 2-3-2 0 0-2-1-1 3-1-3-1-1-8 3-1 0-2-1-1 3-2 5 0 2 0-1-1 1-2 7 0 1-2-3-1 0-2 2-2 0-2 1-1 2-1 0-1 0 0 0 0-3 0-2-3-5-2 0-1-1-1-2 3 0-1-1 1-1-2-2 2-2-6-3 0 2-3-1-1 1-1-1-1 1-1 0-1 2 0-1-2 1-1 8 0 1-1 2-8-7-6 2-3 1-1 0-3 2-3 2 0 1 2 2-1 0-4 6 1 0-5 2 0-1-3 8-8-1-2 1-2 3 1 0-6 2-1 2 0 0 1 3 2 0 2 2 1 0 3 1-1 1 3 0 0 0 1 1 1-1 2 1 3-2 2 0 1 1 1 0 1 0 5 4 7-1 3 0 1 5 1 1 2 0 3 2 1 2-1 1 2 1 2-3 2 0 2 4 0 0 2 2 2-1 1 1 1-2 2 1 1-1 0 1 3-2 0-1 4 0 1-2 2 1 3 1 1 0 2 2-1 2 1 1-1 3 5 2 8 2 0 0 1 5 3 3 4 1-1 3 2 0 3-2 1 2 2-1 2 2 1 0 3 1-1 1 1 2 0 1 4-1 1 2 1-1 1 2 2-2 2 2 0 0 0 0 3 0-1 1 1-1 2-6 0 2 7-5-1-5 2-1 1-3-1-2 2-1-1 0-3-1-1-2 2-8 1-1 1 0 7 2 2-3-1-2 2-6-4 0 2-2 0-1-2 0 1 1-1-1 0-2 4-5-3-6 1-6-3-3 4-2 0 0 1 2 1-1 3-5 1-1-3-4-1 0 5-3 1-3 0 0 1-1-1 1-1-6-3-5 8-4 0-1 3-5 0 1-1-2-1-1 2-6-4-1-7-4-1 z"></path></a><a xlinkHref="/sejmsenat2019/pl/wyniki/senat/okr/19" data-id="19" kbw:hover="Okręg wyborczy nr 19 [Chełm]"><path d="M 988 731 l-18 2-8 4-2 2-1 7-5 2-1 3-2 1-3 5-3 3-2-2-2 0 0-2-1-2 2-1-2-1-3 1-2-1-4-1-1 2 3-8-3-1-1-2-2 0 0-3-2-1 2-2-3-1 0 2-10 7 0-1-4-3-4-1-16 18-13-1-4 1-10-1-5 2-2-1-5 0-3-1-1-3 9-3 0-2-6 0-4 1-3-1-4 1-2 2 0-2-3 0-3-2 0-3-2-1 0-1-3 1 1-5 3 1 0-2 1-1-1-4 2-1 0 1 4 1 0-2 2 0 1 3 2-3 1 1-1-1 3-2 0-1-2 0-4 1 0 0-1 0-1-1 4 0 3-3-5-2 0-4-2 0 1 0 0-1 2-1-1-3-2-3 4 1 4-2 5-6 4-2-1-2-2-1-1 0-1-6-3-2 4-3-1-2 3-5-4-5-1 0 0-3-2 1 0-3-4 0 1-2 2 1 5-3 3 2 3-5-1-1 8 1-1-2 3 1 1 7 6 4 1-2 2 1 0 1 4 0 1-3 4 0 5-8 6 3-1 1 1 1 0-1 3 0 3-1 0-5 4 1 1 3 5-1 1-3-2-1 0-1 2 0 3-4 6 3 6-1 5 3 2-4 1 0-1 0 1 2 2 0 0-2 6 4 2-2 3 1-2-2 0-7 3-2 6 0 2-2 1 1 0 3 1 1 2-2 3 1 1-1 5-2 5 1-2-7 6 0 1-2-1-1 0 1 0-3 4 4 0 4 9 9 4 1 3 2 3 0-1 4-3 2-10 0-4 4 0 4 1 2 1 2 3-1 2 1 0 1-1-1 0 2 1 0-1 1 1 0-1 4 3 1 3-1 0 7 2 0 1 2-1 3 1 1 1 0 0 5-2 17-3 9-3 2 0 4 z"></path></a><a xlinkHref="/sejmsenat2019/pl/wyniki/senat/okr/20" data-id="20" kbw:hover="Okręg wyborczy nr 20 [Zielona Góra]"><path d="M 141 500 l 1 3-2 1 2 1-2 1 1 3-5-1-2 3-5-2 0 4-2 0-2 0-1-1-1 0 0 2-2 2 2 2-7 3 1 2-3 0-3 3-2-2-2 1 0-3-1 1-3-2-1 2-1 0-1 1-1 0-1-7-2 0-3 5-4-1 0-1-2-2 3 0 0-1 1 0 0-3 2-1-1-6-8 1 4-4-4 0 0-2-5-3-4 1-4-2-2 1 1 2-4 1-3-2-1 1 0 4-2-1-3 1-4-2 0 1-1 0 2 2-5 0 1 5-4-1-3 4-2 0-2-3-2 0-2-3 1-3 1 0 0-1 1 0 0-2 3-1 2-4 4-2 1-4 2-2-2-5 2-3 0-2 3-4 1-6 2-2 2 2 1-1-1-1 2-1-1-3 2 0-1-5 3-2 4 2-1 1 2 0 0-3-2 0 3-2-1-2 1-1-1-1 1-2 7 0 2-2 4 1 1-1 1 0 3-2 1 1 1-1 0 2 2-2 4 1 1-2-1-2 2-1 1 1 5-4-3-2 1-2 4 0-2-5 2-1 2-4 4-1 1 1 3 1 1-2 5 2 3-1 2 3 4-1 0 1 8 2-1 1 5 0 1 4 1 0 1 2 4 2 1 1 2 0 7-4 4 0 0 1 2 1 0 2-3 2 5-1-2 4 0 6-2 3 1-1 1 3-1 4 2 1 1 2-1 4-4 3 2 4 2 0 4 3 1-3 4 1 3 4-1 1 0 3-3 0 0 1-1 0-1-1-1 0 0-1-3 0 1 3 1 0-1 1 2 5-4 1 1 2-2 1-2-1 1 2-4 2 3 2-6 3-1 2-4 0 0-2-4 0-2 1 z"></path></a><a xlinkHref="/sejmsenat2019/pl/wyniki/senat/okr/21" data-id="21" kbw:hover="Okręg wyborczy nr 21 [Zielona Góra]"><path d="M 36 415 l 2-6 3-1 6-9-3-2 0-4 4-6-7-9 7-5 5 5 3 0 1-2 2 0 1-4 4-4 1-6-1-4 3-2 3-1 0-2 2 0 0-3-1 0 0-3 2-1-1-2 3 0 0 3 3-2-1-2-2-1 2-4 2 0 0 1 0 0 2 2 3 1 1 4 4-3 3 5 21-8 1 1 0-1 4-1 1-1-1 0-3-5 0-4 6 3 4-4-1-1 6-3 2 1 7-3 1-1 4 5 3 0 1 1 5-3 4 2 5-2 1-3-2-1 1 0 2-3 2 0-3-2 4-1-1-3 5-1-1-4 6-1 7 2 0 0 0 1 1 3 0 2-1 2 0 1-1 0-2 3 0 10-1 0 1 1 0 2 2 4 0 4-2 1 1 4-2 1 2 2-1 0 0 1-2-1 0 2-3 2 0-2-2 3 0 3 2 1 1-1 0 0 0 1 1 2-2 1 2 4 0 4-4 3-7 1-4-1 2 7-3 0-1 5 2 0 0 2-2 1 3 4 2 1-1 3 3 4-2 2 2 3 2 0-1 2 2 5 0 1-1-1 1 4-2 0 0 2-1-1-1 1-2-1-1-3-1 2-1 0 4 7 5 2-1 3 0 3-1 0 1 7-1 0-1 3-5 1 3-2 0-2-2-1 0-1-4 0-6 4-3 0-1-1-4-2-1-2-1 0-1-4-5 0 1-1-8-2 0-1-4 1-2-3-3 1-5-2-1 2-3-1-1-1-4 1-2 5-2 0 2 5-4 0-1 2 3 2-5 4-1-1-2 1 1 2-1 2-4-1-2 2 0-2-1 1-1-1-3 2-1 0-1 1-4-1-2 2-7-1-1 3 1 1-1 1 1 2-3 2 2 0 0 3-2 0 1-1-4-2-3 2 1 5-2 0 1 3-2 1 1 1-1 1-2-2-1 2-3-4-3-1-1-3 0-5 2-4-1-4 2-2 1-4-2-4-9-3-2-2 1-3-1-3-1-1-1-7 z"></path></a><a xlinkHref="/sejmsenat2019/pl/wyniki/senat/okr/22" data-id="22" kbw:hover="Okręg wyborczy nr 22 [Zielona Góra]"><path d="M 99 524 l 1 0 1-1 1 0 1-2 3 2 1-1 0 3 2-1 2 2 3-3 3 0-2-2 3-2 2 0 1 1 2 1-2-1-1-1 3-1-2-2 2-2 0-2 4 1 2 0 0-4 5 2 2-3 5 1-1-3 2-1-2-1 2-1-1-3 6 2 2-1 4 0 0 2 4 0 1-2 6-3-3-2 4-2-1-2 4 0-1-2 4-1-2-5 1-1-1 0-1-3 1-1 5 3 0 4 2 1 0-1 1 0 1 3 5 1 5-3 2 1 1 6-2 1 1 3 1 1-4 3-1 2 7 0 1 2 2-1 0 3 2 0 4-5 2 1 1-1 3 3 4 1-2 1 5 4-1 2 2 0-1 3 1 2-1 2 3 2-3 2-1 0 0 2-2 2 1 2-3 3-8 4 0 4-1-4-3-2-1-3-2-1-3 1 2-8-5 1 0-1-3-1-3-2-3 0-1-4-5 0-1 2 0 1 3 1 1 1-4 0 1 4-2 0 0 2-3-1-1 1-3 0-3 2 0 5-1 0-2 2 2 4-3 2 0 2-2 3 1 5-6 1-4 2-2-1 0 7-3 0-3 7-2-1-4 5-1-1 1-3-10-10-1 2-4-2-4 1 0-2-2 0-2 6 2 3-4 0-1 4 1 0-2 3 0 4-7-7-5 0-1 0 1-3-2 0-4 3-4 2-2 0-2 5-6 0 0 5-4 0 1-2-3-4 2 0-1-5 1 0 0-2-2-5-2 0-1-2-6-1-6-5-3 0-3-3 0-3-2-2 6-7-1-3 1-6-2-4-7-6-1-3 1-2-1-1 0-4 3 0 2-4 4 1-1-5 5 0-2-2 1 0 0-1 4 2 3-1 2 1 0-4 1-1 3 2 4-1-1-2 2-1 4 2 4-1 5 3 0 2 3 0-3 4 8-1 1 6-2 1 0 3-1 0 0 1-3 0 5 4 2 0 2-5 2 0 z"></path></a><a xlinkHref="/sejmsenat2019/pl/wyniki/senat/okr/23" data-id="23" kbw:hover="Okręg wyborczy nr 23 [Łódź]"><path d="M 511 527 l 0-1-1-2-1 1-1-2 2-1-1-1 1-3 4 1 0 2 7-2-1-3 6-1 1 2-1-1 0 2 1 0 0 3-3 3 2 2 0 3-3 1 0 2-4 1 1 2-2 0 0 2-2 0 2 2-1 2-5 0-2-3 0-4 3 0 0-2-4-2 0-2 z"></path></a><a xlinkHref="/sejmsenat2019/pl/wyniki/senat/okr/24" data-id="24" kbw:hover="Okręg wyborczy nr 24 [Łódź]"><path d="M 560 501 l 4 9-1 2 1 2 5 2 3 0 1 2 4 2-2 2 0 2 1 0 0 1-1 0-1 2 3 1-2 2 0 2-1 1 0 3-3 1-1 2 1 0-4 7-3 1-1-4-1-2-2 1-2-2-3-1-1 0 0 2-1 0 0-2-2 0-2 3 1 0-1 2 0 7-4 1 0-4-3 1-2 4-3-2-1 2 3 3-4 4 3 4-2 7-6 0-1-2-2 0-1-2-2 1 0-2-1 0 0-4-2-2 2-3-1-1-2 0 1-2-3-2 1-3 0-4 0-2-2-2 1-2-2-2 2 0 0-2 2 0-1-2 4-1 0-2 3-1 0-3-2-2 3-3 0-3-1 0 0-2 1 1-1-2 1 1 4 1 0 0 1 1 2 1 1-2 2 0 0-3 5 2 5-4-1-3-3 0 3-5 0-3 1 1 1-1 2 1 2-1 7-1 z"></path></a><a xlinkHref="/sejmsenat2019/pl/wyniki/senat/okr/25" data-id="25" kbw:hover="Okręg wyborczy nr 25 [Sieradz]"><path d="M 441 533 l 1-9 2-1 2-6-1-3 3-1 0-1 4-8-2-1 0-5-1 2-2-3 2 0 0-2-1-1 1-2-1-5 0-5 3-2 4 3 2-2 1 1 1 0 1-3 2-1 2 1 4 1 1-4 1 0 1-3-1-1-1 1-2-2 1-10 3 0 1-2 1 1 2-2 6 0 2 2 1-1-1-3 1-2 2-1 0-3-3-2-4 1 1-4-1-4 1 0 0-2 2 0-1-1 4-2 3 1 3-1 0 1 3-1 1-2 1 2 2 1-2-2 0-2 3 1 0-1 4-4 3 1-2 2 4 1-1 3 4 1 5 0 0 1 2 0 3-2 4 2-1 3 3 2 2 0 1 2 7 1-1 2 2 0-1 2 2 1 5-1 1-3 3 3 3 0 3-2 0-1 2-1 3 2 3-3-1 0 3-3 2 2 2 0 0 1 2 1 1 2 8 2-1 2 5 2-2 7 2 3 1 3 2 1 0 2-1 1 0 1 1-1 1 5-3 2 1 3 2 0 1 4-2 2 1 1-4-1 1 1-4 3 1 1-4 2-1 0-1-2-4 1 0 1-1 1 0 2-2 0 0 2-2 1 0 2 2 0 0 2-3 1 0 1-4-1-3-9-2 0-2-2-6-1-1-3 2-3-3 2-3-2-4 2-2-2-3 0 0-1-1 1-2-1 0 3-1-1-2 4-1-2-1 1-1-2-1 1-1-1 1 3-2 1-3-3-1 2-5 0-1-3 1-1-2-1-1 0 0 1-3 2-3-4-3 1 0 1-3 0 0 2-4-1-1 2-5 0 0 5 3 2-2 9 1 1 2-2 1 1 1-1 1 3-1 3-3 1 0 4-2 4-3 1-2-2-2 0 0 1-3-2-1 2-2 0 2 5 3 2-1 2-4-1-3 5-7-2-2 1-3 4-9-4 0-2-2 0 1 2-2 1 0 1 z"></path></a><a xlinkHref="/sejmsenat2019/pl/wyniki/senat/okr/26" data-id="26" kbw:hover="Okręg wyborczy nr 26 [Sieradz]"><path d="M 456 588 l 1-4 2-1-1 0 1-2 0 1 3-2 1-2-1 0-1 2 0 0 1-2 0-3 2 2 2-1 1 2 2 0-2-2 3-1 0-5 1-2 2 0 0-2 2-1 2-3 1 1 0-2 2-2-2-3 1-1-2-6 2-3 3 1-2-4 3 1 4-1-1-3-3-2-1-3-2-1 1-2-1-2 1-2-3-2-2-5 0-1 2 1 1-2 3 2 0-1 2 0 2 2 3-1 2-4 0-4 3-1 0-6-1 1-1-1-2 2-1-1 2-9-3-2 0-5 5 0 1-2 4 1 0-2 3 0 0-1 3-1 1 3 2 1 3-2 0-1 1 0 2 1-1 1 1 3 5 0 1-2 3 3 2-1-1-3 1 1 1-1 1 2 1-1 1 2 2-4 1 1 1-2 2-1 0 1 3 0 2 2 4-2 3 2 3-2-2 3 1 3 6 1 2 2 2 0 1 4-7 1-2 1-2-1-1 1-1-1 0 3-3 5 3 0 1 3-5 4-5-2 0 3-2 0-1 2-2-1-1-1-3 0-2-2-1 0-5 1 1 3-7 2 0-2-3-1-2 3 1 1-2 1 1 2 1-1 1 2-2 2 0 2 4 2 0 2-3 0-1 2 0 1 1-1 0 2 1 2 8 3 1 4-2 5 3 2-1 2 2 0 1 1-2 3 2 2-1 6-3 1-1-2-1 2-1 0 0-2-7 2-4-1-2-4-1 2 0 5-2 3-4 1-1 2-3-1-9 2 1 7-2 2-1-1 2 5-2 1-1 5-3-1 0 3-5-4-4 2-1-2-2 0 0-3-2 0-2-4-2 2 z" class=""></path></a><a xlinkHref="/sejmsenat2019/pl/wyniki/senat/okr/27" data-id="27" kbw:hover="Okręg wyborczy nr 27 [Sieradz]"><path d="M 462 609 l 4-1 0-1 8 1 2-1 3 3 1-3 2 0 2-2 2 3 1 4-2 0 1 3 3 0 0-1 0 0 2 1 1-4 3 2 1 4 5 3 0 2 2-1-1-1 3 3 2 1-1 2-6-1-1 4 5 3 0 4-3 0-4 8 0 3 2 0 2 1-1 2 2 3-1 0-1 2-4 1-4-2 0-1-2 0 1-1-2 0 0 2-1 0-2-5-3-1-2 2-1-1 1-2-3-2-1-2-9-6-3 7-4-3-4 1 0 0-2 0 1 1-10 0-5 2-4-4-4-1-2-7-1-2-3 0 0 5-3 3-1-1-2-4-1 1-3-1 0-1-4-1-1-1-6 1-5-4-8 0-2-2 1-4-1 0 0-2 2-3-2-3 1-4-2-1 0 1-1 0-1-1-2 2-1-1 1-2-1-1 2 0-1-1 0-3-2-3 0-2-2-1 3-2 3 0 2-5 4 1 2-6-2-3 3-1-1-1 12 6 3-6-1-3 4-1-1-6-2-3 2-2-1-3 1-5-3-1 2-2-2-2 1-1 1 0 2-3-3-1 0-2 4-4 0-1 2 0-1-3 2-1 0-1-2-3 1 1 2-3-2-4 1 0 0-2 0 2 2-1 0-5 3 1-1-1 1-4 4 0 0 3 4-2 4 0 2 2 7 2-2 3-1 9 2 1 6 1 0-1 2-1-1-2 2 0 0 2 9 4 3-4 2-1 7 2 1-4 3-1 4 1 0 2-1 2 2 1 1 3 3 2 1 3-4 1-3-1 2 4-3-1-2 3 2 6-1 1 2 3-2 2 0 2-1-1-2 3-2 1 0 2-2 0-1 2 0 5-3 1 2 2-2 0-1-2-2 1-2-3 0 4-1 2 1-2 1 0-1 2-3 2 0-1-1 2 1 0-2 1-1 3 0 0 3 3 2-2 2 4 2 0 0 3 2 1-4 1 1 1-2 3 2 2 0 1-3 3 z" class=""></path></a><a xlinkHref="/sejmsenat2019/pl/wyniki/senat/okr/28" data-id="28" kbw:hover="Okręg wyborczy nr 28 [Piotrków Trybunalski]"><path d="M 496 646 l 4-8 2-2 2 0 0-4-5-3 1-4 6 1 1-2-2-1-3-3 1 1-2 1 0-2-5-3-1-4-3-2-1 4-2-1 0 0 0 1-3 0-1-3 2 0-1-4-2-3-2 2-2 0-1 3-3-3-2 1-8-1 0 1-4 0-1-1 3-3 0-1-2-2 2-3-1-1 3-1 1 0-2-1 1-1 2 3 4-2 5 4 0-3 3 1 1-5 2-1-2-5 1 1 2-2-1-7 9-2 3 1 1-2 4-1 2-3 0-5 1-2 2 4 4 1 7-2 0 2 1 0 1-2 2 2 2-1 0-2 2 0 0 2 2-1 1 2 2 0 1 2 6 0 2-7-3-4 4-4-3-3 1-2 3 2 2-4 3-1 0 4 2 0 1 3-1 6 2 0 1 2 3 0 3 5 1-2 3 1-2-1 1-5 2-1 4 5-1 3-2 1 1 0 0 3 3-2 2 3 0 2 4 1-1 3 1 1-2 2 0 2-4 3-3 1-1 1 1 2-1 0 2 1 2 2 2 0 1 2 2 1 1-2 4 0-1 4 3 0 0 2 3 4 0 3 2 3 0 2-1 0-1 1-3 0 1 2-3 1 2 2 0 1-2 2 0 1 4 3-4 4 1 1-2 0 1 6-1 4 7 1 0 1 1 0-1 1 0 7-1 3 0 3-2 2-6-5 0-2-1-1-1 0 0-2-4-1-1-3-1 0-2 7-3 6 2 5-1 3-5 2 0 3-4 4 0 2-2 1-5 0-2-1 0-4-5 0-3-5-1 0-5 2-1 2-1 0-2 1-1-1-1-7-3-2 0-4-3-2 0-1-1-3-4 2 0-2-3-2-1-2 1-2-1-1-3 0-3 2-1-1-4 0 z" class=""></path></a><a xlinkHref="/sejmsenat2019/pl/wyniki/senat/okr/29" data-id="29" kbw:hover="Okręg wyborczy nr 29 [Piotrków Trybunalski]"><path d="M 562 589 l 1-1 3-1 4-3 0-2 2-2-1-1 1-3-4-1 0-2-2-3-3 2 0-3-1 0 2-1 1-3-4-5-2 1-1 5 2 1-3-1-1 2-3-5-3 0-1-2-2 0 1-4-1-5 2-2-1 0 1-6 1-2-1 0 2-3 2 0 0 2 1 0 0-2 4 1 2 2 2-1 1 2 1 4 3-1 4-7-1 0 1-2 3-1 0-3 1-1 0-2 2-2-3-1 1-2 1 0 0-1-1 0 0-2 2-2-4-2-1-2-3 0-5-2-1-2 1-2-1-1-1-4 3 1 0-1 3-1 0-2-2 0 0-2 2-1 0-2 2 0 0-2 1-1 0-1 4-1 1 2 1 0 4-2-1-1 4-3-1-1 4 1-1-1 2-2-1-4-2 0-1-3 3-2-1-5-1 1 0-1 1-1 0-2 5-1 0 2 4 4 5-1 2 3 0 4-3 0 1 3-5 5 3 4 1 1 1-2 1 1-1 1 2 4 2 1-5 2 1 3 2 0 2-1 2 1 0 2-1 1 2 0 1-1 3 0 0-1 1 0 1-2-1 0 1-1 2 2 1 0 1-3 1 2 1-1 4 2 1 3-1 2 2 2 1-1 6 1 0 2 2 1 0 3 2 0-1 3 2 0 0 1-1 1-5 0 0 1 3 0-1 3 2 4-1 0 1 0-1 3 6 2 1 2 0 8-1 0-2 3-3 0-6-2-1 1-1-3-2 0-2-2-2 2-1-1-1 2-3 1-1 2 0 2-1 1 0 0 0 0 4 1 1 4-1 1 1 1 1 3 2 0 1 3-1 3-1 5 5 1 2-1 2 7-5 4 1 2-1 3-3 0 0-1-2 8-1 1 1 4-2 2 0 1-5 1 3 6-1 2 0 3-1 1-4-3-2 2-4 0-1-2-2 0 0 2 2 1-1 3 2 0-2 2-1 0-1 1-1 0 0-1-1 1-1 1 0-1-2-1 0 2-2 0-4 1-6-1-1 1 0-2-3 0-3 3 0-1 2-2 0-1-2-2 3-1-1-2 3 0 1-1 1 0 0-4-2-1 1-3-4-6-3 0 1-4-4 0-1 2-2-1-1-2-2 0-2-2-1 0 z" class=""></path></a><a xlinkHref="/sejmsenat2019/pl/wyniki/senat/okr/30" data-id="30" kbw:hover="Okręg wyborczy nr 30 [Kraków]"><path d="M 514 864 l 3-1 0-2 3-1 0-2 2-1-1-4-2-2-2 2-3-3-2 1-3-1-3-6 0-5-2-2-5-1 0 0-2-1-1 2-3 1-1-2 4-3 0-4-1-2 0-5-5 2-3 0-1-2-2 0 5-2 0-1-2 0 1-2 0 0-1-3 1 0 0-1 2-2 0-2 1 1 0-4 1 0 1-1 5-1 0 1 1-1 1 0-2-2 4-9 1 0-1 3 2-1 0-4 4 1 3-2 1 0 0-3 1 0 1-2-2 1-2-2 4-1 4-2 1 1 0-2 2-2 10 1-1 1 1 0 5 1 1 1-7 0 1 1-2 1 3 1 2 2-3 1 1 4-1 0 0 1 0 3 2 2 3 2 5 9-2 0-3 2-2 0 0 1 2 4 1 0 1-2 0 1 0 2 2 0 1 1 1-2 3 1-2 2 1 3 4 1 0-2 2 0 2 6 1 0 0 2 1-1 2 3 3 1 1 0 0 1 2-4 2-1 0-3 4 1-1 2 4 2 1 0 2-4 1 1 3-2 2 0 1 4 3-2 2 1 2-3 4 2 0 2-1 1 2 2 4-1 2 1-1 0 0 1 2 0 1 2 3 0 1 4 0 2-2 1-1 2 0 0-4 2-2-1-2 9-2 1-1 2-2 0-5-2-4 7 1 3-1 4-5 0 1 3-1 3-6-3-2 0-1 7-6 0-3 2-1-1-1 1 1 1-2 1-5-1-2 1-7-8-3 0 1 4-1 1-7 3-5-4 0-2 1-2-1-3 1-3-2-2-2-1-3 1 z"></path></a><a xlinkHref="/sejmsenat2019/pl/wyniki/senat/okr/31" data-id="31" kbw:hover="Okręg wyborczy nr 31 [Kraków]"><path d="M 598 800 l 3-5 3 1 3-1 0-3 1 0 0-4 5 0 1 2-2 1 1 3 3 0-2 1 1 2-1 2-4-1-2 3-2 0-1 2-1-1-2 3 z M 584 796 l-2 1-5 0-2 0-1-2-3 0 1 2-1 1-3-4-3 3 0 2-2 0-4 2 0 3 2 1-1 3 2 2-1 1-2-1-1 5 6 0 0 1 1 1 0 1 1 1 2-2 4 0 6 3 0 2 2 0 0 3-2 0-3 2-1-1-2 4-1 0-4-2 1-2-4-1 0 3-2 1-2 4-4-2-2-3-1 1 0-2-1 0-2-6-2 0 0 2-2-1-2-1-1-2 2-1-2-1 0-1-2 2-1-1-2 0 0-3-1 2-1 0-2-2 0-3 2 0 3-2 1 1 1-1-2-3 0-2-3-4-3-2-1-1-1-5 1 0-1-4 3-1-2-2-3-1 2-1-1-1 7 0-1-1-5-1-1 0 1-1-14-2-8-4 3-2 1 2 1-2-1 0 2-1 1-2 1-2 1 0-1-2 2-3 3 2 3-1 1-4-3-3 0-1 3 1 0-5 3-3 2 0 1 1 3 0-1 1 3-1 1 1 2-1 3 1 0-1 2-1-1-1 3-2 1-2 1 1 9 0 2 1 3 0 0-2 5-1-1-2 1-1 8-1-3-4 2-3 6 2 0 1 3-1 0-1 2 1 2 2-1 1 3 1 2-1 3 1 5-2 2 3 2-1 1 2 1 0 0 6 2 2 2 5 2 0-1 3 3 2-5 1 1 2-1 2 0 3-10 1-2 1 0 3-4 1-1 2 3 5 2 0-1 1-1 3 2 2-1 2 1 1-3 3 4 1 2 2 0 2-4 0-2 3-5-3-1 2-3-1 z" class=""></path></a><a xlinkHref="/sejmsenat2019/pl/wyniki/senat/okr/32" data-id="32" kbw:hover="Okręg wyborczy nr 32 [Kraków]"><path d="M 572 795 l 2 0 1 2 7 0 2-2 4 1 1-2 5 3 2-3 2 1 2-1 1 1-3 5 4 5-1 2-3-1-5 1-3 0-2-2-6 0-1 2-3-3-4 2 0-3 1-2-7 0-3-4 3-3 2 1 0 3 2-1-1-2 z"></path></a><a xlinkHref="/sejmsenat2019/pl/wyniki/senat/okr/33" data-id="33" kbw:hover="Okręg wyborczy nr 33 [Kraków]"><path d="M 567 800 l 1 1 7 0-1 2 0 3 4-2 3 3 1-2 6 0 2 2-2 0-2 3 0 2-2 2-4 0 1 2-1 2-2 0-1-1-2 2-5-2-4 2-1-1 0-1-1-1 0-1-6 0 0-3 1-2 1 1 2-1-2-2 1-3-2-1 0-3 6-3 z" class=""></path></a><a xlinkHref="/sejmsenat2019/pl/wyniki/senat/okr/34" data-id="34" kbw:hover="Okręg wyborczy nr 34 [Tarnów]"><path d="M 604 835 l-3 0-1-2-2 0 0-1 1 0-2-1-4 1-2-2 1-1 0-2-4-2-2 3-2-1-3 2-1-4 0-3-2 0 0-2-2 0 0-2 1-1 1 1 2 0 1-2-1-3 4 1 2-1 0-3 3-3 0 1 5-2 7 1 3-5 1 1 4-3 1-2 5 0-1-3 2-1-3 0-1-3 2-1-1-2-5 0 0 4-1 0 0 3-3 1-4-1 0-3-2-2-4-1 3-3-1-1 1-2-2-2 1-3 1 0 0-1-2 0-3-5 1-2 4-1 0-3 2-1 8 0-1-1 3 0 0-3 1 0 3 1 0 2 2 1-1 0 0 2 2 0 0 1-3 2 2 1 3 3 2 0-2 2 0 2 1 2 2-1 1 3 2-1 2 1 0-1 2 1-1-1 5 2 5-3 2 3 1-3 4 0 0 0 1-1 2 1 3-1 2 3-1 4 1 2 4 1 2 2-3 3 3 0 2 4 0 0 1 3-3 3 0 3 4 2-1 1 0 1-1 0 0-1-1-1-2 2 2 4-1 3 4 2-4 2 1 3-1 1 2 2-1 1-3-1-1 1 1 2-2 1 2 3-2 1 0 3-1 0 1 1 0 4-4 1-1-1-2 2-2-1 1 2-2 0 0 2-3 2-7-6-5 0 0 3-6 0-3 1-2 0-2-6-3-1 0 1-2 2-2-1-2-3-2 0 z" class=""></path></a><a xlinkHref="/sejmsenat2019/pl/wyniki/senat/okr/35" data-id="35" kbw:hover="Okręg wyborczy nr 35 [Tarnów]"><path d="M 649 778 l 5-3 0-3 4-3 3-3 4 2 2-3 2 0 2-2 4 1 2-3 11 0 2-4 3 0 1-2 2-1 2 1 2 3 1-3 2-1 2 7-4 2-1 3-3 4 4 3-4 0 3 5 0 5-2 5 3 0-3 2 5 2-2 1 2 3-3 1 2 2-2 2-2 2 5 4-1 2-3 2 0 4 3 8 8-1 3 1 0 5-2 2-4-1 0 6 3 2 5-1 5 5-3 3-4-2-1 2-2 0 0 3-8-1-3 2-4 0-4 4-3-3-4 1 0 3-2 0-2 0-1 0-1 3-3-2-1 1-3 0 0-1-1-2-1 0-1-2-1 0 0 1-1 0-5-4-4 0 0-2-3-1 0-3-1-2 1 0 0-3 2-1-2-3 2-1-1-2 1-1 3 1 1-2-2-1 1-1-1-3 4-2-4-2 1-3-2-4 2-2 1 1 0 1 1 0 0-1 1-2-4-1 0-3 3-3-1-3 0 0-2-4-3 0 3-3-2-2-4-1-1-2 1-4-2-2 z"></path></a><a xlinkHref="/sejmsenat2019/pl/wyniki/senat/okr/36" data-id="36" kbw:hover="Okręg wyborczy nr 36 [Nowy Sącz]"><path d="M 556 940 l 3-8 3-1-1-4-2 0 1-4-1-3 1-4-1-7-5 1-3 3-3-3-6-1 2-4-1-1 0-2-3 1-2-2-1 1-3-6-3-11 0-2 7-3-1-5 3 0 7 8 2-1 5 1 2-1-1-1 1-1 1 1 3-2 6 0 1-7 2 0 6 3 1-3-1-3 3 0 2 1 1-3-1-5 4-7 4 2 3 0 1-2 2 0 1-2-1-2 1-1 1-5 2 1 4-2 0 0 1-2 2-1 2 0 3 4 3-2-1-1 1 0 3 1 2 6 2 0 3-1 3 0 1 0 2 0 0 0 0 0 0-3 5 0 7 5 1 2 0 1-2 0-1 2-2 1-2 2 7 4-4 6 3 1 0 1-2 0-1 2-3-2 0 3 2 2 0 3 1 1-2 2-5 0 1-1-1-1-4 0-2-3-5-2-1 1 0 5-1 0 3 4-3 4 3 1 2 2 4 0 0 3 2 1 1 4 7-1 4 1 1 2 2 1 0 3 1 1-1 5-3 2-2 0-5-2 0-2-3-2-4 0 1 1-2-1 0 3-1-1-1 2-2 0-2-2-1 1-4-1-1 3 1-1 1 0 0 0-2 8-2-1-2 0-1 1-1-1-3 1-1-1-3 1-1 3-1 0 0 2-1 2-1-3-1 1-1 6-3 4-1 12-8-4-1-3-3-2-5 0-3 1 0 3-4 2-3 1-3-2-3 1 z"></path></a><a xlinkHref="/sejmsenat2019/pl/wyniki/senat/okr/37" data-id="37" kbw:hover="Okręg wyborczy nr 37 [Nowy Sącz]"><path d="M 618 880 l 1 0 0-5 1-1 5 2 2 3 4 0 1 1-1 1 6-1 1-5-3-2 0-3 3 2 1-2 2 0 0-1-3-1 4-6-7-4 2-2 2-1 1-2 2 0-1-2 3-2 1-4 2 1 1-2 1 0 1 1 5-1 2 1 0 2 4 0 5 4 2-1 1 2 1 0 1 2 0 0 2 2-1-1 2 0 1-1 3 2 2-3 2 0 2 0 0-3 4-1 3 3 4-4 4 0 2-2 6 1 3 0 1 4 3-1 4 3-1 2 2 1-1 3 3 1-1 6 3 4-4 6 6 4-2 4 2 1 1 4 4 3-4 1 3 3-2 2 1 4-3 0-3-3-4 1-3-2-1 2-4 2 0 3-2 2-3 0-3-3-3-2-1 2-2-1-5 2 1 2 5 5-1 1-2 2-1-1-3 0-5 6 0 3-3 0-4 2-2-4-3 1 1-2-2-3-1 0-2 2-3-2-1 1 0-2 1 0 0-1-3 0 0-2-2 0 0-1-2-1 1-2-1-1 0-2-6 0-2 3-3 0-4-4 0-3-2-1-1-2-4-1-7 1-1-4-2-1 0-3-4 0-2-2-3-1 3-4 z"></path></a><a xlinkHref="/sejmsenat2019/pl/wyniki/senat/okr/38" data-id="38" kbw:hover="Okręg wyborczy nr 38 [Płock]"><path d="M 595 487 l 5-5-1-3 3 0 0-4-2-3-5 1-4-4 0-2-4 1-3-1-1-3-2-3 2-7-5-2 1-2-8-2-1-2-2-1 0-2-2 1-1-2-2 0-2 3 1 0-3 3-3-2-2 1 0 1-3 2-3 0-3-3-1 3-4 1-3-1 1-2-2 0 1-2-7-1-1-2-2 0-3-2 1-3-4-2-3 2-2 0 0-1-5 0-4-1 1-3-4-1 2-1-3-4 2-2 0-1-4-2 0-1 2-1 4 0 2-5 2 0 0-4 3-1-2-2-4 0-1-2 1 0 0 0 2 1 1-1-2-5 5-1 1-3 2-1 0-2-5-3 0-1 3-1 1-5 4 0-2-1 1-4 0-3 2-1 3 2 0 1 3 1-2-2-1-3 3-2-3 0 1-3-1-2-3-1 0-3-4-2 0-3 0-1 2 0 3-2-1-1 1-1 4 1-6-8 2-2-2-1-1-3 8 1 1-2 4-1 1-1-3-4 9 3 2 2 3-2 0-1 7 3 2 2 3 2 0 2 2 0 2 2 5 0 5 3-1 4 1 3-1 2 4 1 0 3-3-1 0 6 6 0 2 2 2 0-1 4-1 2 2 2-2 2 3 0 2 5 1 0 2-2 3 1-1 3 2 1-2 3 0 4 3 4-1 2 2 1 2 2-2 6 2-1 2 1 0 1 1 0 1 7-2 2 2 1-1 4 2 5 12-1 2 2 1-1 0 2 2 0 0 7-3 1-1 1 0 1 3 1 0 1-3-1 0 2-3 0 0 1-2 0-2 1 3 0 0 4 1 0-2 2 4 1 1 1 1-2 2 0 0 4 2 0 0-3 1-1 3 1 2 0 0 1-1 1 1 1 0 7-3-2-4-1 0 0-2 5 2 0-1 4 3 3-1 2 3 1-1 1 1 1-1 0 3 5-1 2 3 2 3-3 10 0 0 1-1 1-1 0 1 2 0 6 0 1-1 0-1 2 2 0 0 2 2 1 0 2 4 3-1 2-1 0 0 8-2 2-4-1 0-3-2-1 0-2-6-1-1 1-2-2 1-2-1-3-4-2-1 1-1-2-1 3-1 0-2-2-1 1 1 0-1 2-1 0 0 1-3 0-1 1-2 0 1-1 0-2-2-1-2 1-2 0-1-3 5-3-2 0-2-4 1-1-1-1-1 2-1-1 z"></path></a><a xlinkHref="/sejmsenat2019/pl/wyniki/senat/okr/39" data-id="39" kbw:hover="Okręg wyborczy nr 39 [Płock]"><path d="M 570 364 l 1-3 2 1 0-3-4-1 1-3-1-2 1-3-1-2-4-2-5 0-2-2-3 0 1-2-3-2-2-2-7-3-1 2-1 0-2-4 3-5-3-4-1 1-1-5 2 0-2-1-1-6 3 1 2-1 0-2 2 0 1-2 2-1 4-2 6 2 0-4-1-1 6-7 2 1-1 5 7 5 4-1 1 1 1-2 4 0 0-1 3-1 3 5 3-3 9 3 9-2 1-1-4-1 5-3 4-7 4-4 1 2 3 0 2 2 1-2 3 1 1-2 1 1 1 0 1-1 0-2 5 0 3-6 0-2 2 0 0-2 3 1 0-2 8 2 2 2 2-5 3 2 1-2 1 1 1-1-2-3 2-3 3 1 3-2 4 2 3 4 2 1 0 1 6 1 4 4 1 0-3 4-1 0 0 1 1 1-1 1 1 0 0 3 1 1-1 1 1 1-2 2 3 1-4 1 2 2-1 0 4 2 2 3-3 3-3-4-2 2-1-2 1 4-1-1-3 2 0 4-3 1-3 4-2 0 1 2-1 5 1 1 0 3 3 1 0 5-6 1 4 7-1 0-3 3-3-1 0 2-3-1 0-2-1 3-1 0 0 2-3-1 2 4 0 2 3 0 3 3 0 3-3 0 2 4-1 0-1 2-3-2-2 2-2 0 0 1-1-2-2 2-1 0 2 3-3-1 0 4-5 2 0 3-3 1 1 3-1 2 1 2 0 4 1-1 1 2-1 2-6 0 0 2-2 0-3 2 2 6-4 4 0 7-4-1-5 4 0 3 1 1-8 6-2 1-6-2-8 1-2-5 1-4-2-1 2-2-1-7-1 0 0-1-2-1-2 1 2-6-2-2-2-1 1-2-3-4 0-4 2-3-2-1 1-3-3-1-2 2-1 0-2-5-3 0 2-2-2-2 1-2 1-4-2 0-2-2-5 1 z" class=""></path></a><a xlinkHref="/sejmsenat2019/pl/wyniki/senat/okr/40" data-id="40" kbw:hover="Okręg wyborczy nr 40 [Warszawa]"><path d="M 605 446 l 2-1 2 0 0-1 3 0 0-2 3 1 0-1-3-1 1-2 3-1 0-7-3 0 1-2 9-6-1-1 0-3 5-4 4 1 0-7 4-4-2-6 3-2 2 0 0-2 6 0 1-2-1-2 4-4 3-1 3 3 4-2 0 4 5 4 0 3 2 2 4 0 1 3 3 0 0-1 4 1 0-2 4 0 1-2 3-1-1 3 0 3 2 0 1 0-1 2 2 1 2-3 12-1 1 5 4 0 0 2 3 1 0 2 4 1 2-2 4-1 0 2 2-3 2 0 1-5 4 1 0-2-2 0-1-2 1-3 1-1 3 1 4 6 6 0 4 5 0 4-1-1-2 1-4-2 4 5 2 5-2 2 0 2-2-2 0 3-1 0-2-1-2 2-1-1 1 3-2 0 1 2-5-2 2 2-9 3-1 3 1 3-4-2-6 1 3 1-2 1 6 2-2 2-14-2-1 0 1 2-12 2 1-2-2-1 0-3-2 2-4 1-3-4 0-3 1-1-2-7-4 1-2 1-1-1-3 1 0-2-2 1-3 2-1-3 0 3 2 3-1 2-4 1 0 8-1 3 3 1 0 2-2 0 0 3-2 1 0 1-3 1-5 1 0-2-2 0-1 2-4 0 0 1-2-1-3 2-1-1-1 3-3 1-5-1-1-4-2 0 0-2-3 3 0-5-1-1 1-1 0-1-2 0-3-1-1 1 0 3-2 0 0-4-2 0-1 2-1-1-4-1 2-2-1 0 0-4 z" class=""></path></a><a xlinkHref="/sejmsenat2019/pl/wyniki/senat/okr/41" data-id="41" kbw:hover="Okręg wyborczy nr 41 [Warszawa]"><path d="M 643 498 l 0 2-4 0 0 1 3 1-1 1-3-2 0-2-2-1 0-2-2 0 1-2 1 0 0-1 0-6-1-2 1 0 1-1 0-1-10 0-3 3-3-2 1-2-3-5 1 0-1-1 1-1-3-1 1-2-3-3 1-4-2 0 2-5 4 1 3 2 0-3 3-2 0 2 2 0 1 4 6 1 2-1 1-3 1 1 3-2 2 1 0-1 4 0 1-2 2 0 0 2 8-2 0 2 2-1 0 2 4-1 1 3 6 4 1 6 5-1 0-1 4 3 5-5 0 0 2-3 8-3 2 2 1-1-1 0 2-3-2-1 1-1-3-2 3-2-2-2 4 0 0-1 1 3 3-1 2 2 0-2 3 4 2 0-2 4 2 1 3-2 2 5 1-1 3 1-1 3 5 0-1 1 2 2-1 0-1 1 2 2 1-1 2 3 2 0 0 6-5 2-1 3-1 1 1 2-5 1 1 3 1 1-4 3 2 1 1 0 0 1 2 1 0 2-4-2-3 2-1 1-1-1-6 2-3-2-2 2 2 2-2 2-5-5-1 1-1 0 1 1-1-1-2-1-1 1 1-3-1 0-1-2-2 0-1-1-3 0-4-1-4 2-2-1 0 1-5 4-2-1 1-1-1 0 1-1-2-1 0 1-2-2-2 1 0 2-1-2-5 0-1-2-2 0-1-2-4 2-1-1-4 1 z" class=""></path></a><a xlinkHref="/sejmsenat2019/pl/wyniki/senat/okr/42" data-id="42" kbw:hover="Okręg wyborczy nr 42 [Warszawa]"><path d="M 698 452 l 2 3-3 2-2 0-1-5-3-2-4 0-4 5-3-1-6-6-1-6 8-2 3 5 4-1 2-2 0 3 2 1-1 2 7-1 0 2-1 1 0 1 2 0 z" class=""></path></a><a xlinkHref="/sejmsenat2019/pl/wyniki/senat/okr/43" data-id="43" kbw:hover="Okręg wyborczy nr 43 [Warszawa]"><path d="M 694 454 l 1 3 2 0 3 2-1 1 2 1-2 3 1 0-1 1-2-2-8 3-2 3 0 0-5 5-4-3 0 1-5 1-1-17 4-1 1 1 3-2 3 1 4-5 4 0 3 2 z" class=""></path></a><a xlinkHref="/sejmsenat2019/pl/wyniki/senat/okr/44" data-id="44" kbw:hover="Okręg wyborczy nr 44 [Warszawa]"><path d="M 677 451 l 3 4-3 1-3 0-3-8-3 1 1-1-1-1-7-2 0-6 4-1 1-2-2-3 3-1-1-1 1 0 3-1 0 2 3-1 1 1 2-1 4-1 2 7-1 1 0 2-6 2-2 1 1 5 z" class=""></path></a><a xlinkHref="/sejmsenat2019/pl/wyniki/senat/okr/45" data-id="45" kbw:hover="Okręg wyborczy nr 45 [Warszawa]"><path d="M 672 450 l 2 6-2 0 0 3 0 8-6-4-1-3-4 1-2-4 2-1 0-3 2 0 0-2-3-1 2-5 6 2 1 1-1 1 3-1 z" class=""></path></a><a xlinkHref="/sejmsenat2019/pl/wyniki/senat/okr/46" data-id="46" kbw:hover="Okręg wyborczy nr 46 [Siedlce]"><path d="M 684 401 l 1-3-3 1-1 2-4 0 0 2-4-1 0 1-3 0-1-3-4 0-2-2 0-3-5-4 0-4-4 2-3-3-3 1-1 2-2 0 0 2-2 1 0-4-1-2 1-2-1-3 3-1 0-3 5-2 0-4 3 1-2-2 0-1 1 0 2-2 1 2 0-1 2 0 2-2 3 2 1-2 1 0-2-4 3 0 0-3-3-3-3 0 0-2-2-4 3 1 0-2 1 0 1-3 0 2 3 1 0-2 3 1 3-3 1 0-4-7 6-1 0-5-3-1 0-3-1-1 1-5-1-2 2 0 3-4 3-1 0-4 3-2 1 1-1-4 1 2 2-2 3 4 3-3-2-3-4-2 1 0-2-2 4-1-3-1 2-2-1-1 1-1-1-1 0-3-1 0 1-1-1-1 0-1 1 0 3-4-1 0-4-4-6-1 0-1-3-3 6-3 5-6 7-5 3-1 1 1 0 2 1-3 5 2 3-3 3 1 2-1 0-1 1 0-2-2 2 0-2-2 9-3 4-1 5 0-2 1 1 0 0 2 1 0 0 0-2 0 1 1 0 4 2 1 0 3 1 0 2 1 1 4-1 1 3 0-2 3 1 2-1 0 0 1 3-1 0 2 5 2-3 1-2-1 0 1-3-2 1 3-2 3 2 1-1 2-3 0 2 3 2 0 2 5 1 0-2 1 2 5 2 2-1 4 4 5 7-2 3 6 2 1 1 2 3 0 2-3 2 1-2 4 2 0 0 1-4-1 0 3-2 2 4 4 9 3-2 2 2 0 1 1 0 1 2 1-4 3 0 1 2 1-1 5 3-2 1 1-1 3 1 2 4 1 2-3 2 3 5-3 4 1-1-5 5 1 2-2 2 3-2 3 3-1 0 3-3 1 0-1-1-1 0 1-2 1 1 0 3 8 0 1 2-1 1 1-1 2 0 1 1 0 0 1 2 0 1 1 1-2-1-3 4-1 0-2 7 0 1 3-2 12 2 7 2 1-2 1 0 3-4 2-4-2 0-2-3-3-7-2-6-4-5 1 0-2-11 5 1 7-2 2-3 0 0-4-6 0-2 1 1-2-2 0 1-5-3-3-1 2-2-1-4 3-1 2-2-1-2 3-4 0 0 3-1 1-1-1-3 2 1 2-3 0 2 1-2 2-1-2-1 0-1-1 0 3-6 0 1 1 1 0 0 4 2 1 0 2-4 0 0 5 2 0 0 2-4-1-1 5-2 0-2 3 0-2-4 1-2 2-4-1 0-2-3-1 0-2-4 0-1-5-12 1-2 3-2-1 1-2-1 0-2 0 z" class=""></path></a><a xlinkHref="/sejmsenat2019/pl/wyniki/senat/okr/47" data-id="47" kbw:hover="Okręg wyborczy nr 47 [Siedlce]"><path d="M 703 509 l 1 1 2-2-2-2 2-2 3 2 6-2 1 1 1-1 3-2 4 2 0-2-2-1 0-1-1 0-2-1 0 0 4-3-1-1-1-3 5-1-1-2 1-1 1-3 5-2 0-6-2 0-2-3-1 1-2-2 1-1 1 0-2-2 1-1-5 0 1-3-3-1-1 1-2-5-3 2-2-1 2-4-2 0-3-4 0 2-2-2-3 1-1-3 0 1-4 0 1-2-2 0 0-1 1-1 0-2 5-1-1-2 1 0 14 2 2-2-6-2 2-1-3-1 6-1 4 2-1-3 1-3 9-3-1-1 0 0-1-1 0 0 5 2-1-2 2 0-1-3 1 1 2-2 2 1 1 0-1-2 1-1 2 2 0-2 2-2-2-5-4-5 4 2 2-1 1 1 0-4-3-5-3 0-1 1-4-2-3-4-2-8-2 0 2-2 4 1 0-3 1 1 1 0 1 2 2-2-2-1 3 0-1-2 3-2 1 1 1-1 0-3 4 0 2-3 2 1 3-4 2-1 2 1 1-2 3 3-1 5 2 0-1 2 2-1 6 0 0 4-3 2 2 0-1 3 2 0 1 3 3 0 0 1 2 0-2 3 1 1 4 1 1 4 4 1-1 2 1 0 0 2 2-1 3 3-3 0 1 3-7 6-1 3 4 2 2 2-3 4-4 1 3 3-2 3-3 1 1 6 3 2 0 3-3-1 0 3-4-1 0 1-4-1-4 1 2 0-1 3-3 2 1 1-1 3 1 0 1 2 1-1 2 7 3 3-3 2-2 4-5 3 2 2-1 2 1 4-2 7 2 2 0 3 2 1 1 3-2 0 0 5-4 1-1 1 2 1 0 1 0 0 1-1 6 0 3 6-3 3-3 0 0 2-3 0-3 3 2 2 2 1 1 3 2 1-2 2 0 3-2-1 0 2-1-1-2 5-4-1-1 2-1-1-2 6-2-1-1-3 0 0-7-4-1 1 0 5-2 1-2 0-6-7-7 0-3-6 0-3-3-4 2-6-6-6-8-4 z" class=""></path></a><a xlinkHref="/sejmsenat2019/pl/wyniki/senat/okr/48" data-id="48" kbw:hover="Okręg wyborczy nr 48 [Siedlce]"><path d="M 761 481 l 5-3 2-4 3-2-3-3-2-7-1 1-1-2-1 0 1-3-1-1 3-2 1-4 6 1 0-1 4 1 0-3 3 1 0-3-3-2-1-6 3-1 2-3-3-3 4-1 3-4-2-2-4-2 1-3 7-6-1-3 3 0-3-3-2 1 0-2-1 0 1-2-4-1-1-4-4-1-1-1 2-3-2 0 0-1-3 0-1-3-2 0 1-3-2 0 3-2 3 0 2-2-1-7 5-3 6-2 0 2 5-1 6 4 5 0 3 2 2 3 0 2 9 6 1 3 6 7-1 6 2 4 2-1-1 6 3 4 1 0 0 1 3-1 1 2 1-1 2 1 1-1 1 1 4-1 2 1 0 3 1-3 2 0 2 2 2-1 5 2 8-2 4 1 3 5 1-1 4 2 1 3 0 3 2 1 3-3 3 1-5 9-1 0-3 3 1 6 3 2-4-1-6 1 1 2-4 4 3 3-2 2-2-1 0 1-2-1-1 2-1 1 3 3-1 2-4 0 0-1-1 1-2-3-5 3-2-4-6-2 0-2-5 5 2 1 0 6-1 1-2 1-1 2-2-3-5 0-1-1-2 0-1-3-2 0-6 9-5 0-4 3-3-2 1-4-3 0-1 3-3 2-10-3-1 4-3 0-3 0-3-2-2 0-2 1-1 0-3 4-4 0-1 2-3 1 0-8 z"></path></a><a xlinkHref="/sejmsenat2019/pl/wyniki/senat/okr/49" data-id="49" kbw:hover="Okręg wyborczy nr 49 [Radom]"><path d="M 639 612 l 1 1 0 1-1 0 z M 618 555 l 1-1-1-4-4-1 1-1 0-2 1-2 4-2 0-1 1 1 2-2 2 2 2 0 1 3 1-1 6 2 3 0 0-2 3-1 1-8-2-2-6-2 1-3-1 0 1 0-2-4 1-3-3 0 0-1 6-1 0-1-2 0 0-2 1-1 2 1 2-2 0-8 1 0 1-2-1-1 1 0 0-1-3-1 0-1 4 0 0-2 3 1 4-1 0 1 1 0 4-2 1 2 2 0 1 2 5 0 1 2 0-2 2-1 2 2 0-1 2 1-1 1 1 0-1 1 2 1 5-4 0-1 2 1 4-2 4 1 3 0 1 1 2 0 1 2 1 0-1 3 1-1 2 1 1 1-1-1 1 0 1-1 6 8 8 4 5 5 1 3-2 4 3 4 0 3 3 6 7 0 5 6 7 4 1 3 9 3 3-2 4 1 4 9-1 4 3 2-2 6-2 3 0-2-2 0-3 1-3-1-1-1 1-1-2-2 1-1-3-1 3-1-2-2 1-2-4 1 0 3-10 1 1 1 0 2-5 0-1 1-1-2 3-10-1-3-1 1-1-2-2 0 0-2-5 4-1-1-2 5-2-4-11-2-1-1-4-1-3-3-7-1-3 1 0 2-2-2-3 2 1 1-2 1 0 3-5 2 1 1 0 1-4 0 1 3-2 0 1 1 0 1-1-2-5 0 1-4-5 1 0 1-5 0 0-1-5 1-1 6 1 3-3 0 0 1 2 1-2 5 3 0 3 1 0-1 2 0 1-1 4 2 0 1-4 3 1 1-2 3 0 1 2-1 0 3-4 4-4 0-1 1-1 3 2-1 1 2-1 0-2 4-1-1-2 2-2-2-2 1-2 2-1 0 0-2-2 0 0 2-2 0 0 2-4-1-1 3-2 0-1-3 0-1-1-1 1-2 0-1-4-1 1-1-1-1-1-1 2-1 1-1-1-2-8-2-1-3 1-1 2-8 0 1 3 0 1-3-1-2 5-4-2-7-2 1-4 0 0-6 1-3-1-3-2 0-1-3 z"></path></a><a xlinkHref="/sejmsenat2019/pl/wyniki/senat/okr/50" data-id="50" kbw:hover="Okręg wyborczy nr 50 [Radom]"><path d="M 761 606 l-2 1 2 4-2 2-2 5 1 1 0 5 1 2-1 3 2 7-2 1 1 1-2 2 1 1-3 1-2-1-2 1-4-6-2 1-1-1-3 1 2 1-1 1-1-1-2 2-1-1-4 2-1-2-3 1 1 1-2 1 2 1-3 0 0 1 2 0-2 1 1 1-3 1-3-2-6-2 1-3-3-1 0-3-21 1 0-7 1 0-2 0-2-2-4-3 3-3-1-4-4-2 1 5-2 4-3 0 0 1-3 1 0-2-8-6-4 7-3-3-3 0-1 2 1 1-1 2-2-1-1 1-1-1 0-1-5-2-2 3-2 0 0-3 2-2 0-2-1 0 0-2-6-2-2-2 0-1 0-2 2 0 0-2 2 0 0 2 1 0 2-2 2-1 2 2 2-2 1 1 2-4 1 0-1-2-2 1 1-3 1-1 4 0 4-4 0-3-2 1 0-1 2-3-1-1 4-3 0-1-4-2-1 1-2 0 0 1-3-1-3 0 2-5-2-1 0-1 3 0-1-3 1-5 5-2 0 1 5 0 0-1 5-1-1 4 5 0 1 2 0 0-1-2 2 0-1-3 4 0 0-1-1-1 5-2 0-3 2-1-1-1 3-2 2 2 0-2 3-1 7 1 3 3 4 1 3 2 9 1 2 4 2-5 1 1 5-4 0 2 2 0 1 2 1-1 1 3-3 10 1 2 1-1 5 0 0-2-1-1 10-1 0-3 4-1-1 2 2 2-3 1 0 0 3 1-1 1 2 2-1 1 1 1 3 1-2 3 1 2 2-1 2 4 3-1 2 4-1 0-2 2 1 2-2 5-3 1 0 1 3-1 1 2 1-2 3 3 z M 639 612 l 0 2 1 0 0-1 z"></path></a><a xlinkHref="/sejmsenat2019/pl/wyniki/senat/okr/51" data-id="51" kbw:hover="Okręg wyborczy nr 51 [Opole]"><path d="M 349 724 l 5 4-6 7 1 5-2 4 1 4 2-3 2 1 0 2 2 0 0-3 1 0 2 1-2 4 3-3 3 1-2 2 2 1 0 1 4 2-1 3 1-2 2 2 2-1 5 1 1-1 1 2 0 4-7 1-1-2-1 2-4 2 1 2 2 0-2 4-2-4-3 2-5-1 2-1-2-4 0-2-3 2 1 1-2 1 0-1-3 1-2-1-1-2-4-1 0 4-7 5-1 0-2-2-3 2-7-1-4 0 0 2-2 1-1-4-2 1-3-2-1 1 0 2-2 0-1-3 1-1 1-3-2-1 1-2-7 1-3-2-5-5 1-4-2-1-5 2-1-2-2 0 0-2-6-1-5-3-3 1-6-5 3-2 2-4 1 0 1 2 4-1 0 3 3 0 2-2-1-4 2-2-1-4 3-4 3-7 7-1 5 1 1-1-2-4 1-3 0-3 3-2-4-2 0-2 3 0 1-4 1-1 2 2 1-1-1-1 1-1-3-3-2 0 4-3 6 1 0-1 0-2-3-3 3-1-2-3 6-2 0-2 1 0 0-2-4-2 2-4 3 1 1 1 2 0 1-4-1-5 3-2 1 1 3 0 1 1 1-2-3-1 5-1 0-1-2-2 2-5-2-3 7-3-2-2 1-3 0-3-3-2 0-2 5-2 1 0 1-3 1 2 5 2 1-1 2 1 1-2 3 0 1-2 3 1 2-2 1 1 2-1 1 1 1 3-2 5-2 0 1 3 6 2 1 1 3-2 2 1 10-3 4-2 0-4 3 2 2-2 4-1 0 1 2 2 8 0 5 4 0 5 4 1-1 6-5 5 0 2 2 0 0-1 4 2 1 6 2 3-2 2-3 0 1 2-1 3 0 5 2 4-3 2 0 1 2 3-2 2-4-3 1 2-2-3-5 5-3-1 1-4-2-2-7 2 1 1-3 1-1-7 2-6 1-2-3 0-3-6-5-3-4-1-2 10-5-1-1 4 0 0-1 2 1 2 1 0 0 4-3 0-3-4-6-3 3 0-1-3-3-2-1 1-2-2-2 1-3-2-1 1 1 2-4 0-1 3-1 1 0 3-3-1-1 1 1 1-2 0 2 1-1 2 1 2 5 0 0 2 3 2 2 0 5 3-1 0 0 2-2 1 1 3-1 1 1 2-3 0-1 1-3-2-2 5 1 2-2 0-4-4 1-2-3 1-5-1 0-2-2 1-4 13 0 1-2 4 1 2 7 3 0-1 2 1 1-2 1 0 1 3 0 1 2 0-1 2 1 1 2-1 0-1 3 1 0 2 3-2 4-2 z"></path></a><a xlinkHref="/sejmsenat2019/pl/wyniki/senat/okr/52" data-id="52" kbw:hover="Okręg wyborczy nr 52 [Opole]"><path d="M 375 660 l 5 2 3 6 3 0-1 2-2 6 1 7 3-1-1-1 7-2 2 2-1 4 3 1 0 2 2 0 0 3 1-1 0 1-3 4 5 3 2-1 3 4 3-1-5 6-3 0 0 5-4 0-3-2-4 7-2 0 0 3-3 0 0 5-1 1-2-1-4 1-2-2-3 3-1-1-1 1-4-1-1 1-4 0-3 7-15-12-4 2-3 2 0-2-3-1-1 2-1-1 0-2-2 0 0-1-1-3-1 0-1 2-2-1 0 1-7-3-1-3 2-3 0-1 4-13 2-1 0 2 5 1 3-1-1 2 4 4 2 0-1-2 2-5 3 2 1-1 3 0-1-2 1-1-1-3 2-1 0-2 1 0-5-3-2 0-3-2 0-2-5 0-1-2 1-2-2-1 2 0-1-1 1-1 3 1 0-3 1-1 0-1 1-2 4 0-1-2 4 1 2-1 2 2 1-1 3 2 1 3-2 0 0 0-1 0 0 0 0 0 6 3 3 4 3 0 0-4-1 0-1-2 2-6 5 1 2-10 4 1 z"></path></a><a xlinkHref="/sejmsenat2019/pl/wyniki/senat/okr/53" data-id="53" kbw:hover="Okręg wyborczy nr 53 [Opole]"><path d="M 330 787 l 1-1 11-2 1-4 4 0 1-5-4-3 0-3 3-4 5-1-1-1 4-2-1 1 2 5-2 1 5 1 3-2 2 4 2-4-2 0-1-2 2-1 2-1 1-2 1 2 7-1 0-4 1 1-2-3-1 1-1-1-6 1-2-2-1 2 1-3-4-2 0-1-2-1 2-2 0 0-3-1-3 3 2-4-2-1-1 0 0 3-2 0-2-3-2 3-1-4 2-4-1-5 6-7 6 5 3-7 4 0 1-1 4 1 1-1 1 1 3-3 2 2 4-1 2 1 1-1 0-5 3 0 0-3 2 0 4-7 3 2 4 0 0-5 3 0 4-4-1-1 2-1-4 1-2-4-2 1-5-3 3-4 0-1-1 1 0-3-2-1 5-6 2 3-1-2 4 3 2-2-2-3 0-1 3-2-2-4 0-5 1-3-1-2 3 0 2-2-2-3-1-6-4-2 0 1-2 0 0-2 5-6 0-2 1-3-4-1 0-5 6-1 1 1 4 1 0 1 3 1 1-1 2 4 1 1 3-3 0-5 3 0 1 2 2 7 3 0 3 3 3 1 3 7-4 2 1 2-1 3-4 1-1 2 2 4 2 0 1 2-4 10-3 0-3 3 0 4-6 1 2 1 0 3 1 0 2 3 3 1-1 2-2-2-1 4-3 0-1 2-3 2 3 2-2 1 0 1 2 1-1 1 3 1-2 3 1 0-1 3 1-1 7 3 2 1-1 5 1 1 1 0-1 3-3 0-2 1-8-2-4 1-1 3 2 5 2 0 0 3 2 2-1 2-3-1 0-2-1-1-3 1-3-1 1 8-3 1 0 1 4 5-3 1 2 2-2-1 0 2-2 1 4 3 1 2 0 0 1 1-2 1 2 4-2 2 4 1-1 3-7-1 1 1-5 1-1 2-4 2-2-1-1 2 0 2 1 1-7 1 0 1-2-1-2 1-1-1-2 3-1-2-3 2-2-1 1 1-1 1 1 1-2 3 2 1-1 2 2 1-4 7-3 2-1 3 1 1 2-1 2 0 0 5-4-1-1-1-2 2-3 0-4 5-3-1-2 1-4-4 1-1-1-1-5-2-1-4-1-2-1-3-2-2 0-1-3-4-2 0 0 3-3-2-1-3-2-1 z"></path></a><a xlinkHref="/sejmsenat2019/pl/wyniki/senat/okr/54" data-id="54" kbw:hover="Okręg wyborczy nr 54 [Rzeszów]"><path d="M 731 730 l 7-4 5 0 5-8 1-6 5-6 2 0 1-2 3 1 0-2 2-3-1 0 3-2 1-2 1-6 0-3 2-7 2 1-1 2 8 1 2-3 2 1 6-6 11 3 0 4 3 1 2 2-3 8 0 3-3 3 9 1 3 6 4 0 1 1 5 0 7 5 5-2 0 1 3 1-1 0 2-1 0 1 2-1 1 2 1 3-2 1 0 1-1 0 2 0 0 4 1 1 3 0 1 1-3 3-4 0 1 1 1 0 0 0 4-1 2 0 0 1-3 2 1 1-1-1-2 3-1-3-2 0 0 2-4-1 0-1-2 1 1 4-1 1 0 2-3-1-1 5 3-1 0 1 2 1 0 3 3 2 3 0 0 2 2-2 4-1 3 1 4-1 6 0 0 2-9 3 1 2 3 1 0 2-1 0 1 2-2 2-3-1-1 2 0 2 3 5-2 0-1-2-2 2 1 2-1 1-2 0 0 2 2 2-3 3 0 2 2 1-2 1 1 1-4 0-4 2-3-2-1 1-4-4 1-1-9-7-2 0-2-4-1 0-2-2 1-3-1 0-3-2-1 0 1-4-1-1 0-1-2-1 1-5-3 1-2-1-3-1-1-2-2 0 0 2 1 1-2 3-8 2 1 3-2 1-2-4 2-1-1-2 1-1 0 0-1-3 2 1-4-2 1-2-3 0 0-2-1 0-1-2-5 4-3-12 3-2-2-1-1 2-8 4 2 3 1 4-4 3-8-7-1-3-3 6-1 4-4 1-5-2 1-6-3-2 0-3-1 1-2-2 0-2-2 0 z"></path></a><a xlinkHref="/sejmsenat2019/pl/wyniki/senat/okr/55" data-id="55" kbw:hover="Okręg wyborczy nr 55 [Rzeszów]"><path d="M 761 814 l 0 0 2 0 4 0 5 0 2 3 2-1 3 1-2 4 6 8 7 4-1 5 1 1-6-2-1 2-2 4-4 1-6-2-2 2-4-3-3 2-9-8-4 3 2 2-2 2-6 2-2-6-7-2-4 0 0 2-4 0-1-3 1-1-1 1-1-2-2-2-2 1 1 2-1 3-4-1 0-2-2 0 1 2-5 0-3-1 0-5 6-2 0-5-3-1-8 1-2-4-1-7 4-5-5-4 2-2 2-2-2-2 3-1-2-3 2-1-5-2 3-2-3 0 2-5 0-5-3-5 4 0-4-3 3-4 1-3 4-2-2-7 2-3 2-1 1-2 2 0 0-3 3-2 6-3 4 0 4-3 1-2-1-3 1-1 3-1 0 2 2 0 0 2 2 2 1-1 0 3 3 2-1 6 4 2 5-1 1-4 3-6 1 3 8 7 4-3-1-4-2-3 8-4 1-2 2 2-3 1 3 12 4-4 2 2 1 0 0 2 3 0-1 2 2 1 1 3-1 1 1 2-2 1 0 2 2 2 3-2-1 2 8-2 0 4 1 1 0 1-3 2 0 2-2 0 1 3-5 0-3-3-3 1-3 2 2 5-2 3-4 1-1 4-6 1-1 5-2 1 2 2 2 0 1 2-2 2-1 2 1 3 2 2-2 5-1 1-1 2 z"></path></a><a xlinkHref="/sejmsenat2019/pl/wyniki/senat/okr/56" data-id="56" kbw:hover="Okręg wyborczy nr 56 [Rzeszów]"><path d="M 761 814 l 3-2 1-2 1-1 2-5-2-2-1-3 1-2 2-2-1-2-2 0-2-2 2-1 1-5 6-1 1-4 4-1 2-3-2-5 1-1 5-2 3 3 5 0-1-3 2 0 0-2 3-2 0-1-1-1 0-4-8 2 1-2-1 1-1-3 8-2 2-3-1-1 0-2 2 0 1 2 3 1 2 1 3-1-1 5 2 1 0 1 1 1-1 4 1 0 3 2 1 0-1 2 0 0 0 1-1 0 4 2 1 3 3 1 9 7-1 1 4 4 0-1 2 2 1-1 1 1 0 2-2-1-2 2 1 2-4-1 0 3 0 4-3 0 0 3-1-3 2 5-1 2-4 3 0 3 1 0-1 3 1 2-2-1 1 3-2 0-1 1-1-1-3 0 0 3 1 1 0 1 3 5 4 0 0 7 2 2-3 2 5 5-1 3-2 0-2 1-5-4-2 1 0-2 1-2-1 0-2-1-4 3-1 0-4-4-3-5-4 2-3-1-1-2-6-3-3-3-4-6 2-4-3-1-2 1-2-2-4-1 z"></path></a><a xlinkHref="/sejmsenat2019/pl/wyniki/senat/okr/57" data-id="57" kbw:hover="Okręg wyborczy nr 57 [Krosno]"><path d="M 753 835 l 9 8 3-2 4 3 2-2 8 2 2-2 2-3 1-2 6 2-1-2 1-3 3 2 5-2 3 5 4 4 1 0 4-3 3 1-1 3 2 0 5 4-4 6 8 1-1 5-4 2-1-1-1 3 0 1-2 1 1 1-3 0-3-4-4 2-4-2-3 3-1 0-1 4-5-3-5 3-3 0-1 3-2-1 3 9-1 4 2 3 3 3-2 2 3 4-5 3 3 14-2 0-1-1-2 0-3-3-2 1-2-4-4 2-1 2 0 2-1 0-2-4-4-3 0-2-7 0-3-5-5 2-2-1-1 1-3 0-1 3-3-2-1 3-5 0-4-4 0-3 2-2-3-3 4-1-2-2-1-1-2-4-2-1 2-4-6-4 4-6-3-4 1-1-1-1 1-1 0-2 0-1 0 0-3-1 1-3-2-1 0-4-3-1-3 1-1-4 0-3 2 0 1-2 4 2 3-3-5-5-1-2 2 0 0 2 4 1 0-5 2-1 2 2 1 2 1-1-1 1 1 3 4 0 0-2 4 0 7 2 2 6 6-2 1 2-1-2 2-2-2-2 z"></path></a><a xlinkHref="/sejmsenat2019/pl/wyniki/senat/okr/58" data-id="58" kbw:hover="Okręg wyborczy nr 58 [Krosno]"><path d="M 862 874 l-1 4-4 3 1 3 6 3 6 21 0 7 0 11-2 1-1 3 4 1-2 1-2 6 1 1 2-3 2 0-2 4 4 1 2-1 0 3 3 1-1 1 3 2 3 0 0 2 3 1-2 5 1 2-1 2 1 0 0 1 2 2 0 2-3 1-2-1-1-3-3 0 0-1-4-3-1 0-1 2-4-2-4 3-3-2-3-5-2 0-1-2-2 0-2 2-2-1-3 0-1 1-5-2-4 0-3-3-2-4-4 0-2 2-7-2-3 0 1-3-1-3-4 2-5-2 0-2-2 0-9-3 0-5-1-1 0-3-5-5-6-11 0-6-1-2 5-3-3-4 2-2-3-3-1-2 0-9-2-1-1-3 2 0 1-3 3 0 5-3 5 3 1-4 1 0 3-3 4 2 4-2 3 4 3 0-1-1 2-1 0-1 1-3 1 1 4-2 1-5-8-1 5-6 1-1 2 0 0-1 1-2-5-5 3-2-2-2 0-7-5-1-2-4 0-1-1-1 0-3 7 0-1-3 2 1-1-2 1-3-1 0 0-2 0-1 4-3 1-2-2-5 1 3 0-3 3 0 0-3 0-4 4 1-1-2 2-2 2 1 1-3 2 0 1-1 4 0-1-1 2-1-2-1 0-2 3-3-1-2-1 1 0-3 3 0-1-3 2-2 1 2 2 0-3-5 1-4 3 1 2-2-1-2 1 0 0-2 7 2 5-2 10 1 4-1 14 1 15-18 4 1 4 3 0 1 10-7 0-2 3 1-2 2 2 1 0 3 2 0 1 2 3 1-3 8 1-2 4 1 2 1 3-1 2 1-2 1 1 2 0 2 2 0 2 2-7 6-4 5-5 4-7 9-3 2 0 2-4 5-2 1 0 3-10 13-1 2-10 17-3 1-1 4 1 1-3 2-4 4 0 3-2 2-3 5-2 3-2 0-2 3 0 3 z"></path></a><a xlinkHref="/sejmsenat2019/pl/wyniki/senat/okr/59" data-id="59" kbw:hover="Okręg wyborczy nr 59 [Białystok]"><path d="M 765 329 l-6-2-4-4 2-2 0-3 4 1 0-1-2 0 2-5-2 0-2 3-3 0-1-2-2-1-3-6-7 2-4-5 1-4-2-2-2-5 2-1-1 0-2-5-2 0-2-3 3 0 1-2-2-1 2-3-1-3 3 2 0-1 2 1 3-1-5-2 0-2-3 1 0-1 1 0-1-2 2-3-3 0 1-1-1-4-2-1-1 0 0-3-2-1 0-4-1-1 2 0-1 0 0-2-1 0 5-1 4-2 9 1 8 4 3-2 0-4 3-3 2 0 4-2 3 4 3-5 5-2 8-5 8-9 4-2 3-4 4-2 2-2 1 0 1 2 3 0-1-5 5 0 6-7 0 2 2 1 2-7 1 2 6-3 2-7 0-4 5-6-1-8-8-9-3-9-7-3 0-5 3-2 0-2-2-2-3-5-1 2-3 0-1-3-2 0-2-4 1-1-3-1 2-2-1-1 3 0 1-5 3 0 1-2 0-1 3 0 3-4 5 2 5-4 2 1 2-2 0-4-2 0 3-2-1-4 1-1 2-6 5-1 0 2 9 1 0 1 3 0-2 3 7 3-2 4 5 3 5-3 2 1-1 2 5 1 3 4 10 1 2 3 3 1 4 7 3 1 3 3 1 6 4 8 0 5-2 5-2 1 1 4 3 2 0 7 1 9 3 1 1 14 3 3 1 8-2-1-1-1-2 0-3 2 1 1-1 0-5-2-3 1-8-3-1 2-3 1-5 0-2-2-5 5-2 0-3 4-1-1-2 2-1 4-2 2-3 0-1 3-4 2 0-3 0 0 0 1-3 1 1 4 2-2 1 1 0 0 0 0 1 1 2 0 0 6 3 1 3 0 0 1 2 5-1 3 1 9-1 3 5 1-1 8 4 2 0 1-2 1-3-1 0 4-2 0 0 1-3 0 0 3-2 0-1-1-3 2-2-1-1-1 3-1-1-1-3 3 1 2 2 0 1 1-3 1-4 6-3-1-2 3-1-2-4 2-1-4-1-1-1 1 0-3-2-2-2-1-4 6-2-1-3 2 1 6-2-2-4 1-2-2-6 2 1 1-3 1 3 3 0 3 1-1 0 3 2 2 4 2 0 2 4 2-3 5-4 1-5 4-2 0 0 3-4 2 1 4-5 2 0 5-1 2 1 4-1 2-2 1-1 3-1-1 0 1-2-3-2 2-4-1-1 0 1 5-4-1-5 3-2-3-2 3-4-1-1-2 1-3-1-1-3 2 1-5-2-2 2-1 2-2-2-1 0-1-1-1-2 0 2-2 z"></path></a><a xlinkHref="/sejmsenat2019/pl/wyniki/senat/okr/60" data-id="60" kbw:hover="Okręg wyborczy nr 60 [Białystok]"><path d="M 811 290 l 2 0-1-1 6-2 2 2 4-1 2 2-1-6 3-2 2 1 3-6 4 2 1 4 1-1 1 1 1 4 4-2 1 2 2-3 3 1 4-6 3-1-1-1-2 0-1-2 1-2 2-1 0 1-2 1 2 2 4-2 1 1 2 0 0-3 3 0 0-1 2 0 0-4 3 1 2-1 0-1-4-2 1-8-5-1 1-3-1-9 1-3-2-5 0-1-3 0-3-1 0-6-2 0-1-1 0 0-1-1-2 2-1-4 2 0 1-2 0 3 4-2 1-3 3 0 2-2 1-4 2-2 1 1 3-4 2 0 5-5 2 2 5 0 3-1 1-2 8 3 3-1 5 2 1 0-1-1 3-2 2 0 1 1 2 1 9 28 16 39 2 4 4 2 1 6 5 4 1 4-2 2-2 8 5 7-1 1 2 1 1 7 2 3-3 4 0 5-2 1-3-1-4 0-3-4-2 0-1-1-2 1-3-1-1 2-8 1 0-4 1-2-3 0-2 2-2 0 2-1-3-2-1 1-3 0-2-3-5 3 0 3-2-1-4 1 0 6 2 0 0 3-2 1-6 1-4-2-7 1-1-1-2-1-3 2-2-1-5 2-6-1-6-2 0 6-1 0-2 3-3-2-2 1 2 2-5 1 0 1-1-1-3 0-2 2 0-6-5-4 0-3 0 0 3 1 2-1 0-3 2-3-3-4 2-2-2 0 2-5 8-4 0-3-3 1-2-1-2-4 1-3-6 1-2-1-5-1 1-1-3-1-2 0-2 2-1 6-2 0 1 0-4-2 0-2-4-2-2-2 0-3-1 1 z"></path></a><a xlinkHref="/sejmsenat2019/pl/wyniki/senat/okr/61" data-id="61" kbw:hover="Okręg wyborczy nr 61 [Białystok]"><path d="M 897 336 l 4-1 2-1 0-3-2 0 0-1 0-6 6 1 0-3 5-3 2 3 2 0 2-1 3 2-2 1 2 0 2-2 3 0-1 2 0 4 8-1 1-2 3 1 5 0 3 4 4 0 3 1 3-1 1 12 2 3 1 16-4 6-2 0-13 12-2-1-7 2-10 5-7 5-10 14-16 31-2 0-5-2-2 2-2 1-1-1 0-3-1-3-4-2-1 1-3-5-4-1-8 2-5-2-3 1-1-2-3 3 0-3-2-1-4 1-1-1-1 1-2-1-1 1-1-2-3 1-4-5 1-6-2 1-2-4 1-6-6-7-1-3-4-2-1-2 4-2 0-3 2-1-2-1-2-7 2-12-1-3-7 0 0 2-4 1 1 3-1 2-1 0 0-1-2 0 0-1-1 0 0-4-2 1 0-1-3-8-1 0 2-1 0-1 1 1 0 1 3-1 0-3-2 1 0 1-1-2 2-3 1 1 1-3 2-1 1-2-1-4 1-2 0-5 5-2-1-4 4-2 0-3 2 0 5-4 4-1 4-5 1-6 2-2 2 0 3 1-1 1 5 1 2 1 5-1 1 0-1 3 2 4 2 1 3-1 0 3-8 4-2 5 2 0-2 2 3 4-2 3 0 3-2 1-3-1 0 1 0 2 5 4 0 6 2-2 3 0 1 1 0-1 5-1-2-2 2-1 3 2 2-3 1 0 0-6 6 2 6 1 5-2 2 1 3-2 2 1 1 1 7-1 4 2 z"></path></a><a xlinkHref="/sejmsenat2019/pl/wyniki/senat/okr/62" data-id="62" kbw:hover="Okręg wyborczy nr 62 [Słupsk]"><path d="M 259 132 l 3-3 10-2 2-2 0-2-1-6-3-1 1-5-2-4 3 0 2-1-3-6 2-4-2-3 1-1-2-2 0-1-4-1-2-5 0-2-4-6 6 0 8-3 5 0 6-4 9-8 18-10 10-3 11 0 18-4 1 1-1-1 8-3 16-4-1 3 2 5 3 0 1 3 2 1 4-1-1-3 1-1 0-2 2 1 3 8-1 2 4 6 3 0 2-1 0 2 2 1 2 3 1-2 1 4 5-1 0 2 2 1 3 1 1-2 2 2 0 3 3 1 1 7-4 4 2 2-2 1 0 2-3 2 4 0 2 6-2 3-3 0-2 3-6-2-2 1-1-1 0-1-2-1-4 4-4 2-1-2-2 1 0-3-1 0-3-1-4 2-5-2-4 4-4 0-3 1-4-2-2 2 0 5-3 3-2-1 1-2-2-3-1 2-3 0-2 1-1-8-2 0-3-3-2 3-2-2-2 0 0 1-3-1-3 6 2 2-1 1-2 0-1 1 0 6-2 2 0 2 0 1-1 0 0 5-3 2 0 1-1 0-3 1 0-2 1-1-2-3 2 0 0-2-1 0 0-3-2 0-3 3-5-4-10 5 0-1-3-1-1-1-3-3 0 2-1-1 0 3-2-1 0 3 0 2-2 1 0 6 2 3-3 3-3 0 0 5-5 1 0 1 1-1 0 3-1 1-2-1-2 3-1-1-1 1-3 2-3 0 0 2 1-5-3-1 0-5-1 0-1-3-2-1 1-4-2 0 z"></path></a><a xlinkHref="/sejmsenat2019/pl/wyniki/senat/okr/63" data-id="63" kbw:hover="Okręg wyborczy nr 63 [Słupsk]"><path d="M 271 208 l 7-5 2-4-3 1-1-4-3-1 0-3-1-1 1-3 2 0 0-1 6 1-1-1 3 0 1-4-3-1-9-6 2-1 0-4-3-1 0-3-2 1 0-2-1 0 0 2-1 0 1 2-2 0 1-3-1-2 0 0 0 0 1 0 0 0 0 0-1 0-1-2 2-2 0-3 1-3-1-1 0 1 0-2 0-2 3 0 3-2 1-1 1 1 2-3 2 1 1-1 0-3-1 1 0-1 5-1 0-5 3 0 3-3-2-3 0-6 2-1 0-5 1 1 1 0 0-3 1 1 1-2 3 4 3 1 0 1 10-5 5 4 3-3 2 0 0 3 1 0 0 2-2 0 2 3-1 1 1 2 1-1 2 0 0-1 3-2 0-5 1 0 0-1 0-2 2-2 0-6 1-1 2 0 1-1-2-2 3-6 3 1 0-1 2 0 2 2 2-3 3 3 2 0 1 8 2-1 3 0 1-2 2 3-1 2 2 1 3-3 0-5 2-2 4 2 3-1 4 0 4-4 5 2 4-2 3 1 1 0 0 3 2-1 1 2 4-2 4-4 2 1 0 1 1 1 2-1 6 2 2-3 3 0 2-3-1-3 1 0 0 1 3 2 0 3-1 0 2 1-2 4 2 0 0 2-3 2 2 1-1 3 2 1 0 3 2 2 1 2-2 1-2-1 0 2-2 2 0 1-2 1 0-1-1 0-4 3-3-1-2 3-5 2-4 6 2 2-1 3 4 1 1 2 4 0 1 2-1 4 3 0-2 5 2 0-1 0 1 1-1 1 2 1-1 2-2 0-1 2-3 1 1 1-1 1 0 0 0 0 0 1 1 0-2 2 2 1 3-2 2 5-3-1-4 4-2-1-1 2-3 1-2 0 1-2-4-1-2 2 0 2-4 2 4 5 0 1-3-2 0 1-3 0-1 3 1 4-2 0 4 3-1-1 2 1 1 0 0 1-5 4 0 4-3 7-5 1-2-2-1 0-1-2-1 1-1-1-2 0-3-2-1 2 1 0 3 4-1 1 0 1-2 0-2 4-3-1-2 2-3-3-1 0 0 2-2 1-1 5-2 2 1 3-1 1 2-1 0 4-4 0-2-2-1 2 2 1-1 2-6-4-3 3-3-1-3-6-3 3-3 0-3 2-1 4 1 4-1 1-2 6 0-1-5 1-1-3-2 0 0-3-1 1-2-2-3 1-6-1-2 1-7-3-3 4-5 0-1-2 1-1 0-2-2-1-3 2-1-7-4-6-1-16 z"></path></a><a xlinkHref="/sejmsenat2019/pl/wyniki/senat/okr/64" data-id="64" kbw:hover="Okręg wyborczy nr 64 [Słupsk]"><path d="M 415 90 l 3-2 0-2 2-1-2-2 5-4-1-1-1-7-3 0 0-3-2-2-1 2-3-1-2-1 0-2-5 1-1-4 0 0 0 1 0 0-1 1 0 0-2-3-2-1 0-2-2 1-3 0-4-6 1-2-3-8-2-1 0 2-1 1 1 3-4 1-2-1-1-3-3 0-2-5 1-3 14-1 25 1 9 7 24 15 8 7 4 5 1 3-2 2-11-17-4-1-2-3-19-11-3 9 2 1 5 5 0 10 4-1 0 5 3 4 2 5 0 6-2 0 2 5 0 3-4 1-2 2 1 1-1 3-2-1 1-1-1 0-2-2-2 0 0-3-2-1 0-1-1 0-1-3 z"></path></a><a xlinkHref="/sejmsenat2019/pl/wyniki/senat/okr/65" data-id="65" kbw:hover="Okręg wyborczy nr 65 [Gdańsk]"><path d="M 422 108 l 3-2 0-2-2 0 2-4-2-1 1 0 1-1 2 2 1 0-1 1 2 1 1-3-1-1 2-2 4-1 3 6 4 3 2 0 0-1 4 5 1-1 0 2 1 1 5 0 4 3 6 1 4 0 2-3-2 9 1 5-2-1-1-4-3 0-4-5-4-1-3 2-3-1-2 5-2 0 1 1-5 2-1 3-3-1 0-1 1-1 0-1-2-1-1 0-1-2-3 0 0-3-3 0-2 3-2-3 1-2-3-2 1-3 z"></path></a><a xlinkHref="/sejmsenat2019/pl/wyniki/senat/okr/66" data-id="66" kbw:hover="Okręg wyborczy nr 66 [Gdańsk]"><path d="M 386 194 l 2 0-1-4 1-3 3 0 0-1 3 2-4-6 4-2 0-2 2-2 4 1-1 2 2 0 3-1 1-2 2 1 4-4 3 1-2-5-3 2-2-1 2-2-1 0 1-2-1-1 3-1 1-2 2 0 1-2-2-1 1-1-1-1 1 0-2 0 2-5-3 0 1-5-1-1-4 0-1-2-4-1 1-3-2-2 5-7 4-1 2-3 3 1 4-3 1 0 0 1 2-1 0-1 2-2 0-2 3 1 1-4 1-1 3 0 0 3 3 0 0 2 4 1 0 1-1 1 0 1 3 1 1-3 5-2-1-1 2 0 2-5 3 1 3-2 2 1 6 5 3 0 3 6 1 5-3 6-6 4-3 5-2 9 2 0-2 0 1 8 2 4 1 5 2 4-1 4 3 7-5 11 1 3-1 5 2 5-1 3-5 4-3 1-1 2-1-1-1 1-2 0-1-1 0-2-2 2-3-1-1 3-2 1-4-1-1 1 2 2-3 1-4-5 1-1-1-2-4 0-1 2 0-1-10 1-9-2-1-2 3-1-1-1 0-3-5 1 0-2-2 2 0-3-2 0 0 2 0 0 0 0-2-2 0-2-2 0-2 2 0-2-4-2 1-3 4-4 z"></path></a><a xlinkHref="/sejmsenat2019/pl/wyniki/senat/okr/67" data-id="67" kbw:hover="Okręg wyborczy nr 67 [Gdańsk]"><path d="M 451 228 l 4-9 7-7-2-6 1-5-1-3 5-12-3-4 1-7-3-4 0-4-2-4-1-7 2-1-2 0 2-9 3-5 5-4 3-6-1-11 2-8 4 3 4 0 26-4 15-5 10-6 6-4 1 1-2 10-20 11-12 4-3 3 0 2 4 3 3 8-1 1-3 1-4 3 1 3-4 5 4 5-3 3 5 2 0 2-2 1 1 3 2 1 0-2 3 0 4 3 5 1-4 2-1 4 1 4 3 1 1 1 7-3 9-1 0 4-2 0 0 4-5 7 1 2-4 4 2 2-2 4 1 0 0 1-2-1-1-2-8-3-4 0-2 2 1 2-2 2 0 5-8 9 1 3-1 0 0 5-1 1-2-1-5 5 0 4-4-2-6 1-3-1-2 2-5-1-1 2 0-2-2-1-12-1 0-1 0 1 z"></path></a><a xlinkHref="/sejmsenat2019/pl/wyniki/senat/okr/68" data-id="68" kbw:hover="Okręg wyborczy nr 68 [Częstochowa]"><path d="M 539 708 l 1 4-2 1 1 1-2 1-4-1-2 2-2-1 0-1 0 1-2 2-2 0 1 2-2 1-3 0-2-2-1 2-3 0-1 1 2 0-2 3 2 2-1 1 1 3-1 1-2 0 0 1-2 1-3-2 0-1-5-2-3 3-6-2-10 4 1-2-4 4-1-4-2-2 2-1-2-1 1-3-3 0 0-2-4 0 0-1-1 0-1 1-7-2-3-5-3 6 4 1 1 1-3 4-1-3-5-2-1-2-4-1-2 1-3 0-17-6 0-3-1 0 2-3-3-1 1-1-2-1 0-1 2-1-3-2 3-2 1-2 3 0 1-4 2 2 1-2-3-1-2-3-1 0 0-3-2 0 6-2 0-4 3-3 3 0 1-3 3-7-1-2-2 0-2-4 1-2 4-1 1-3-1-2 4-2-3-7 4-1 10 0-1-1 2 0 0 0 4-1 4 3 3-7 9 6 1 2 3 2-1 2 1 1 2-2 2 0 3 6 1 0 0-2 2 0-1 1 2 0 0 1 4 2 4-1 1-2 1 0-2-3 1-3 1 1 3-2 3 0 1 1-1 2 1 2 3 2 0 2 4-2 1 3 0 1 3 2 0 4 3 2 1 7 1 1 2-1 1 0 1-2 5-2 1 0 3 5 5 0 0 4 2 1 5 0 1-1 1-2 7 4 2 3-2 0 1 2-2 1-2-3-1 2 1-1-1 3 2 2-3 1 0 1-3 3 0-3-1 0-1 2-1-1 2 7-1 1 0 0 3 5 3 1 1 3-4 0-1 4-2-1-2-3 2-3-1-2-1-1-3 7 z M 476 682 l 3 0-1 1 1 2-1 0-1 5 3 5 2-1 1 2 1-2 4 0 1-2 7 1 3-5-1-3 1-4-2 1-1-1 0-2-1-1-1-5-1-1-2 1-2 3 0 1-2-2-2 0-1 2-2-1-2 3 0 3 z M 555 689 l 0 0 0 0 0 0 z M 557 683 l 0 0 0 1 z M 557 683 l 0 0 0 0 z"></path></a><a xlinkHref="/sejmsenat2019/pl/wyniki/senat/okr/69" data-id="69" kbw:hover="Okręg wyborczy nr 69 [Częstochowa]"><path d="M 477 688 l 1-3 1 1-1-3 4-7 2 1 1-2 2 0 2 2 0-1 4-4 1 1 1 5 1 1 0 2 1 1 2-1-1 4 1 3-3 5-7-1-1 2-4 0-1 2-1-2-3 0-2-4 z"></path></a><a xlinkHref="/sejmsenat2019/pl/wyniki/senat/okr/70" data-id="70" kbw:hover="Okręg wyborczy nr 70 [Katowice]"><path d="M 448 761 l 0 6 2 0-1 2 1 1-1 1 2 3 4 1 1 3-2 2 1 2-3 1-3-2-3 1 0 3-1 0-1 1-1 0 0 0 0 0 0 0 0 1-4-2 0-1-2 3-1-1-3 1-4-3-4 2-2-1 1-1-3-2 1-1-2 0 1-3-1 0-1-4-3 0 1-3-4-1 2-2-2-4 2-1 0-1-1 0-1-2-4-3 2-1 0-2 2 1-2-2 3-1-4-5 0-1 3-1-1-8 3 1 3-1 1 1 0 2 3 1 1-2-2-2 0-3-1 0-1 0 0 0 0 0-2-5 1-3 4-1 8 2 2-1 3 0 1-3-1 0-1-1 1-5 8 3 3 0 2-1 5 1 0 2 5 2 1 3 3-4-5-2 0-1 3-5 3 5 7 2 1-1 1 0 0 1 4 0 0 2 3 0-1 3 2 1-2 1 0 0 2 2 1 4 8-5 0 3-1 1 0 3-2 0 0 3-3 1-1 2 0-1-4-1-1 4-2 0-2 3-3-1-3 0 0 8-2-3-1 1 1-2-1-1-1-2-1 0-1 1-2-1-1 2-2-1-2 1 1 5-3-1-1 1-1 0-1 0 2 4-3 0 z"></path></a><a xlinkHref="/sejmsenat2019/pl/wyniki/senat/okr/71" data-id="71" kbw:hover="Okręg wyborczy nr 71 [Katowice]"><path d="M 448 761 l 3-2-2-4 2 0 1-1 3 1-1-5 2-1 2 1 1-2 2 1 1-1 1 0 1 2 1 1-1 2 1-1 3 4 4 1-2 6-10-2 0 1-2 1 0 2 2 2-3 1 0 2-2 0-1 5-3-1-2-3 1-1-1-1 1-2-2 0 1-6 z"></path></a><a xlinkHref="/sejmsenat2019/pl/wyniki/senat/okr/72" data-id="72" kbw:hover="Okręg wyborczy nr 72 [Bielsko-Biała]"><path d="M 433 815 l 3-2-2-4 1-1 5-2-1-2-1 0 1-3 4 2 2 0 5 3 0 4 2 2 0 3-5 0 1-2-2-1-1 0-1 2-3-1-1 6-2 2 5 0 0 3-2 4-1-1-3 1-1 1 1 2-5-2-1-2-1 1-2-2 1 3-2 2-4-1-3-3-3-1 0-2-7 0-4-2 2 3-1 1-1-1-1 3-4-4-1-4-6-1-1-5-3 0-2 3-2-3-2 1-2-3 1-2-2-1 0-2-2-1-1-2-2-1 4-7-2-1 1-2-2-1 2-3-1-1 1-1-1-1 2 1 3-2 1 2 2-3 1 1 2-1 2 1 0-1 7-1-1-1 0-2 1-2 2 1 4-2 1-2 5-1-1-1 9 1 2 4 1 0-1 3 2 0-1 1 3 2-2 3 0-1-2 1 0 2-6 0 1 3-1 0-5-1-3 0-1 3-3-1-1 2 2 1-1 1 2 1 1 1 8 4 3-3 4 1-1 4 2-1 1 2 2 1 0 1 5 1 0 3 2 1 0 2 z M 435 807 l 0 1-1 0 1-1 z"></path></a><a xlinkHref="/sejmsenat2019/pl/wyniki/senat/okr/73" data-id="73" kbw:hover="Okręg wyborczy nr 73 [Bielsko-Biała]"><path d="M 426 808 l-2 0 0-1-2-1-1-2-2 1 1-4-2 0 0-1-5 3-8-4-1-1-1 0 0-2-1 0 0-3 3 1 2-3 8 1-1-3 6 0 0-2 2-1 0 1 1-2 2 1 4-2 4 3 3-1 1 1 2-3 0 1 4 2 0-1 1 0 1-1 1 0 0-3 1 1 0-2 2 0 3 2 3-2-1-1 2-2-2-2 2-2 2 3 1 0 0 2 1-1 2 3 2-1-1 0 4-1 2 5-1 1 2 3-1 1 0 3-1 1 1 2 2 0-2 6-4-2-1 1-1-2-1 0-2 4 0 1 1 0 0 2-6 1 0-2-5 2-5-3-2 0-4-2-1 3 1 0 1 2-5 2 0-1 0 0-1 1 0 0 0 0 0 0 1 0 0 0-1 1 2 4-4 2-3-3 0-3 z"></path></a><a xlinkHref="/sejmsenat2019/pl/wyniki/senat/okr/74" data-id="74" kbw:hover="Okręg wyborczy nr 74 [Katowice]"><path d="M 454 775 l 1-5 2 0 0-2 3-1-2-2 0-2 2-1 0-1 4 0 4 2 2 0 0-1 1 0 1-5-4-1-1-2 0-7 5 0 2 4-3 3 11 5-2 7 2 1-1 3-2 0 0-2-1 0-1 0-2-1 1 2-1 2-3-3-1 3 0 5-4 2-2-1 0 2-3 2-2-3-1 1 0 0 0-2-1 0-1-2 z"></path></a><a xlinkHref="/sejmsenat2019/pl/wyniki/senat/okr/75" data-id="75" kbw:hover="Okręg wyborczy nr 75 [Katowice]"><path d="M 479 807 l 1-2-1-4-10 0 2-6-2 0-1-4 1-2 1 1 8-4 2 2 0 3 2 1 1 2 1-1-1-1 2-1 1 0 0-3 1 1-2-5 1-2-3 0 2-1 1-6 2-3 2 1 3 7 2 2 6 7 1 4-4 9 1 1 1 1-1 0-1 1 0-1-4 1-1 0-1 1-1 0 0 2-4 1-4 2-2 1 1-3-1 1 0-2 z"></path></a><a xlinkHref="/sejmsenat2019/pl/wyniki/senat/okr/76" data-id="76" kbw:hover="Okręg wyborczy nr 76 [Katowice]"><path d="M 505 769 l 0-2-2 0-1 1 0-2-2 0-1-2-3-1-5 1 0 2-3-1-2 2-6-1 2-7-11-5 2-2-1-4 2-1 1-2 2 0 1-4 4 1 0 1 1-2 2 0 1-2 0-2 2 0 0-3 1-1 0-3 2-1 3 0 6 2 3-3 4 1 0 2 1-1 0 1 3 2 2-1 0-1 2 0 1-1-1-3 1-1-2-2 2-3-2 0 1-1 3 0 1-2 4 3 3-2-1-2 3-1 1-2 0 1 2 1 2-2 4 1 2-1-1-1 2-1-1-4 5 1 3-7 1 1 1 2-1 2 0 3 3 2 1-4 3 0 1-2-6-4-1-5 4 2 2-1 3 1 1-2-1 3 4 0 1 3 2-1 0 2-1 1 0 2-3-1 1 2-1 1 5 1 1 1 3 0 0 1-2 3-4-1-1 0-1 5-3 3-2 0 0 3 5 0 1 2 5 0 1 4 3 2 1 0 3 4-8 1-1 1 1 2-5 1 0 2-3 0-2-1-9 0-1-1-1 2-3 2 1 1-2 1 0 1-3-1-2 1-1-1-3 1 1-1-3 0 0-1-3 0-3 3 0 5-3-1 0 1 3 3-1 4-3 1-3-2-2 3 1 2-1 0-2 4-2 1 1 0-1 2-1-2-4 2 0-3 z"></path></a><a xlinkHref="/sejmsenat2019/pl/wyniki/senat/okr/77" data-id="77" kbw:hover="Okręg wyborczy nr 77 [Katowice]"><path d="M 508 773 l 9 4 4 1-2 2 0 2-1-1-4 2-4 1 2 2 2-1 0 2-2 0 0 3-2 1-6 0 0 4-2 1 1-3-3-6-8-7-3-8-3-3-3 0 0-2 3 0 2-2 3 1 0-2 5-1 3 1 1 2 2 0 0 2 1-1 2 0 0 2 3 1 z"></path></a><a xlinkHref="/sejmsenat2019/pl/wyniki/senat/okr/78" data-id="78" kbw:hover="Okręg wyborczy nr 78 [Bielsko-Biała]"><path d="M 458 837 l 3-5 2 1 1-5-3 3 0-1-1-3-4 0-3 2-3-4-2 1-2-2 0 3 1 3 0 1-5 1-2 2-4-4 1-3 3 0 1 1 1-1 1-4 0-2-5 0 2-2 1-6 3 1 1-2 1 0 2 1-1 2 5 0 0-3-2-2 0-4 5-2 0 2 6-1 0-2-1 0 0-1 2-4 2 2 1-1 3 2 11 0 1 4-1 2 2 1 0 2 0-1 1 0-1 3 10-4-1 3-2 2 0 1 0 0-1 0 1 3 0 0-1 2 1 0 1 1-4 1-1 2 2-1 1 2 3 0 5-2 0 3 1 8-4 3 1 2 3-1 0-1 1-1 2 1 5 1 2 2 0 5 3 6-5 1-2-3-3 1-4-7-2 0-3 2 1 2-2 4 3 2-5 4 2 3-2 2 1 1-7 0-5 5 0 3-1 0-4-1 0-3 4-6-1-3-7-4-1-2-5-3-1-3-2-1 2 1 1-3-3-1 0-2 2 0 z M 460 832 l 0 0 1-1 0 0 0 0 0 0 0 0 z"></path></a><a xlinkHref="/sejmsenat2019/pl/wyniki/senat/okr/79" data-id="79" kbw:hover="Okręg wyborczy nr 79 [Bielsko-Biała]"><path d="M 476 870 l 0-3 5-5 7 0-1-1 2-2-2-3 5-4-3-2 2-4-1-2 5-2 4 7 3-1 2 3 3-1 5 1 2-1 3 3 2-2 3 4 0 2-2 1 0 2-3 1 0 2-3 1 5 3 3-1 2 0 2 3-1 3 1 3-1 2-3 0 0 2-3 1-1 3-4 1 0 5-11 1-3 3 1 2-2 5 1 0-1 2-2 1-2 3 1 3-2 0-2 2-2-1-2 1-5-3 0 1-2 0-1 2-1 1-6 0-1-3 3-3-3-4 1-8-3-2-5 1-6-2 2-2 0-2-2-2-1-4 1-1-2-1-2-8 1-4-3-2-4 2-3-2-1-3-4 0 0-1-2 1-2-3 0-4-2-1-4-12 2-3-1-1 3-1-4-2 0-6 6 2 4 3 1-2 5-1 0-1-1-3 0-3 2 2 2-1 3 4 3-2 4 0 1 3 0 1 3-3-1 5-2-1-3 4 2 3-2 0 0 2 3 1-1 3-1-1-1 0 2 1 2 4 4 2 1 2 7 4 1 3-4 7 0 2 4 1 z M 460 832 l 0 0 1-1 0 0 z"></path></a><a xlinkHref="/sejmsenat2019/pl/wyniki/senat/okr/80" data-id="80" kbw:hover="Okręg wyborczy nr 80 [Katowice]"><path d="M 465 777 l 3 1 3-2 0-5 1-3 3 3 1-2 0-2 5 3 1-3 1 0 0 2 3 0 3 3-3 3-1 6-2 1 3 0-1 2 2 4-1 0 0 3-1 0-2 3-1-2-1 0-1-1 0-3-2-2-9 4 0-1 1-1-2-3 1-2-2-4-2 0 z"></path></a><a xlinkHref="/sejmsenat2019/pl/wyniki/senat/okr/81" data-id="81" kbw:hover="Okręg wyborczy nr 81 [Kielce]"><path d="M 609 761 l 2-2-2-2 2 0 3-2-3-1 1-3-2 0-2-5-2-2 0-6-1 0-1-2-2 1-2-3-5 2-3-1-2 1-3-1 1-1-2-2-2-1 0 1-3 1 0-1-4-2-2 0-1 2-2 1-3-2-1-4-5 0-1-2-5 0 0-3 1 1 1-1 3-3 1-5 5 1 2-4-3 0-2-1-4-1 1-1-1-2 3 1 0-2 1-1 0-2-2 1-1-3-4 0 1-3-1 2-3-1-2 1-4-2 0-1-1-3 0-2 1 1 1-2 1 3 3-3 0-1 3-1-2-2 1-2 0 0 0-1-1 1 1-2 1 0 0 1 1 2 0 0 0 0 1 0 0 0 1-1-1-2 2 0-3-4-6-3 4-4 0-3 5-2 1-2-2-6 3-6 2-7 1 0 1 3 4 1 0 2 1 0 1 1 0 2 6 5 2-2 0-4 1-2 0-7 1-1-1 0 0-1-7-1 1-4-1-6 2 0-1-1 4-4-4-3 3-3 3 0 0 2 1-1 6 1 4-1 2 0 0-2 2 1 0 1 2-2 0 1 1 0 1-1 1 0 2-2-2 0 1-3-2-1 0-2 2 0 1 2 4 0 2-2 4 3 1-1 0-3 1-2-3-6 5-1 2-4 3 2 5 0 1 2-1 1-2 1 1 1 1 1-1 1 4 1 0 1-1 2 1 1 1 4 2 0 1-2 3-1 3 4 6 2 1 4-2 2 0 6-1 1 0 3-1 1-3 1-3 3 1 4-4 0-1 1-1-2 0 2-3 0-1-3-6 3 1 1-3-1 0-1 0 2 1 0-1 1 0 2-1 1-1-2-3-2 0 2-4 5-2-1 0 1-4 2-1-3-3 0 0 2-1 0-2-1 1 2-2 1-2 4-3-4-4 0-2 3 2 1 3 5 1 0 1-2 4 3 3 3-1 3-2 3 10 1 3 10 3 2 3 0 2 3 2 0-1 2 0 2 1-1 4 0 1 2 5 2 0 2 2 2 0-1 2 0 0 2 2 2 1 1 4 0 2 1-1 3 3 1-1 2 1 1 1 1-1 0 1 2-1 1-3 1-1 3 2 1 1 1 4 2 2-3 4-1 0 1 0 3 3 1 1-4 0 1 1 0 2-2-3-4 2 1 2-8 5 0 0-5 6 1 2-3 4 1 0 6 2 0 0 2 1 0 1-4 2 0 1 2 8-1 2-2 0-4-2 0 0-1 1-2 1 0-2-2 4 0 1 0 1 2 2-1 5 2 2-3 1 2 5 1 1 2-1 2 5 1 0 2 1-1 0 0-2 2 3 3-2 0 1 3 1 0 4 3 0 2 2 0 1 4 3 2 1 2-7 3 1 5-5 3-4 1-9 5 0 3-2 0-4 6-3 1 0 3-2 0-2-4-2 0-2 3-2 0-3 4-11 0-2 3-4-1-2 2-2 0-2 3-4-2-3 3-4 3 0 3-2 1 0 2-2 0-1 2-4-1 0 1 0-1-1 1 0 0-4 0-1 3-2-3-5 3-5-2 1 1-2-1 0 1-2-1-2 1-1-3-2 1-1-2 0-2 2-2-2 0-3-3-2-1 3-2 0-1-2 0 0-2 1 0-2-1 0-2 z"></path></a><a xlinkHref="/sejmsenat2019/pl/wyniki/senat/okr/82" data-id="82" kbw:hover="Okręg wyborczy nr 82 [Kielce]"><path d="M 716 702 l 0-1 0 0 0 0 0-1-5 0-1-2-2 3-5-2-2 1-1-2-1 0-4 0-1 1 0-4 3 1-1-3 1-2-3-3 1-7-2 0 0-3 1-3-1-6 1-1 2 0 1-2-3-2-3 1 1 1-3-1-4 2-3 0 0-2-2-1-1 2-1-8 2 0 1-2-2-1-3-3 2-4-1-1-2 2-5-3-1 2-2-1-3 4-1 1-1 5 2 1-2 4-3-2-1 2 0-3-3 0 0-4-3 1 0-3 1-1-1-2-3-3-2 3-1-2-3 0-1-1 3-3-2-3-3 2 0 2-1-2-1-4 3-3 3-1 1-1 1-7 2 0 2-3 5 2 0 1 1 1 1-1 2 1 1-2-1-1 1-2 3 0 3 3 4-7 8 6 0 2 3-1 0-1 3 0 2-4-1-5 4 2 0 1 1 1-3 6 4 2 2 2 2 0-1 0 0 7 21-1 0 3 3 1-1 3 6 2 3 2 3-1-1-1 2-1-2 0 0-1 3 0-2-1 2-1-1-1 3-1 1 2 4-2 1 1 2-2 1 1 1-1-2-1 3-1 1 1 2-1 3 5 2 1 1-1 2 1 3-1-1-1 2-2-1-1 2-1 2 3 1 2-3 2 3 7-1 9 4 11 0 4 2 4-2 9 0 3-1 6-1 2-3 2 1 0-2 3 0 2-3-1-1 2-2 0-5 6-1 5-5 9-5 0-4 2-1-2-3-2-1-4-2 0 0-2-4-3-1 0-1-3 2 0-3-3 2-2-1 1 0-2-4-1 0-2 z"></path></a><a xlinkHref="/sejmsenat2019/pl/wyniki/senat/okr/83" data-id="83" kbw:hover="Okręg wyborczy nr 83 [Kielce]"><path d="M 587 658 l 2-3 2 0 5 4 2-4 2-1-1-2 3 1 0-2 3 0 1 3 4-2 0-1 2 1 4-5 0-2 3 2 1 2 1-1 0-2 1-1-1 0 0-2 0 1 3 1-1-1 6-3 1 3 3 0 0-2 0 0 1 2 1-1 5 2 0-2 3-2 2 3-3 3 4 2 0-1 1 2 2-3 4 5-1 1 0 2 1 1 2-1 0 4 3 0 0 3 1-2 3 2 2-4-2-1 1-5 1-1 3-4 2 1 1-2 5 3 2-2 1 1-2 4 3 3 2 1-1 2-2 0 1 8 1-2 2 1 0 1 0 1 0 0 3 0 4-2 3 1-1-1 3-1 3 2-1 2-3 0 1 7-1 2 0 4 2 0-1 7 3 3-1 2 1 3-3-1 0 2 0 2 3 1-1 0-1 2 0 1 2 0 0 4-5 3-1-1-4 1-1-2-2 0-1 4-1 0 0-2-2 0 0-6-4-1-2 3-6-1 0 5-5 0-2 8-2-1 3 4-2 2-1 0 0-1-1 4-3-1 0-3 0-1-4 1-2 3-5-2 0-1-2-1 1-3 3-1 1-1-1-2 1 0-1-1-1-1 1-2-3-1 1-3-2-1-4 0-3-3 0-2-2 0 0 1-2-2 0-2-5-2-1-2-4 0-1 1 0-2 1-2-2 0-2-3-3 0-3-2-3-10-3-1 0 1-3-1-4 0 3-4-3-5-4-3-1 2-1 0-3-5 z"></path></a><a xlinkHref="/sejmsenat2019/pl/wyniki/senat/okr/84" data-id="84" kbw:hover="Okręg wyborczy nr 84 [Elbląg]"><path d="M 644 156 l-2 0 0 3-1-1-2 2 0 4-5 3-2-1-1 3-8-2-2-2-1 2-2 0 0-3-3 0 0-6-3 0 0-2-2-1 1 0-6-3-1 4-1 0 0 2 1 0 2 3-5 1-1 2-3 3 1 1-2 1 1 2-5 1-1-3-5 3-2-5 1-4-1 1 0-2-2 0-1-3-2 1 1-2 0-1-1 1-1-2-2 1-2 5-2 2-4-1 1 4-5-3-4 0-1 3-5 0-2 2-1 2 2 2-2-1-2 2 0 2-1-2-2 1-3 0-2 4-3-1-2 0-3-2 1 1-1 1-2-1-1 2-8 0-7 3-4-2-1-4 2-5 3-1-5-1-4-3-3 0 0 2-2-1-1-3 2-1 0-2-5-2 3-3-4-5 4-5-1-3 4-3 3-1 1-1-3-8-4-3 0-2 3-3 12-4 20-11 2-10 64 7 24 4 4 1 2-1 9 1 45 4-1 1 1 2-2 1 0 1-3 1 0 4 2 0-1 2-4 1-3-5-1 5-3 0-3 5 3 2 0 3-1 0 0 3-1 0-1 8 3 0 6 6-4 1 2 3-2 2 1 2-2 1-1-4-1 0-4 5-5-4-2 4-4-2-1 1-1-1-1 3-1 0-5-2 z"></path></a><a xlinkHref="/sejmsenat2019/pl/wyniki/senat/okr/85" data-id="85" kbw:hover="Okręg wyborczy nr 85 [Elbląg]"><path d="M 542 290 l 2-3 2 0-1-1 1-1-2-1 1-2-3 0 0-5-5-2-5 3-6 0 1-4-1-3-4 2 0-2-1 0-1 2-3 0 2-2-3-1-1-2-1 0-1 1 0-4-2 0-3 1-3-1-1 4-3-2-3-3 2-2-1-2 0-2-2 0 1-2-1-4-3-3 3-3-1-3-2 0 1-4-3-1-4-1 0-4 5-5 2 1 1-1 0-5 1 0-1-3 8-9 0-5 2-2-1-2 2-2 4 0 8 3 1 2 2 1-1-1 2-4-2-2 4-4 0-2 4-7 0-4 2 0 0-4 2 0 1-2 2 2 2 0 3 1 2-4 3 0 2-1 1 2 0-2 2-2 2 1-2-3 3-3 5 0 1-3 4 0 5 3-1-4 4 1 2-2 1-4 3-2 1 2 1 0-1 2 2-1 1 3 2 0 0 2 1-1-1 4 1 1 0 3 6 5-2 0-4-1-1 2-1-1 0 1 1 1-2 2-1 3 0 3 3 2 4 0-1 3-4 2 0 3 1 1 0 4 5 4-1 1-2-2 0 3-4 0 0 2 1 0 0 2 3-1 2 2-3 0-1 3-1-1-1 2 0 1 3 0-1 6 2 1-1 4-2 0-1 2 6 10 0 2 3 2 1 3 3-2-1 1 0 2-1 1 3 0 2 2-2 2-6 4 1 2-1 0 1 2 3 2-1 0 1 1-1-1 0 1-1 0 0 1 0 1-1 1-2-1 2 1 0 6-1 4 2 2 0 1 2 1 3 3-1 4 0 4 3 0 3 2 3-2-1 2 1 0 0 1 5-3 2 4-3 5-5 3 4 1-1 1-6 2-12-3-1 2-2 1-3-5-3 1 0 1-4 0-1 2-1-1-4 1-7-5 1-5-2-1-6 7 1 1 0 4-6-2-2 0-2-8 2-1-1-3-6-1 0-3 z"></path></a><a xlinkHref="/sejmsenat2019/pl/wyniki/senat/okr/86" data-id="86" kbw:hover="Okręg wyborczy nr 86 [Olsztyn]"><path d="M 590 277 l 1-4 0-6 2-4 1 1-1-1 1 0-3-2-1-2 1 0-1-2 3-3 1 0 1 0 0-1 3-2-2-2-3 0 1-1 0-2 1-1-3 2-1-3-3-2 0-2-6-10 1-2 2 0 1-4-2-1 1-6-3 0 0-1 1-2 1 1 1-3 3 0-2-2-3 1 0-2-1 0 0-2 4 0 0-3 2 2 1-1-5-4 0-4-1-1 0-3 4-2 1-3-4 0-3-2 0-3 1-3 2-2-1-1 0-1 1 1 1-2 4 1 2 0-5-5 5-2 1 3 5-1-1-2 2-1-1-1 3-3 1-2 5-1-2-3-1 0 0-2 1 0 1-4 6 2-1 1 2 1 0 2 3 0 0 6 3 0 0 3 2 0 1-2 2 2 8 2 1-3 2 1 5-3 0-4 2-2 1 1 0-3 2 0 1 6 6 2 1-3 1 1 1-1 4 2 2-4 5 4 4-5 1 0 1 4 2-1 1 7 1-1 1 2 2 0-2 5 0 1 0 1 2 1-5 10-2 2 3 6 2 0 2 4-3 2 2 2 1 7 3 1 7 6-1 2-1-1 0 1 3 4 0-3 2 0 0 1 5 3 0 1 1 2 3-1 0 1 1-1 2 0 0-3 4 2-1 4 2 1 4 15 1 1 1 2 5 0 2 2-12 3 2 2-1 0 0 0-1 0 0 0 2 2-1 0 0 1-2 1-3-1-3 3-5-2-1 3 0-2-1-1-3 1-7 5-5 6-6 4-2-3-4-2-3 2-3-1-2 3 2 3-1 1-1-1-1 2-3-2 0 2-2 1 0 2-2-2-6-2-2 0 0 2-1 0-2-1 0 2-2 0 0 2-3 6-5 0 0 2-2 1-1-1-2 2-2-1-1 2-2-2-3 0-1-2-5 5-2-3-5 3 0-1-1 0 1-2-3 2-3-2-3 0 0-4 1-4 z" class=""></path></a><a xlinkHref="/sejmsenat2019/pl/wyniki/senat/okr/87" data-id="87" kbw:hover="Okręg wyborczy nr 87 [Olsztyn]"><path d="M 706 229 l 1-4-4-2 0 3-2 0 0 0-1 1 0-1-3 1-1-2 0-1-5-3 0-1-2 0 0 3-3-4 0-1 1 1 1-2-7-6-3-1-1-7-2-2 3-2-2-4-2 0-3-6 2-2 5-10-2-1 0-1 0-1 2-5-2 0-1-2-1 1-1-8-1-1 2-2-2-3 4-1-6-6-3 0 1-8 1 0 0-3 1 0 0-3-3-2 3-5 3 0 0-5 3 2 1 3 4-1 1-2-2 0 0-4 3-1 0-1 2-1-1-2 1-1 5 1 3-1 7 0 5 1 1 1 8-2 59-4 6-1 9 0 45-6 1 2-3 4 2 0 0 4-1 1-1 1-2-1-5 4-5-2-3 4-3 0 0 1-1 1-3 1-1 5-1-1-3 3 1 2 2 0-1 1 2 4 2 0 1 3 3 0 1-2 3 5 2 2 0 2-3 2 0 5 7 3 3 9 2 4 3 0 3 5 1 8-5 6 0 4-2 7-6 3-1-2-2 7-2-1 0-2-6 7-5 0 1 5-3 0-1-2-1 0-2 2-4 2-3 4-4 2-8 9-8 5-5 2-2 5-1 0-1-3-2-1-4 2-3 1-2 2 0 4-3 2-8-4-9-1-4 2-9 1-2-2-5 0-1-2-1-1-4-15 z" class=""></path></a><a xlinkHref="/sejmsenat2019/pl/wyniki/senat/okr/88" data-id="88" kbw:hover="Okręg wyborczy nr 88 [Piła]"><path d="M 281 360 l 1-4-4 0-4 2-5-3 0-1-3-3-3-1-1 2-1-4-1 1-1-3-2 4-2-1 0-1 0 1-3 1 0 2 2 0-1 3 4 1-1 2 2 0 0 2 3 1 0 2-4 3-4 1 0 3 1-2 3 0-3 4-3-1 0-3-7 0-7 1-4-3-5 1-1 2-3-2 2-1-1-2-1 1-1-1-3 2 1-3-3 0 0 2 1 1-4 1 0-4-5 1-4-5-5 0-5 1-6 5-2 4-11-5-2-4 2-1-1-2-2-1-2-1 2-4 1-1 0 2 3-2 0-2 3 0-2-2 2-1-1-4 2-1 0-4-2-4 0-2-1 0 1-1 0-11 7 2 4 3 5 1 6-3 9-3 4 2 0-2 1 0 0-1 4-3-2-6 2 0 1-2 3-1-1 0 1-5 2 3 5-3 3 1 2-6 2 0-1-3 2 0 1-2 3 0 0 2 2 2 1-2 1 1-1-2 1-1-1 0 2-4-1 0 1-2 2 1-1-3 1 1 1-2 4-2-2 0-1-3-4-1-1-4-4 0-1-1-1 0-3-4-1 2-2-3-2-1-3-10 1 0 1-1-3 0 2-5 3 3 16-2 4-5 2 1 2-3-2 0 1-2 1-4 1 1 0-2 0-4 2-3 0-1 5-1 1-2 3 3 1-4 3 0 0 5 4 6 1 7 3-2 2 1 0 2-1 1 1 2 5 0 3-4 7 3 2-1 6 1 3-1 2 2 1-1 0 3 2 0 1 3 5-1 0 2-1 3-8 7-1 4-4 3 1 3 7 2 1 2 1 1 0 2 4 4 0 1 1 1 0-1 1 1 2 3-2 2 1 1-2 1 0 2-9 1 3 4-1 2 1 3-2 1 6 3-1 1-3 0 0 7-3 2 1 5 0 4-2 0-2 4 2 1 0 3 5 0 3-2 6 6 2 0 1 3 2 0-1 2 1 5 1 0 0 5-1 0 0 6-1 2-1 3-4 0 0-2-2 2-1 0-2 0 0 2 2 1-2 2 5 3-3 3 1 5-5 0 1 2-1 1-2-2-3-1 0 7-2-1-4 3-1-1-5 8-3 1-3-1-2 3-1 0-1-4 2-6-4 1-3-4-2 2 2-5-3-3 1-1 4 1 2-1 2 2-2-5 1-3-1 0 3-1-2-6 1-3-2 2 1-1-1 0-2 0-1 1-4 0-2-1 z"></path></a><a xlinkHref="/sejmsenat2019/pl/wyniki/senat/okr/89" data-id="89" kbw:hover="Okręg wyborczy nr 89 [Piła]"><path d="M 162 468 l 4-3 1-4 0-1-3-2 1-2-1-5 1-2-1-5 4-4 0-4 1 0-1-7 1 0 0-3 1-3-5-2-2-4-2-2 0-1 0 0 0 0 1 0 1-2 1 3 1 1 1 0 0-1 2 1 0-2 2 0-1-4 1 0-2-5 1-2-2 0-2-3 2-2-3-4 1-3-2-1-3-4 2-1 0-2-2 0 1-5 3 0-2-7 4 1 7-1 4-2 1-5 10 5 2-4 6-5 5-1 5 0 4 5 5-1 0 4 4-1-1-3 3 0-1 3 3-2 1 1 1-1 1 2-2 1 3 2 1-2 5-1 4 3 7-1 7 0 0 3 3 1 3-4-3 0-1 2 0-3 4-1 4-3 0-2-3-1 0-2-2 0 1-2-4-1 1-3-2 0 0-2 3-1 0-1 0 1 2 1 2-4 1 3 1-1 1 4 1-2 3 1 3 3 0 1 5 3 4-2 3 0 0 8 2 1 4 0 1-1 2 0 0 1 2-2-1 3 2 6-3 1 1 0-1 3 2 5-2-2-2 1-4-1-1 2-1-1 0 0 0 0 0 1-3 1-3 3-3-1-1 3-2 0-1 2 3 1 2 4-2-1-5 3-1 1-2-1-3 2-3 0 0 3-2 0 0-4-2-1-2 9-1 0-2-2-5 1 1 1-3 7-2 1 0 4-2-1-3 2 2 0 2 4-2 0 1 2-2 3-1 0-1-2-2 0-1-1-1 2-2 1-1 1-2-1-1 3 6 4-1 3-3 2 3 1-1 4 2 1 0-1 6-1 3 2 0 3-3 3 2 3 0 3-1 2 1 2-3 4 0 5-4 0-1 0 0 3-6 2-1 2 1 2-2 0 2 2-2 2 2 4-2 0-2 5-6-2 0-1 2 1 0-2-2 1-2 2-2-1-2 2 1 2-3 2-1 3-8-3-7 1-1-2 2-1-1-6-2-1-5 3-5-1-1-3-2 0-1-3 0-2 3 0 0-2 1-2-3-4-2-1-2 0-1 3-4-3-2 0 z"></path></a><a xlinkHref="/sejmsenat2019/pl/wyniki/senat/okr/90" data-id="90" kbw:hover="Okręg wyborczy nr 90 [Poznań]"><path d="M 224 430 l 1-3 2 1 1-1 2-1 1-2 1 1 2 0 1 2 1 0 2-3-1-2 2 0-2-4-2 0 3-2 2 1 0-4 2-1 3-7-1-1 5-1 2 2 1 0 2-9 2 1 0 4 2 0 0-3 3 0 3-2 2 1 1-1 5-3 2 1-2-3-3-2 1-2 2 0 1-3 4 1 2-3 3-1 0-1 4 3-2 5 2-2 3 4 4-1-2 4 1 6 3-2 0 3 3-1 0 2 3 2 3-1 3 2 2-2 3 1 0 1 2 1-4 4 4 2-2 2 1 2 2 0 1 3 2 2-1 3-2 1-2 2 2 4-1 1 1 4-4-1 0 3-1-1-1 1-3 0 0 2-4 1-3 5-2-1 0 2 1 1-2 2-1-2-2 3-1-1-3 2 1 1 2-2 3 3-4 2 2 2-1 2-6 2-4 4-1-2-3-1-2-2-4 3 0-2-4-4-1 1-2 2-2-1-6 2-2-2 1-3-4-2-3 4-4-3-2 2-3 1 1 2-3 1 0-7-2-3 3-3 0-3-3-2-6 2-2-1 1-4-3-1 3-2 1-3 z M 253 414 l 2 2 1-2 1 0 1 3 1 2 0 5 1 2-2 2 3 0 1 2-1 2 2 2 2-3 4 1-1 3 3 1 0 2 2 2 1-1 3 3 1 0-1-2 1-1-1-2 1-2 1 1 1-1 2 2 1-2 1-4-2-6 4-4-2 1-1-1-3 0-1-1 3-1-1-2-1 2-4 0 0-12-5 3-1-1-2 1 1 4-4 0-1-2-2 2-3-2-1 1 0-2 z"></path></a><a xlinkHref="/sejmsenat2019/pl/wyniki/senat/okr/91" data-id="91" kbw:hover="Okręg wyborczy nr 91 [Poznań]"><path d="M 252 414 l 6-3 0 2 1-1 3 2 2-2 1 2 4 0-1-4 2-1 1 1 5-3 0 12 4 0 1-2 1 2-3 1 1 1 3 0 1 1 2-1-4 4 2 6-1 4-1 2-2-2-1 1-1-1-1 2 1 2-1 1 1 2-1 0-3-3-1 1-2-2 0-2-3-1 1-3-4-1-2 3-2-2 1-2-1-2-3 0 2-2-1-2 0-5-1-2-1-3-1 0-1 2 z"></path></a><a xlinkHref="/sejmsenat2019/pl/wyniki/senat/okr/92" data-id="92" kbw:hover="Okręg wyborczy nr 92 [Konin]"><path d="M 257 466 l 1-4 0-1 5-2 2 1 2-3 5 3 0 3 4-3 1 0 5 5 4-4 6-3 1-1-2-2 4-2-3-3-2 2-1-1 3-2 1 1 2-3 1 2 2-2-1-1 0-2 2 1 3-5 4-1 0-2 3 0 1-1 1 1 0-3 4 1-1-4 1-1-2-4 2-2 2-1 1-3-2-2-1-3-2 0-1-2 2-2-4-2 4-4-2-1 0-1-3-1-2 2-3-2-3 1-3-2 0-2-3 1-1-3 6-1 6-8 1 1 4-3 2 1 0-7 3 1 2 2 1-1-1-2 5 0-1-5 3-3 3 2-1 2 2 0-1 1-2 1 0 3 1 0 0-1 2 1 0 1 2 1 2-3 3 0 1-3 4 0 2 3-1 2 0 5 5 0-1 7 1 0 1-2 1 2 4-5 0-1-2 1-1-1 4-3 1 4-1-1 0 1 2 0 1-3 4 2-1 1 2 1 4-1 2 4 1 0-1 3 2-1-2 2 1 2 2 1-1-2 1-1 1 3 3-1-1 2 1 0 1-2 0 5 1 0 1-2 5 2 1-1 3 0 1 1-2 4 2 1 2 0 0 2-10 8 4 5 0 3 2 0 0 3-3 8-4 0 1 3 1 0 0 2 3 1-4 2 1 2-2 3 0 2-1 1 1 10-1-1-1 3-2 2 3 2 2 3-6 2-2 2-9 1-1 2-3-1 0-2-5 2-2-1-5 2-1 1-3-6 1-6-2-1-7 0 0 2 0-2-3 0-2 0 0 2-2 1 1 5-5 3 2 4-2 1-1 1-3 2-2 1-7-1-2 2-1-1 1 1 0 4-12 0-3 3-1-1-4 3 1 3-2 1-8-3 0-1 2-2-2-1 1 0-1-1-2 0-3-5-5-2-4-1 4-7-1-1-4 1 0-5 1 0 0-1-3 0 1-3-4 0 z"></path></a><a xlinkHref="/sejmsenat2019/pl/wyniki/senat/okr/93" data-id="93" kbw:hover="Okręg wyborczy nr 93 [Konin]"><path d="M 442 424 l 1 0 2-1-1 5 4 0 1 4 2 2 1 5 5-3 2 1 5-3 1 0 2-1 0-2 2 0-1-3 3 3 2 1 1 2-2 0 1 1 3 0 0 3 4 1 0 2-1 0 1 4-1 4 6 0 1 4-2 1-1 2 1 3-1 1-2-2-3 0-3 0-2 2-1-1-1 2-3 0-1 10 2 2 1-1 1 1-1 3-1 0-1 4-4-1-2-1-1 1-2 3-2-1-2 2-4-3-3 2 0 5 1 5-1 2 1 1 0 2-2 0 2 3 1-2 0 5 2 1-4 8 0 1-3 1 1 2-2 5-3-1-1-1-3 0-2-2-4 0-4 2 0-3-4 0 1-1-1-2-5 0-1-7-6 1-2-3 0-2-3-1 2 0-2-6-5-4 3-4-2-2-3 1 0 2-2 2-1-1-1 3-2-1 0 3-6 1 0 1-17-5 4-7-1-5-2 0-1-2 2 0 2-2 6-2-2-3-3-2 2-2 1-3 1 1-1-10 1-1 0-2 2-3-1-2 4-2-3-1 0-2-1 0-1-3 4 0 3-8 0-3-2 0 0-3-4-4 1-2 11-8 5 1 0 3 4-1 2 1 8-6 0-3 1 0 3 1-1 5 2 5 3 0 0-1 4 0 0-2 1 0 2-2 3 1 1 1 0 2 2-1 0 4 3 0 1-1 1 2 4 1 z"></path></a><a xlinkHref="/sejmsenat2019/pl/wyniki/senat/okr/94" data-id="94" kbw:hover="Okręg wyborczy nr 94 [Kalisz]"><path d="M 239 542 l 0-2 3-1 0-2 1 1 1-1-4-4-1-1 2-2-7-1-1-3-3 0 0-3-15-1 1-8-2 0 1-2-5-4 2-1-4-1-3-3-1 1-2-1-4 5-2 0 0-3-2 1-1-2-6 0 0-2 3-2-1 0 2-2-1-1 7-1 8 3 1-3 3-2-1-2 2-2 2 1 2-2 2-1 0 2-2-1 0 1 6 2 0-3 1 0 1-2 2 0-2-4 2-2-2-2 2 0-1-2 1-2 6-2 0-3 1 0 4 0 1-7 5-3-1-2 3-1 1-2 2 0 3 3 3-4 4 2-1 3 3 2-1 5 3 4 2 1 2-1-1 3 3 0 0 1-1 0 0 4 4 0 1 1-4 7 2 1 4 0 4 3 0 1 1 2 3 1 1 1-1 0 2 1-2 2 0 1 8 3 2-1-1-2 4-4 1 1 5-1 2 3 2 0 0 2 5 5-1 2 3 2-2 2 2 2-2 1-2-1-1 1 5 3-1 3-1 1 0 4 1 0-2 5-4 0 0-4-1 0-1 1-1 0-6-3 0 3-3 4 3 1 0 4-3 1-3-1 0 2-1 0 3 0-1 1 6 3 1-1 2 1 1 2 0 4 2 0-1 0-1 2-2 0-1 9 0 1-2-2-7 2-1-2-5 2 1 2-1 1-2-2-2 0-4 1-1 1-2-1-2 0-4-5-6 1-4-3 1-2-3-2 0-2 2-2-11-1 1-2-4 0 z"></path></a><a xlinkHref="/sejmsenat2019/pl/wyniki/senat/okr/95" data-id="95" kbw:hover="Okręg wyborczy nr 95 [Kalisz]"><path d="M 348 608 l 3-4-1-1 2 0-2-1 1-1-2-2 0-2-4-4 2-3 1 0 0-1 2-1 0-2-4-2 1 3-2 1-3-3-2 1-1-2-3 0-1 2-3 1-3-3 1-2-3-5 1-1-2-3 1-1-1-2 1-1 3 0 2-2 0-6-1-1 0-2-4-1 0-3-8-4-3 0-8-3-9 1-1-6-2-1-1 1-7-4 0-2 3 1 3-1 0-4-3-1 3-4 0-3 6 3 1 0 1-1 1 0 0 4 5-1 1-4-1 0 0-4 1-1 1-3-5-3 1-1 2 1 2-1-2-3 2-1 3 0 0 2 3 0 4-4 3 1 5-1 1 6-1 2 1 2 8 1 0 6 3 0 1-2 8-1 2 4 7-1 11 3 2-1 4 1-1 3 3 0-2 3 2 2-2 2 6 1 1 2 2-1 0 3 4-1-1 4-4 2 0 4 2 1 0 3 9 5 0 5-1 0 0 1 3 1 5-2 6 0 4 2 2 3 1 6-4 1 1 3-3 6-12-6 1 1-3 1 2 3-2 6-4-1-2 5-3 0-2-4 2 4-3 2 2 1 0 2 2 3 0 3 1 1-2 0 1 1-1 2 1 1 2-2 1 1 1 0 0-1 2 1-1 4 2 3-2 3 0 2 1 0-1 3-4 1-2 2-3-2 0 4-14 5-2-1-3 2-1-1-6-1-1-3 2-1 2-7-2-2-2 1-4-2-2-6 0-5 z"></path></a><a xlinkHref="/sejmsenat2019/pl/wyniki/senat/okr/96" data-id="96" kbw:hover="Okręg wyborczy nr 96 [Kalisz]"><path d="M 375 533 l 2-3-3 0 1-3-2-1-4 1-12-3-6 1-2-4-8 1-1 2-3 0 0-6-8-1-1-2 1-2-1-6 5 1 0 1 0-1-6-1-4 1-3-1-4 4-3 0 0-2-4 0-2-2 1-2-5-5 0-2-2 0-2-3-3 1-1-1 4-3 10 1 0-4 2-2 7 1 2-1 3-2 1-1 2-1-2-4 5-3-1-5 2-1 0-2 2 0 3 0 0 2 0-2 7 0 2 1-1 6 1 3 2 2 0 1 0 0 1 0 0-1 5-2 2 1 5-2 0 2 3 1 1-2 7-1 1 2 2 0 1 5-4 7 4 1 8 3 5 1 1-2 4 0 1-3 2 1 1-3 1 1 2-2 0-2 3-1 2 2-3 4 5 4 2 6-2 0 3 1 0 2 2 3 6-1 1 7 5 0 1 2-2 3 1 3-3-1 0 5-2 1 1-2-1 2-1 0 2 4-2 3-1-1 2 3 0 1-2 1 1 3-2 0 0 1-4 4 0 2 3 1-2 3-1 0-1 1 2 2-2 2 3 1-1 5 0 4-1 1-4-2-6 0-5 2-3-2 1 0 0-5-9-5 0-3-2-1 0-4 4-2 1-4-4 1 0-3-1 1-2-2-4 0-2-1 2-2 z M 336 520 l 0-1 0 0 0 1 z"></path></a><a xlinkHref="/sejmsenat2019/pl/wyniki/senat/okr/97" data-id="97" kbw:hover="Okręg wyborczy nr 97 [Szczecin]"><path d="M 57 232 l 0 2 2-2 2 0 0 4 2 1-2 6 2 1-1 5 1 1 4-2 1 0-4 5 4 1 2 1-2 2 1 2-2-2-3 2 3 2 1 3 2-1-1 1 2 3-3-3-1 0 0 1 1 0-1 1-3-1-2-1 1-1-1-1 1-2-4 2-4-3-2 1 0 1-1 0-1 3-2 0 1 2-1 0-1-1-3-1 2-3 0-1-2 3-2 0-1 2-1 0-1 2-1 0-3 6-2 0-2-6 1-2-2-5 1-4-2-5 1-8-2 0 0-6-2-2-2-6 2-12-3-3 0-4-1-1 2-3-2-2 1-9 2-3-1-2 10 3 10 11 2 5 4 4 1 7 2 2 0 6 2 2 z"></path></a><a xlinkHref="/sejmsenat2019/pl/wyniki/senat/okr/98" data-id="98" kbw:hover="Okręg wyborczy nr 98 [Szczecin]"><path d="M 108 308 l 1 2-2 4 4 2 0 3 1-1 0 1-1 0 3 1 1 5 1 0-1 0 0 2-1 4 4 7-4 2 0 1-1-1-21 8-2-2-1-3-4 3-1-4-3-1-2-2 0 0 0-1-2 0-2 4 2 1 1 2-3 2 0-3-3 0 1 2-2 1 0 3 1 0 0 3-2 0 0 2-3 1-3 2 1 4-1 6-4 4-1 4-2 0-1 2-5-1 0-2-3-2-7 5-2-1-7-5-11-15-6-4-6-8-7-1-2-2 0-2 4-7-1-7 0-5 12-5 9-8 5-14-2-4 2-6 2-1 1-2 4-6 0-2 3-6 1 0 1-2 1 0 1-2 2 0 2-3 0 1-2 3 3 1 0 1 1 0 1 0-1-2 2 0 0-1 1-2 1 0 1-2 5 3 4-2-1 2 1 1-1 1 2 1 3 1 1-1-1 0 0-1 1 0 3 3 0-1-2-2 1-1-2 1-1-3-3-2 3-2 2 2-1-2 2-1-2-2-4-1 4-5-1 0-4 2-1-1 1-3 0-3-2 0 2-6-2-1 0-4-4 2 0-4-3-2 0-6-2-2-1-7-4-4-2-5-10-11-10-3-5-14 0-7-2-1 2 0 2-2 4 2 1-2 0 2 5 2 5-1 6-2 5-5 16-5 6-3 18-4 36-13 10-1 0 1-4 5 3 4-3 3 6-1 2 2 1 3 0 1-1 1-2 3 1 2-1 1 0 6-1 1 2 1 3 2-1 3-3 0 1 2 2 2-1 1 3 1 0-1 0 0 0 3 5 1 0 2 2 4-1 2 1 5 3 5 3 2 4 6 0 3 11 6 0 3-2 1 0 2-1 2 1 3-2-1-3 4-1 0-2 7 2 0 0 2 1 1-2-1-1 3 2 1-7 6-1 2-5 2 1 0-1 4 1 4-2 1 0 3-4 3-3 0 0 1-4 1-1 2-1-1 2 2-1 3 2 1-2 2 0 2 2-1 0 2-4 1-6-3-11-1-3 6 1 2 2 1 4-1 3 2-1 1 2 2 0 2-4 0 1 3-2 2-1-1-4 4 0 3-5-1 z"></path></a><a xlinkHref="/sejmsenat2019/pl/wyniki/senat/okr/99" data-id="99" kbw:hover="Okręg wyborczy nr 99 [Koszalin]"><path d="M 107 314 l 2-4-1-2 1-1 5 0 0-3 4-4 1 1 2-2-1-3 4 0 0-2-2-2 1-1-3-2-4 1-2-1-1-2 3-5 0-1 4 0 7 1 6 3 4-1 0-2-2 1 0-2 2-2-2-1 1-3-2-2 1 1 1-2 3 0 1-1 0-1 7-2 0-4 2-1-1-4 1-4-1 0 5-2 1-2 7-6-2-3 2-1 1 1-1-1 0-2-2 0 2-7 1 0 3-4 1 1 1 0-1-3 1-2 0-2 2-1 0-3-11-6 0-3-4-6-3-2-3-5-1-5 1-2-2-4 0-2-6-1 1-3 0 0 0 1-3-1 1-1-2-2-1-2 3 0 1-3-3-2-2-1 1-1 0-6 1-1-1-2 4-4-2-4-2-2-6 1 1-1-1-1 3-1-3-4 1-1 3-5 10-1 6-3 4 0 19-5 1 1-1 2 2 0-1 4 1 3 2 0-1 2 8 3-1 2 3 3-3 2 0 2 3 1 0 1 4-2 2 1 5-3 0-1-1-1 1-1 2 0 1 3 0 2 1 0 2 4 5 4 1-1 4 3 0 1 4-1 7 3-2 4 3 1-1-1 1-1 2 4 2-1 2 1 0 1 3 2-1 0 0 3-1 1 1 0-1 3-7-2-2 2-2 4-6 1 1 2-2 2-3 1-3 1 0 1 2 1-1 3 2 2 1 2-2 4 3 0 2 5-2 2 0 2-5 0 3 0 2 4 3 2 1 5-4 2 3 1 1 0 0 3 2 2-1 2 3-1 1 3 5-1 1 2-1 4 3 0 1 3-2 8 3 0-1 1-1 0 3 10 2 1 2 3 1-2 3 4 1 0 1 1 4 0 1 4 4 1 0 2 3 2-4 1-1 2-1-1 1 3-2-1-1 2 1 0-2 4 1 0-1 1 1 2-2 0 1 1-2-1-1-3-3 0-1 2-2 0 1 3-2 0-2 6-3-1-5 3-2-3-1 5-5 3 2 6-4 3 0 1-1 0 0 2-4-2-9 3-6 3-5-1-4-3-6-2 1-2 1 0 0-1 1-3-1-3 0-2 0 0-7-2-6 1 1 4-5 1 1 3-4 1 3 2-2 0-2 3-1 0 2 2-2 3-4 1-4-2-5 3-1-1-3 0-1-1-1 0-2-4-1 1-7 3-2-1-6 3 1 1-4 4-7-3 1-2 0-2 1 0-1 0-1-5-3-1 1 0 0-1-1 1 0-3 z"></path></a><a xlinkHref="/sejmsenat2019/pl/wyniki/senat/okr/100" data-id="100" kbw:hover="Okręg wyborczy nr 100 [Koszalin]"><path d="M 208 193 l 1-2 5-1 2-2-1-2 6-1 2-4 2-2 7 2 1-3-1 0 1-1 0-3 1 0-3-2 0-1-2-1-2 1-2-4-1 1 1 1-3-1 2-4-7-3-4 1 0-1-4-3-1 1-5-4-2-4-1 0 0-2-1-3-2 0-1 1 1 1 0 1-5 3-2-1-4 2 0-1-3-1 0-2 3-2-3-3 1-2-8-3 1-2-2 0-1-3 1-4-2 0 1-2-1-1 6-2 16-2 12-5 16-14 6-10 2 0 4-7 4-4 5-4 4-2 12-2 4 6 0 2 2 5 4 1 3 7-2 4 3 5-2 2-3 0 2 4-1 5 3 1 1 8-3 2-9 2-3 3 1 2 2 0-1 4 2 1 1 3 1 0 0 5 3 1-2 6 2 1 0 2-1 1 0 3-2 2 1 2 1 0-1 0 1 2-1 3 2 0-1-2 1 0 0-2 1 0 0 2 2-1 0 3 3 1 0 3-2 2 9 6 3 1-1 4-3 0 1 1-6-1 0 1-2 0-1 3 1 1 0 3 3 1 0 3 4 0-2 4-7 5 2 4 1 11-3 0-1 4-3-3-1 2-5 1 0 1-2 3 0 4 0 2-1-1-1 4-1 2 2 0-2 3-2-1-4 5-16 2-3-3-1-2 1-1-1-3-3 0 1-4-1-2-5 1-1-3-3 1 1-2-2-2 0-3-1 0-3-1 3-1 1-3-1-1 0-2-3-2-2-3 2-1 0-2 2-2-2-5-3 0 2-4-1-2-2-2 1-3 z"></path></a></svg>